SplineFontDB: 3.2
FontName: Vrude-Italic-Regular
FullName: Vrude Italic
FamilyName: Vrude
Weight: Regular
Copyright: Copyright 2017 The Playfair Display Project Authors (https://github.com/clauseggers/Playfair-Display), with Reserved Font Name "Playfair Display".\n\nModified into Vrude for Lojban/Zbalermorna in 2020 by Jack Humbert.
Version: 1.200;
DefaultBaseFilename: vrude-italic-regular
ItalicAngle: -14
UnderlinePosition: -110
UnderlineWidth: 20
Ascent: 800
Descent: 200
InvalidEm: 0
sfntRevision: 0x00013333
LayerCount: 2
Layer: 0 0 "Back" 1
Layer: 1 0 "Fore" 0
XUID: [1021 647 -312734098 17743]
StyleMap: 0x0040
FSType: 0
OS2Version: 4
OS2_WeightWidthSlopeOnly: 0
OS2_UseTypoMetrics: 0
CreationTime: 1438840825
ModificationTime: 1590618121
PfmFamily: 33
TTFWeight: 400
TTFWidth: 5
LineGap: 0
VLineGap: 0
Panose: 2 15 5 2 2 2 4 3 2 3
OS2TypoAscent: 750
OS2TypoAOffset: 0
OS2TypoDescent: -250
OS2TypoDOffset: 0
OS2TypoLinegap: 198
OS2WinAscent: 816
OS2WinAOffset: 0
OS2WinDescent: 313
OS2WinDOffset: 0
HheadAscent: 750
HheadAOffset: 0
HheadDescent: -250
HheadDOffset: 0
OS2SubXSize: 692
OS2SubYSize: 642
OS2SubXOff: 0
OS2SubYOff: 138
OS2SupXSize: 692
OS2SupYSize: 642
OS2SupXOff: 0
OS2SupYOff: 471
OS2StrikeYSize: 44
OS2StrikeYPos: 272
OS2CapHeight: 750
OS2XHeight: 500
OS2Vendor: 'JH  '
OS2CodePages: 2002019f.00000000
OS2UnicodeRanges: 80000001.10000002.00000000.00000000
Lookup: 4 0 1 "zlmFF" { "zlmFF subtable"  } ['liga' ('latn' <'dflt' > 'DFLT' <'dflt' > ) ]
Lookup: 4 0 1 "zlmSFF" { "zlmSFF subtable"  } ['liga' ('latn' <'dflt' > 'DFLT' <'dflt' > ) ]
Lookup: 4 0 1 "zlmSF" { "zlmSF subtable"  } ['liga' ('latn' <'dflt' > 'DFLT' <'dflt' > ) ]

StartChar: exclam
Encoding: 1 33 1
Width: 263
Flags: HW
HStem: -14 128<32.1672 106.831>
VStem: 7 125<10.9741 88.4951> 94 18<197.833 225.286>
LayerCount: 2
Fore
SplineSet
94 199 m 1xa0
 117.806763285 289.125603865 143.806763285 422.292270531 172 598.5 c 0
 181.333333333 656.833333333 191 705 201 743 c 0
 209.666666667 769 224.666666667 782 246 782 c 0
 264 782 277 776.333333333 285 765 c 128
 293 753.666666667 294 738.666666667 288 720 c 0
 283.461687641 703.497045969 277.764289421 685.063572228 270.907805338 664.699578777 c 128
 264.051321255 644.335585325 257.886653024 626.789065371 252.413800647 612.060018913 c 128
 246.940948269 597.330972455 239.541223057 577.671428132 230.21462501 553.081385943 c 128
 220.888026963 528.491343754 213.98315196 510.130881773 209.5 498 c 0
 167.560913706 384.517766497 135.060913706 283.851099831 112 196 c 1
 94 199 l 1xa0
57 -14 m 0
 42.3333333333 -14 30.3333333333 -9.16666666667 21 0.5 c 128
 11.6666666667 10.1666666667 7 22.3333333333 7 37 c 0
 7 56.3333333333 14.6666666667 74 30 90 c 128
 45.3333333333 106 62.3333333333 114 81 114 c 0
 95.6666666667 114 107.833333333 109 117.5 99 c 128
 127.166666667 89 132 76.6666666667 132 62 c 0xc0
 132 42.6666666667 124.333333333 25.1666666667 109 9.5 c 128
 93.6666666667 -6.16666666667 76.3333333333 -14 57 -14 c 0
EndSplineSet
EndChar

StartChar: question
Encoding: 13 63 2
Width: 438
Flags: HW
HStem: -14 128<132.167 207.557> 188 17<179.534 263.229> 765 17<258.449 355.958>
VStem: 86 63<223.879 333.128> 107 125<10.4443 88.9414> 139 93<639.892 714.996> 290 79<250.424 317.263> 402 73<600.241 732.365>
LayerCount: 2
Fore
SplineSet
311 765 m 0xf3
 292.333333333 765 271.666666667 761.166666667 249 753.5 c 128
 226.333333333 745.833333333 212.333333333 733.333333333 207 716 c 1
 213 714.666666667 219 709.833333333 225 701.5 c 128
 231 693.166666667 233.333333333 683.333333333 232 672 c 0xe7
 231.333333333 658.666666667 225.833333333 647.833333333 215.5 639.5 c 128
 205.166666667 631.166666667 193 627 179 627 c 0
 165.666666667 627 155.666666667 630.833333333 149 638.5 c 128xf3
 142.333333333 646.166666667 139 656.333333333 139 669 c 0xe7
 139 685.666666667 144.333333333 701 155 715 c 128
 165.666666667 729 180.166666667 741 198.5 751 c 128
 216.833333333 761 237.166666667 768.666666667 259.5 774 c 128
 281.833333333 779.333333333 304.333333333 782 327 782 c 0
 356.333333333 782 382 777.5 404 768.5 c 128
 426 759.5 443.333333333 746.333333333 456 729 c 128
 468.666666667 711.666666667 475 690 475 664 c 0
 475 633.333333333 463.166666667 601.5 439.5 568.5 c 128
 415.833333333 535.5 372.666666667 494.666666667 310 446 c 0
 275.333333333 419.333333333 246 397.166666667 222 379.5 c 128
 198 361.833333333 179.833333333 345.166666667 167.5 329.5 c 128
 155.166666667 313.833333333 149 295.333333333 149 274 c 0
 149 255.333333333 154.333333333 239.166666667 165 225.5 c 128
 175.666666667 211.833333333 194 205 220 205 c 0
 238.666666667 205 257.666666667 208.833333333 277 216.5 c 128
 296.333333333 224.166666667 309.333333333 235 316 249 c 1
 310 249.666666667 304 253.5 298 260.5 c 128
 292 267.5 289.333333333 275.333333333 290 284 c 0
 290 294 294.166666667 303.333333333 302.5 312 c 128
 310.833333333 320.666666667 321.666666667 325 335 325 c 0
 344.333333333 325 352.333333333 322.5 359 317.5 c 128
 365.666666667 312.5 369 303.333333333 369 290 c 0
 369 274 363.833333333 259.833333333 353.5 247.5 c 128
 343.166666667 235.166666667 329.5 224.5 312.5 215.5 c 128
 295.5 206.5 277.166666667 199.666666667 257.5 195 c 128
 237.833333333 190.333333333 219 188 201 188 c 0
 167 188 139.333333333 196.166666667 118 212.5 c 128
 96.6666666667 228.833333333 86 253 86 285 c 0
 86 313.666666667 94.5 339.5 111.5 362.5 c 128
 128.5 385.5 151.166666667 407.833333333 179.5 429.5 c 128
 207.833333333 451.166666667 238.666666667 474.666666667 272 500 c 0
 318 535.333333333 351.166666667 564.833333333 371.5 588.5 c 128
 391.833333333 612.166666667 402 639.666666667 402 671 c 0
 402 698.333333333 394.666666667 720.833333333 380 738.5 c 128
 365.333333333 756.166666667 342.333333333 765 311 765 c 0xf3
107 37 m 0xeb
 107 57 114.666666667 74.8333333333 130 90.5 c 128
 145.333333333 106.166666667 162.333333333 114 181 114 c 0
 196.333333333 114 208.666666667 109 218 99 c 128
 227.333333333 89 232 76.6666666667 232 62 c 0
 232 42 224.333333333 24.3333333333 209 9 c 128
 193.666666667 -6.33333333333 176.333333333 -14 157 -14 c 0
 142.333333333 -14 130.333333333 -9.16666666667 121 0.5 c 128
 111.666666667 10.1666666667 107 22.3333333333 107 37 c 0xeb
EndSplineSet
EndChar

StartChar: semicolon
Encoding: 10 59 3
Width: 287
Flags: HW
LayerCount: 2
Fore
SplineSet
149 55 m 0
 149 20.3333333333 136 -14.1666666667 110 -48.5 c 128
 84 -82.8333333333 48 -111.333333333 2 -134 c 1
 -3 -120 l 1
 28.3333333333 -100.666666667 53.3333333333 -79.6666666667 72 -57 c 128
 90.6666666667 -34.3333333333 101 -11.6666666667 103 11 c 1
 95 4.33333333333 86.6666666667 -1.5 78 -6.5 c 128
 69.3333333333 -11.5 60.3333333333 -14 51 -14 c 0
 25.6666666667 -14 13 -2.33333333333 13 21 c 0
 13 35.6666666667 17.5 50 26.5 64 c 128
 35.5 78 47 89.8333333333 61 99.5 c 128
 75 109.166666667 89.6666666667 114 105 114 c 256
 120.333333333 114 131.5 108 138.5 96 c 128
 145.5 84 149 70.3333333333 149 55 c 0
117 451 m 0
 117 471 124.666666667 488.833333333 140 504.5 c 128
 155.333333333 520.166666667 172.333333333 528 191 528 c 0
 206.333333333 528 218.666666667 523 228 513 c 128
 237.333333333 503 242 490.666666667 242 476 c 0
 242 456 234.333333333 438.333333333 219 423 c 128
 203.666666667 407.666666667 186.333333333 400 167 400 c 0
 152.333333333 400 140.333333333 404.833333333 131 414.5 c 128
 121.666666667 424.166666667 117 436.333333333 117 451 c 0
EndSplineSet
EndChar

StartChar: colon
Encoding: 9 58 4
Width: 278
Flags: HW
LayerCount: 2
Fore
SplineSet
16 37 m 0
 16 57 23.6666666667 74.8333333333 39 90.5 c 128
 54.3333333333 106.166666667 71.3333333333 114 90 114 c 0
 105.333333333 114 117.666666667 109 127 99 c 128
 136.333333333 89 141 76.6666666667 141 62 c 0
 141 42 133.333333333 24.3333333333 118 9 c 128
 102.666666667 -6.33333333333 85.3333333333 -14 66 -14 c 0
 51.3333333333 -14 39.3333333333 -9.16666666667 30 0.5 c 128
 20.6666666667 10.1666666667 16 22.3333333333 16 37 c 0
116 451 m 0
 116 471 123.666666667 488.833333333 139 504.5 c 128
 154.333333333 520.166666667 171.333333333 528 190 528 c 0
 205.333333333 528 217.666666667 523 227 513 c 128
 236.333333333 503 241 490.666666667 241 476 c 0
 241 456 233.333333333 438.333333333 218 423 c 128
 202.666666667 407.666666667 185.333333333 400 166 400 c 0
 151.333333333 400 139.333333333 404.833333333 130 414.5 c 128
 120.666666667 424.166666667 116 436.333333333 116 451 c 0
EndSplineSet
EndChar

StartChar: guillemotleft
Encoding: 18 171 5
Width: 517
Flags: HW
HStem: -14 21G<209 240 374 405> 508 20G<279.333 318 444.333 483>
LayerCount: 2
Fore
SplineSet
318 528 m 1
 308 506 294.5 481.666666667 277.5 455 c 128
 260.5 428.333333333 241.833333333 401.333333333 221.5 374 c 128
 201.166666667 346.666666667 180.333333333 321.666666667 159 299 c 128
 137.666666667 276.333333333 117.666666667 258 99 244 c 1
 118.333333333 228 137.666666667 204.666666667 157 174 c 128
 176.333333333 143.333333333 193.5 110.833333333 208.5 76.5 c 128
 223.5 42.1666666667 234 12 240 -14 c 1
 222 -14 l 1
 196 37.3333333333 167 84.8333333333 135 128.5 c 128
 103 172.166666667 66 210.333333333 24 243 c 1
 24 245 l 1
 77.3333333333 282.333333333 126.333333333 324.666666667 171 372 c 128
 215.666666667 419.333333333 258.666666667 471.333333333 300 528 c 1
 318 528 l 1
483 528 m 1
 473.666666667 506.666666667 460.666666667 482.5 444 455.5 c 128
 427.333333333 428.5 408.666666667 401.5 388 374.5 c 128
 367.333333333 347.5 346.333333333 322.5 325 299.5 c 128
 303.666666667 276.5 283.333333333 258 264 244 c 1
 283.333333333 228 302.666666667 204.666666667 322 174 c 128
 341.333333333 143.333333333 358.5 110.833333333 373.5 76.5 c 128
 388.5 42.1666666667 399 12 405 -14 c 1
 387 -14 l 1
 361 37.3333333333 332 84.8333333333 300 128.5 c 128
 268 172.166666667 231 210.333333333 189 243 c 1
 189 245 l 1
 242.333333333 282.333333333 291.333333333 324.666666667 336 372 c 128
 380.666666667 419.333333333 423.666666667 471.333333333 465 528 c 1
 483 528 l 1
EndSplineSet
EndChar

StartChar: guillemotright
Encoding: 19 187 6
Width: 516
Flags: HW
HStem: -14 21G<15 53.6667 180 218.667> 508 20G<93 124 258 289>
LayerCount: 2
Fore
SplineSet
276 528 m 1
 302 477.333333333 331 429.833333333 363 385.5 c 128
 395 341.166666667 432 302.666666667 474 270 c 1
 474 269 l 1
 421.333333333 231.666666667 372.5 189.5 327.5 142.5 c 128
 282.5 95.5 239.333333333 43.3333333333 198 -14 c 1
 180 -14 l 1
 190 8 203.5 32.3333333333 220.5 59 c 128
 237.5 85.6666666667 256.166666667 112.666666667 276.5 140 c 128
 296.833333333 167.333333333 317.666666667 192.333333333 339 215 c 128
 360.333333333 237.666666667 380.333333333 256 399 270 c 1
 379.666666667 286 360.333333333 309.333333333 341 340 c 128
 321.666666667 370.666666667 304.666666667 403.166666667 290 437.5 c 128
 275.333333333 471.833333333 264.666666667 502 258 528 c 1
 276 528 l 1
111 528 m 1
 137 477.333333333 166 429.833333333 198 385.5 c 128
 230 341.166666667 267 302.666666667 309 270 c 1
 309 269 l 1
 256.333333333 231.666666667 207.5 189.5 162.5 142.5 c 128
 117.5 95.5 74.3333333333 43.3333333333 33 -14 c 1
 15 -14 l 1
 25 8 38.5 32.3333333333 55.5 59 c 128
 72.5 85.6666666667 91.1666666667 112.666666667 111.5 140 c 128
 131.833333333 167.333333333 152.666666667 192.333333333 174 215 c 128
 195.333333333 237.666666667 215.333333333 256 234 270 c 1
 214.666666667 286 195.333333333 309.333333333 176 340 c 128
 156.666666667 370.666666667 139.666666667 403.166666667 125 437.5 c 128
 110.333333333 471.833333333 99.6666666667 502 93 528 c 1
 111 528 l 1
EndSplineSet
EndChar

StartChar: parenright
Encoding: 8 41 8
Width: 361
Flags: HW
LayerCount: 2
Fore
SplineSet
163 806 m 1
 197 768 226.666666667 729 252 689 c 128
 277.333333333 649 297 605.666666667 311 559 c 128
 325 512.333333333 332 459.666666667 332 401 c 0
 332 345 321.166666667 289.833333333 299.5 235.5 c 128
 277.833333333 181.166666667 247.333333333 128.666666667 208 78 c 128
 168.666666667 27.3333333333 122.666666667 -20 70 -64 c 128
 17.3333333333 -108 -39.6666666667 -147.333333333 -101 -182 c 1
 -111 -169 l 1
 -37.6666666667 -119.666666667 26.5 -66.1666666667 81.5 -8.5 c 128
 136.5 49.1666666667 179.166666667 112.666666667 209.5 182 c 128
 239.833333333 251.333333333 255 328 255 412 c 0
 255 484 246.166666667 552.166666667 228.5 616.5 c 128
 210.833333333 680.833333333 183 739.666666667 145 793 c 1
 163 806 l 1
EndSplineSet
EndChar

StartChar: bracketright
Encoding: 15 93 10
Width: 300
Flags: HW
HStem: -181 19<-79 2> 753 19<154 231>
LayerCount: 2
Fore
SplineSet
324 772 m 1
 87 -181 l 1
 -83 -181 l 1
 -79 -162 l 1
 2 -162 l 1
 231 753 l 1
 150 753 l 1
 154 772 l 1
 324 772 l 1
EndSplineSet
EndChar

StartChar: braceright
Encoding: 17 125 12
Width: 306
Flags: HW
HStem: -188 19<-87 -39.3207> 290 18<250.251 277> 763 19<148 184.145>
LayerCount: 2
Fore
SplineSet
148 782 m 1
 188 782 218 776 238 764 c 128
 258 752 270.833333333 735.5 276.5 714.5 c 128
 282.166666667 693.5 283 669 279 641 c 128
 275 613 269 583 261 551 c 0
 250.333333333 506.333333333 242.166666667 469.166666667 236.5 439.5 c 128
 230.833333333 409.833333333 228 385.666666667 228 367 c 0
 228.666666667 346.333333333 232.833333333 331.666666667 240.5 323 c 128
 248.166666667 314.333333333 259.666666667 309.333333333 275 308 c 2
 280 308 l 1
 277 290 l 1
 272 290 l 2
 251.333333333 288.666666667 233.666666667 280.666666667 219 266 c 128
 204.333333333 251.333333333 190.666666667 226.833333333 178 192.5 c 128
 165.333333333 158.166666667 151 109.666666667 135 47 c 0
 119.666666667 -14.3333333333 102.333333333 -62 83 -96 c 128
 63.6666666667 -130 40.1666666667 -153.833333333 12.5 -167.5 c 128
 -15.1666666667 -181.166666667 -50 -188 -92 -188 c 1
 -87 -169 l 1
 -71 -169 -57.1666666667 -166.833333333 -45.5 -162.5 c 128
 -33.8333333333 -158.166666667 -23.5 -148.833333333 -14.5 -134.5 c 128
 -5.5 -120.166666667 3.66666666667 -98.6666666667 13 -70 c 128
 22.3333333333 -41.3333333333 33 -2.33333333333 45 47 c 0
 59.6666666667 107 78 153.833333333 100 187.5 c 128
 122 221.166666667 145.833333333 246.333333333 171.5 263 c 128
 197.166666667 279.666666667 223.333333333 291.666666667 250 299 c 1
 220 308.333333333 197.666666667 322 183 340 c 128
 168.333333333 358 159.333333333 378.833333333 156 402.5 c 128
 152.666666667 426.166666667 152.833333333 450.833333333 156.5 476.5 c 128
 160.166666667 502.166666667 165 527 171 551 c 0
 181 591.666666667 188.5 625 193.5 651 c 128
 198.5 677 200.666666667 697.666666667 200 713 c 0
 200 733.666666667 195.166666667 747 185.5 753 c 128
 175.833333333 759 161.666666667 762.333333333 143 763 c 1
 148 782 l 1
EndSplineSet
EndChar

StartChar: quotedbl
Encoding: 2 34 13
Width: 296
Flags: HW
HStem: 518 212
VStem: 159.147 73.8531<632.397 720.199> 268.147 73.8531<632.397 720.199>
LayerCount: 2
Fore
SplineSet
311 730 m 0
 331.666666667 730 342 719 342 697 c 0
 342 682.333333333 338.166666667 667.166666667 330.5 651.5 c 128
 322.833333333 635.833333333 313 617.5 301 596.5 c 128
 289 575.5 276.333333333 549.333333333 263 518 c 1
 249 518 l 1
 253.666666667 550.666666667 256.666666667 576.833333333 258 596.5 c 0
 260.862559242 638.722748815 264.244865719 668.361769352 268.146919431 685.417061611 c 128
 272.048973144 702.47235387 278 714.166666667 286 720.5 c 128
 294 726.833333333 302.333333333 730 311 730 c 0
202 730 m 0
 222.666666667 730 233 719 233 697 c 0
 233 682.333333333 229.166666667 667.166666667 221.5 651.5 c 128
 213.833333333 635.833333333 204 617.5 192 596.5 c 128
 180 575.5 167.333333333 549.333333333 154 518 c 1
 140 518 l 1
 144.666666667 550.666666667 147.666666667 576.833333333 149 596.5 c 0
 151.862559242 638.722748815 155.244865719 668.361769352 159.146919431 685.417061611 c 128
 163.048973144 702.47235387 169 714.166666667 177 720.5 c 128
 185 726.833333333 193.333333333 730 202 730 c 0
EndSplineSet
EndChar

StartChar: ampersand
Encoding: 6 38 14
Width: 817
Flags: HW
HStem: -14 74<235.011 471.701> 148 16<383.605 468.335> 418 42<269.241 365.991> 540 18<421 457.298> 603 116<650.054 711.136> 686 16<337.274 431.551> 707 15<711.297 783.424>
VStem: 38 75<157.351 295.941> 183 62<489.852 620.236> 313 27<192.693 272.178> 483 21<580.029 648.14> 620 111<619.076 690.75> 639 20<192.304 293.539> 841 27<576.161 665.691>
LayerCount: 2
Fore
SplineSet
340 231 m 0xf3f4
 340 210.333333333 348.333333333 194 365 182 c 128
 381.666666667 170 401.666666667 164 425 164 c 0
 459.380952381 164 487.880952381 176.666666667 510.5 202 c 0
 518.833333333 211.333333333 524.333333333 218.333333333 527 223 c 1
 540 214 l 1
 531.333333333 199.333333333 517.833333333 184.666666667 499.5 170 c 128
 481.166666667 155.333333333 455 148 421 148 c 0
 387.666666667 148 361.333333333 156.333333333 342 173 c 128
 322.666666667 189.666666667 313 214 313 246 c 0
 313 287.333333333 328 320.5 358 345.5 c 0
 373.155847735 358.129873113 392.054427825 370.239818767 414.695740269 381.829836962 c 128
 437.337052713 393.419855157 457.35157354 402.551552812 474.73930275 409.224929928 c 128
 492.12703196 415.898307044 517.213931043 424.989997068 550 436.5 c 0
 638.411889597 467.538216561 701.078556263 492.038216561 738 510 c 0
 781.746958637 530.415247364 811.580291971 552.415247364 827.5 576 c 0
 836.5 589.333333333 841 604.333333333 841 621 c 0
 841 646.333333333 831.333333333 667 812 683 c 128
 792.666666667 699 769.333333333 707 742 707 c 0xf3f4
 724.666666667 707 714 704 710 698 c 1
 724 690 731 677.333333333 731 660 c 0
 731 644.666666667 724.166666667 631.333333333 710.5 620 c 128
 696.833333333 608.666666667 681.666666667 603 665 603 c 0
 651.666666667 603 640.833333333 606.833333333 632.5 614.5 c 128
 624.166666667 622.166666667 620 632.333333333 620 645 c 0
 620 665.209282225 628.650832446 681.686962998 645.952497339 694.433042318 c 128
 663.254162231 707.179121639 683.103329785 715.368107533 705.5 719 c 0xf9f4
 717.833333333 721 730.333333333 722 743 722 c 0
 782.333333333 722 813 712.5 835 693.5 c 128
 857 674.5 868 646 868 608 c 0
 868 574.666666667 858.5 544.833333333 839.5 518.5 c 0
 823.006356297 495.640388552 799.413710771 475.801606049 768.722063423 458.983652489 c 128
 738.030416074 442.16569893 699.789728267 425.1711481 654 408 c 0
 639.539086641 402.57715749 612.69147825 392.925221907 573.457174829 379.044193251 c 128
 534.222871407 365.163164595 501.091156144 352.895403421 474.062029039 342.240909729 c 128
 447.032901934 331.586416037 422.345558921 320.67277946 400 309.5 c 0
 360 289.5 340 263.333333333 340 231 c 0xf3f4
381 702 m 0xf5ec
 415.666666667 702 444.833333333 694.5 468.5 679.5 c 128
 492.166666667 664.5 504 643 504 615 c 0
 504 589.666666667 494.833333333 570.833333333 476.5 558.5 c 128
 458.166666667 546.166666667 439 540 419 540 c 1
 421 558 l 1
 439 558 453.833333333 562.833333333 465.5 572.5 c 128
 477.166666667 582.166666667 483 595.666666667 483 613 c 0
 483 635.666666667 473.5 653.5 454.5 666.5 c 128
 435.5 679.5 412.666666667 686 386 686 c 0
 357.77285325 686 333.117196225 679.315991317 312.033028926 665.94797395 c 128
 290.948861626 652.579956584 274.604518651 635.0972986 263 613.5 c 0
 251 591.166666667 245 565.666666667 245 537 c 0
 245 506.333333333 252.333333333 478.666666667 267 454 c 1
 291 458 312 460 330 460 c 0
 354 460 366 453 366 439 c 128
 366 425 355.666666667 418 335 418 c 0
 321 418 298 425.333333333 266 440 c 1
 223.333333333 427.333333333 187.166666667 403.166666667 157.5 367.5 c 128
 127.833333333 331.833333333 113 290.333333333 113 243 c 0
 113 165 153.666666667 111 235 81 c 0
 273 67 316 60 364 60 c 0
 415.691449051 60 462.313073553 67.703598558 503.864873505 83.1107956741 c 128
 545.416673458 98.5179927902 578.295048956 120.147727565 602.5 148 c 0
 626.833333333 176 639 208.666666667 639 246 c 0
 639 307.333333333 612.666666667 353.666666667 560 385 c 1
 574 392 l 1
 630.666666667 350.666666667 659 297.666666667 659 233 c 0
 659 164.534883721 630 107.034883721 572 60.5 c 0
 510.096618357 10.8333333333 428.096618357 -14 326 -14 c 0
 268.597127297 -14 218.181601383 -5.63485548373 174.75342226 11.0954335488 c 128
 131.325243137 27.8257225814 97.5741023835 52.1272447318 73.5 84 c 0
 49.8333333333 115.333333333 38 153 38 197 c 0
 38 275.735395189 73.1666666667 341.568728522 143.5 394.5 c 0
 175.833333333 418.833333333 212.333333333 436.666666667 253 448 c 1
 206.333333333 474 183 511.333333333 183 560 c 0
 183 590.996058453 193.273631166 616.890089496 213.820893497 637.68209313 c 128
 234.368155828 658.474096763 259.927857996 674.413399053 290.5 685.5 c 0
 320.833333333 696.5 351 702 381 702 c 0xf5ec
EndSplineSet
EndChar

StartChar: dollar
Encoding: 4 36 15
Width: 551
Flags: HW
HStem: -14 20<145.489 286.462> 703 19<294.981 425.239>
VStem: 1 111<85.75 208.92> 135 81<499.195 618.713> 366 103<92.9101 215.332> 459 111<504.236 620.418>
LayerCount: 2
Fore
SplineSet
379 840 m 1xf0
 109 -132 l 1
 87 -132 l 1
 357 840 l 1
 379 840 l 1xf0
483 840 m 1
 213 -132 l 1
 191 -132 l 1
 461 840 l 1
 483 840 l 1
498 651 m 1
 463.333333333 685.666666667 416 703 356 703 c 0
 313.333333333 703 279.333333333 692.166666667 254 670.5 c 128
 228.666666667 648.833333333 216 617.333333333 216 576 c 0
 216 546 224.5 518.333333333 241.5 493 c 0
 259.035721062 466.868337241 292.587096341 430.731244177 342.154125836 384.58872081 c 128
 391.721155331 338.446197442 425.503113385 301.083290506 443.5 272.5 c 0
 460.5 245.5 469 215.333333333 469 182 c 0
 469 131.847834944 453.657434599 91.6800670407 422.972303797 61.4966962904 c 128
 392.287172995 31.3133255401 352.796405063 9.98109344326 304.5 -2.5 c 0
 274.833333333 -10.1666666667 245.333333333 -14 216 -14 c 0
 170 -14 135 -7.16666666667 111 6.5 c 0
 92.2497714794 17.1772134631 78.8545752902 25.1034043251 70.8144114324 30.2785725859 c 128
 62.7742475746 35.4537408467 53.729092568 42.9604531326 43.6789464126 52.7987094437 c 128
 33.6288002572 62.6369657548 24.7358181196 74.2040626069 17 87.5 c 0
 6.33333333333 105.833333333 1 126.333333333 1 149 c 0
 1 169.666666667 6.5 188 17.5 204 c 128
 28.5 220 43 228 61 228 c 0
 77.6666666667 228 90.3333333333 221.833333333 99 209.5 c 128
 107.666666667 197.166666667 112 181.666666667 112 163 c 0
 112 131.666666667 99 96.3333333333 73 57 c 1
 108.333333333 23 157 6 219 6 c 0
 264.333333333 6 300.166666667 16.3333333333 326.5 37 c 128
 352.833333333 57.6666666667 366 89 366 131 c 0xf8
 366 164.333333333 358.166666667 193.666666667 342.5 219 c 0
 334.871433622 231.335554143 325.402058962 244.202051149 314.091876018 257.599491019 c 128
 302.781693074 270.996930888 293.056821101 281.78343579 284.917260099 289.959005724 c 128
 276.777699097 298.134575658 264.802335384 309.744091549 248.991168962 324.787553397 c 128
 233.180002539 339.831015245 222.349612885 350.235164113 216.5 356 c 0
 191.293803196 380.840889604 171.408920662 406.590564044 156.845352397 433.249023319 c 128
 142.281784132 459.907482595 135 491.157808155 135 527 c 0
 135 574.07690774 147.987329152 612.946774361 173.961987456 643.609599862 c 128
 199.93664576 674.272425363 233.615983275 696.235892075 275 709.5 c 0
 301 717.833333333 327.666666667 722 355 722 c 0
 401 722 436 715.166666667 460 701.5 c 128
 484 687.833333333 503.333333333 675.333333333 518 664 c 0
 531.333333333 654 543.333333333 639.166666667 554 619.5 c 128
 564.666666667 599.833333333 570 579.666666667 570 559 c 0
 570 537.666666667 564.666666667 519.166666667 554 503.5 c 128
 543.333333333 487.833333333 528.666666667 480 510 480 c 0
 493.333333333 480 480.666666667 486.166666667 472 498.5 c 128
 463.333333333 510.833333333 459 526.333333333 459 545 c 0xf4
 459 573.666666667 472 609 498 651 c 1
EndSplineSet
EndChar

StartChar: numbersign
Encoding: 3 35 16
Width: 639
Flags: HW
HStem: 247 20<46 537> 434 20<132 625>
LayerCount: 2
Fore
SplineSet
633 454 m 1
 625 434 l 1
 124 434 l 1
 132 454 l 1
 633 454 l 1
547 267 m 1
 537 247 l 1
 37 247 l 1
 46 267 l 1
 547 267 l 1
327 101 m 1
 303 101 l 1
 535 602 l 1
 559 602 l 1
 327 101 l 1
140 101 m 1
 116 101 l 1
 348 602 l 1
 372 602 l 1
 140 101 l 1
EndSplineSet
EndChar

StartChar: less
Encoding: 11 60 17
Width: 602
Flags: HW
LayerCount: 2
Fore
SplineSet
603 582 m 1
 613 553 l 1
 126 351 l 1
 457 177 l 1
 441 145 l 1
 51 355 l 1
 603 582 l 1
EndSplineSet
EndChar

StartChar: greater
Encoding: 12 62 18
Width: 602
Flags: HW
LayerCount: 2
Fore
SplineSet
62 155 m 1
 52 184 l 1
 512 376 l 1
 142 574 l 1
 158 603 l 1
 587 372 l 1
 62 155 l 1
EndSplineSet
EndChar

StartChar: percent
Encoding: 5 37 19
Width: 766
Flags: HW
HStem: -14 18<464.587 530.751> 299 18<539.168 605.899> 430 18<200.587 266.751> 743 18<275.168 341.899>
VStem: 112 67<465.906 625.472> 363 67<565.002 725.702> 376 67<21.9061 181.472> 627 67<121.002 281.702>
LayerCount: 2
Fore
SplineSet
311 743 m 0xfd
 271 743 238.166666667 713.833333333 212.5 655.5 c 0
 190.166666667 604.742424242 179 557.909090909 179 515 c 0
 179 470.333333333 196.333333333 448 231 448 c 0
 271 448 303.833333333 477.166666667 329.5 535.5 c 0
 351.833333333 586.257575758 363 633.424242424 363 677 c 0
 363 721 345.666666667 743 311 743 c 0xfd
224 430 m 0
 189.333333333 430 162 439 142 457 c 128
 122 475 112 500.666666667 112 534 c 0
 112 573.333333333 121.666666667 609.833333333 141 643.5 c 128
 160.333333333 677.166666667 184.333333333 704.666666667 213 726 c 0
 244.333333333 749.333333333 279.666666667 761 319 761 c 0
 353.666666667 761 380.833333333 752 400.5 734 c 128
 420.166666667 716 430 690.333333333 430 657 c 0
 430 618.379426741 420.419243289 581.995040024 401.257729867 547.846839849 c 128
 382.096216445 513.698639673 358.51030649 486.08302639 330.5 465 c 0
 299.5 441.666666667 264 430 224 430 c 0
575 299 m 0
 535 299 502.166666667 269.833333333 476.5 211.5 c 0
 454.166666667 160.742424242 443 113.909090909 443 71 c 0xfb
 443 26.3333333333 460.333333333 4 495 4 c 0
 535 4 567.833333333 33.1666666667 593.5 91.5 c 0
 615.833333333 142.257575758 627 189.424242424 627 233 c 0
 627 277 609.666666667 299 575 299 c 0
488 -14 m 0
 453.333333333 -14 426 -5 406 13 c 128
 386 31 376 56.6666666667 376 90 c 0
 376 129.333333333 385.666666667 165.833333333 405 199.5 c 128
 424.333333333 233.166666667 448.333333333 260.666666667 477 282 c 0
 508.333333333 305.333333333 543.666666667 317 583 317 c 0
 617.666666667 317 644.833333333 308 664.5 290 c 128
 684.166666667 272 694 246.333333333 694 213 c 0
 694 174.379426741 684.419243289 137.995040024 665.257729867 103.846839849 c 128
 646.096216445 69.6986396729 622.51030649 42.08302639 594.5 21 c 0
 563.5 -2.33333333333 528 -14 488 -14 c 0
824 824 m 1
 839 811 l 1
 6 -55 l 1
 -9 -42 l 1
 824 824 l 1
EndSplineSet
EndChar

StartChar: NameMe.66773
Encoding: 256 -1 20
Width: 551
VWidth: 988
Flags: HW
HStem: 0 21G<70 126.5 398 487> 480 20G<422 487>
VStem: 70 88<144.421 728> 398 89<0 357.625>
LayerCount: 2
Fore
SplineSet
70 728 m 1
 158 728 l 1
 158 192 l 1
 157 169 l 2
 157 158.333333333 156.666666667 150 156 144 c 1
 400 484 l 2
 400.666666667 484.666666667 401.666666667 485.833333333 403 487.5 c 128
 404.333333333 489.166666667 405.666666667 490.666666667 407 492 c 0
 409 494 411.333333333 495.666666667 414 497 c 0
 418 499 421.333333333 500 424 500 c 2
 437 500 l 1
 487 500 l 1
 487 0 l 1
 398 0 l 1
 398 312 l 1
 399 334 l 2
 399 344.666666667 399.333333333 352.666666667 400 358 c 2
 156 17 l 2
 154.666666667 15 149.666666667 10.6666666667 141 4 c 0
 137.666666667 1.33333333333 131.333333333 0 122 0 c 2
 70 0 l 1
 70 728 l 1
EndSplineSet
EndChar

StartChar: NameMe.66774
Encoding: 257 -1 21
Width: 551
VWidth: 988
Flags: HW
HStem: 0 21G<70 126.5> 480 20G<70 158 422 487>
VStem: 70 88<144.421 500> 398 89<-169 357.625>
LayerCount: 2
Fore
SplineSet
70 500 m 1
 158 500 l 1
 158 192 l 2
 158 190 157.833333333 186.333333333 157.5 181 c 128
 157.166666667 175.666666667 157 171.666666667 157 169 c 0
 157 158.333333333 156.666666667 150 156 144 c 1
 400 484 l 2
 400.666666667 484.666666667 401.666666667 485.833333333 403 487.5 c 128
 404.333333333 489.166666667 405.666666667 490.666666667 407 492 c 0
 409 494 411.333333333 495.666666667 414 497 c 0
 418 499 421.333333333 500 424 500 c 2
 437 500 l 1
 487 500 l 1
 487 -169 l 1
 398 -169 l 1
 398 312 l 2
 398 314 398.166666667 317.5 398.5 322.5 c 128
 398.833333333 327.5 399 331.333333333 399 334 c 0
 399 344.666666667 399.333333333 352.666666667 400 358 c 2
 156 17 l 2
 154.666666667 15 149.666666667 10.6666666667 141 4 c 0
 137.666666667 1.33333333333 131.333333333 0 122 0 c 2
 70 0 l 1
 70 500 l 1
EndSplineSet
EndChar

StartChar: NameMe.66777
Encoding: 258 -1 22
Width: 415
VWidth: 988
Flags: HW
HStem: 0 21G<101 125.5 298.5 357> 480 20G<269 357>
VStem: 70 88<64 728> 269 88<109.359 500> 281 76<0.0703125 72>
LayerCount: 2
Fore
SplineSet
158 64 m 1xe8
 175.333333333 67.3333333333 191.666666667 73 207 81 c 0
 229 92.3333333333 249.666666667 109.333333333 269 132 c 1
 269 500 l 1
 357 500 l 1xf0
 357 0 l 1
 305 0 l 2
 292 0 284 6 281 18 c 2
 274 72 l 1
 251.333333333 47.3333333333 227 28.6666666667 201 16 c 128
 175 3.33333333333 144 -3 108 -3 c 0
 94.6666666667 -3 82 -2 70 0 c 1
 70 728 l 1
 158 728 l 1
 158 64 l 1xe8
EndSplineSet
EndChar

StartChar: NameMe.66775
Encoding: 259 -1 23
Width: 415
VWidth: 988
Flags: HW
HStem: 0 21G<70 150.5> 480 20G<272 357>
VStem: 70 88<76 728> 272 85<126.563 500>
LayerCount: 2
Fore
SplineSet
158 76 m 17
 234 89.3333333333 272 132 272 204 c 2
 272 500 l 1
 357 500 l 1
 357 202 l 2
 357 140.666666667 335.333333333 92 292 56 c 0
 247.333333333 18.6666666667 187.666666667 0 113 0 c 2
 70 0 l 1
 70 728 l 1
 158 728 l 1
 158 76 l 17
EndSplineSet
EndChar

StartChar: NameMe.66778
Encoding: 260 -1 24
Width: 415
VWidth: 988
Flags: HW
HStem: 0 21G<70 158> 480 20G<70 128.5 301.5 326>
VStem: 70 88<0 391.641> 70 76<428 499.93> 269 88<-169 436>
LayerCount: 2
Fore
SplineSet
269 436 m 1xd8
 250.333333333 432.666666667 234 427.333333333 220 420 c 0
 198 408.666666667 177.333333333 391.666666667 158 369 c 1
 158 0 l 1
 70 0 l 1xe8
 70 500 l 1
 122 500 l 2
 135 500 143 494 146 482 c 2
 153 428 l 1
 175.666666667 452.666666667 200 471.333333333 226 484 c 0
 254 497.333333333 285 504 319 504 c 0
 332.333333333 504 345 503 357 501 c 1
 357 -169 l 1
 269 -169 l 1
 269 436 l 1xd8
EndSplineSet
EndChar

StartChar: NameMe.66776
Encoding: 261 -1 25
Width: 415
VWidth: 988
Flags: HW
HStem: 0 21G<70 155> 480 20G<276.5 357>
VStem: 70 85<0 372.088> 269 88<-169 424>
LayerCount: 2
Fore
SplineSet
269 424 m 17
 193 410.666666667 155 368 155 296 c 2
 155 0 l 1
 70 0 l 1
 70 299 l 2
 70 360.333333333 91.6666666667 409 135 445 c 0
 178.333333333 481.666666667 238 500 314 500 c 2
 357 500 l 1
 357 -169 l 1
 269 -169 l 1
 269 424 l 17
EndSplineSet
EndChar

StartChar: NameMe.66779
Encoding: 262 -1 26
Width: 550
VWidth: 988
Flags: HW
HStem: 0 78<158 275.633> 480 20G<70 158 398 487>
VStem: 70 88<78 500> 398 89<178.004 500> 409 78<0.287109 140>
LayerCount: 2
Fore
SplineSet
403 140 m 1xe8
 355.666666667 46.6666666667 271.333333333 0 150 0 c 2
 70 0 l 1
 70 77 l 1
 70 466 l 1
 70 500 l 1
 158 500 l 1
 158 78 l 1
 162 78 l 2
 266.666666667 78 338.333333333 111.333333333 377 178 c 0
 384.333333333 190 391.333333333 205.333333333 398 224 c 1
 398 500 l 1
 487 500 l 1xf0
 487 0 l 1
 436 0 l 2
 419 0 410 8 409 24 c 2
 403 140 l 1xe8
EndSplineSet
EndChar

StartChar: NameMe.66780
Encoding: 263 -1 27
Width: 550
VWidth: 988
Flags: HW
HStem: 0 77<158 218.839> 480 20G<70 158 403.5 487>
VStem: 70 88<77 500> 398 89<0 359>
LayerCount: 2
Fore
SplineSet
487 500 m 1
 487 0 l 1
 398 0 l 1
 398 282 l 2
 398 313.333333333 398.666666667 335 400 347 c 0
 401.333333333 352.333333333 402 356.333333333 402 359 c 1
 368.666666667 119.666666667 281 0 139 0 c 2
 70 0 l 1
 70 500 l 1
 158 500 l 1
 158 77 l 1
 258.666666667 77 334 212.333333333 384 483 c 0
 386 494.333333333 395.333333333 500 412 500 c 2
 487 500 l 1
EndSplineSet
EndChar

StartChar: NameMe.66781
Encoding: 264 -1 28
Width: 359
VWidth: 988
Flags: HW
HStem: 0 21G<70 158> 423 86<222.581 345.904>
VStem: 70 88<0 362.216 401 728>
LayerCount: 2
Fore
SplineSet
158 728 m 5
 158 460 l 1
 158 401 l 1
 172.666666667 435 191 461.333333333 213 480 c 0
 235.666666667 499.333333333 263 509 295 509 c 0
 305.666666667 509 316 508 326 506 c 128
 336 504 344.666666667 500.666666667 352 496 c 1
 346 430 l 2
 344 421.333333333 339 417 331 417 c 0
 326 417 319 418 310 420 c 0
 300.666666667 422 291 423 281 423 c 0
 263.666666667 423 249.333333333 420.666666667 238 416 c 0
 226 411 215 404 205 395 c 0
 197.666666667 388.333333333 189 377 179 361 c 0
 175 354.333333333 168 339 158 315 c 1
 158 0 l 1
 100 0 l 1
 70 0 l 1
 70 728 l 1
 158 728 l 5
EndSplineSet
EndChar

StartChar: NameMe.66782
Encoding: 265 -1 29
Width: 359
VWidth: 988
Flags: HW
HStem: -7 87<26.0967 149.419> 480 20G<214 302>
VStem: 214 88<-169 101 139.784 500>
LayerCount: 2
Fore
SplineSet
214 -169 m 1
 214 42 l 1
 214 101 l 1
 199.333333333 67 181 40.6666666667 159 22 c 0
 136.333333333 2.66666666667 109 -7 77 -7 c 0
 69.6666666667 -7 59.3333333333 -5.66666666667 46 -3 c 0
 36 -1 27.3333333333 2.33333333333 20 7 c 1
 26 73 l 2
 28 81 33.3333333333 85 42 85 c 0
 49.3333333333 85 56 84.3333333333 62 83 c 0
 71.3333333333 81 81 80 91 80 c 0
 108.333333333 80 122.666666667 82.3333333333 134 87 c 0
 147.333333333 92.3333333333 158.333333333 99 167 107 c 0
 174.333333333 113.666666667 183 125 193 141 c 0
 197 147.666666667 204 163 214 187 c 1
 214 500 l 1
 272 500 l 1
 302 500 l 1
 302 -169 l 1
 214 -169 l 1
EndSplineSet
EndChar

StartChar: NameMe.66783
Encoding: 266 -1 30
Width: 471
VWidth: 988
Flags: HW
HStem: -174 68<223.104 376.686> 440 68<226.167 378.785>
VStem: 56 90<-1.39722 336.01>
LayerCount: 2
Fore
SplineSet
432 412 m 2
 428 407.333333333 425.333333333 404.333333333 424 403 c 0
 421.333333333 401 418 400 414 400 c 0
 408.666666667 400 403 402 397 406 c 2
 376 420 l 2
 367.333333333 425.333333333 357 430 345 434 c 128
 333 438 318.666666667 440 302 440 c 0
 275.333333333 440 252.666666667 434.666666667 234 424 c 0
 214 412 197.666666667 395.666666667 185 375 c 0
 171.666666667 352.333333333 162 324 156 290 c 0
 149.333333333 252 146 211 146 167 c 0
 146 119 149.666666667 76.6666666667 157 40 c 0
 163.666666667 5.33333333333 173.666666667 -23 187 -45 c 0
 199 -65.6666666667 215.333333333 -81.3333333333 236 -92 c 0
 254 -101.333333333 276 -106 302 -106 c 0
 321.333333333 -106 337 -103.666666667 349 -99 c 0
 357.666666667 -95.6666666667 368 -90 380 -82 c 0
 381.333333333 -81.3333333333 388.666666667 -75.3333333333 402 -64 c 0
 407.333333333 -59.3333333333 413.333333333 -57 420 -57 c 0
 422.666666667 -57 426 -57.6666666667 430 -59 c 0
 432.666666667 -59.6666666667 435 -61.6666666667 437 -65 c 2
 461 -97 l 1
 449.666666667 -111 437.666666667 -122.666666667 425 -132 c 0
 411.666666667 -142 397 -150 381 -156 c 0
 365 -162.666666667 349.333333333 -167.333333333 334 -170 c 0
 320 -172.666666667 304.333333333 -174 287 -174 c 0
 252.333333333 -174 221 -168 193 -156 c 0
 165.666666667 -144 141.666666667 -124.333333333 121 -97 c 0
 99.6666666667 -68.3333333333 83.6666666667 -33.6666666667 73 7 c 0
 61.6666666667 50.3333333333 56 102 56 162 c 0
 56 275.333333333 76.3333333333 361.333333333 117 420 c 128
 157.666666667 478.666666667 216.666666667 508 294 508 c 0
 326.666666667 508 357 502.333333333 385 491 c 0
 411 480.333333333 434.666666667 464.333333333 456 443 c 1
 432 412 l 2
EndSplineSet
EndChar

StartChar: NameMe.66784
Encoding: 267 -1 31
Width: 446
VWidth: 988
Flags: HW
HStem: -179 67<166.628 313.656> 432 68<29 293>
VStem: 30 75<-50.9284 116.254>
LayerCount: 2
Fore
SplineSet
293 432 m 1
 29 432 l 1
 29 500 l 1
 406 500 l 1
 406 464 l 2
 406 460 405 455 403 449 c 0
 401 441.666666667 398 436 394 432 c 2
 166 173 l 2
 125.333333333 126.333333333 105 80.3333333333 105 35 c 0
 105 -13 118.666666667 -49.6666666667 146 -75 c 0
 173.333333333 -99.6666666667 205 -112 241 -112 c 0
 276.333333333 -112 313 -96 351 -64 c 0
 365.666666667 -52 378.666666667 -53.6666666667 390 -69 c 2
 411 -97 l 1
 362.333333333 -151.666666667 303.333333333 -179 234 -179 c 0
 178 -179 130.333333333 -161.333333333 91 -126 c 0
 50.3333333333 -89.3333333333 30 -41 30 19 c 0
 30 90.3333333333 55.6666666667 156.333333333 107 217 c 2
 293 432 l 1
EndSplineSet
EndChar

StartChar: py
Encoding: 20 60800 32
Width: 504
GlyphClass: 2
Flags: HW
HStem: -14 37<326.667 402.062> 0 21G<-9 83.8616> 496 32<324.924 407.667> 733 21<131 179.916>
AnchorPoint: "Bottom" 271 0 basechar 0
AnchorPoint: "Top" 502 701 basechar 0
LayerCount: 2
Back
SplineSet
78 0 m 5x70
 -9 0 l 5x70
 189 667 l 6
 195.666666667 689.666666667 194.833333333 706.333333333 186.5 717 c 132
 178.166666667 727.666666667 157.666666667 733 125 733 c 5
 131 754 l 5
 167.666666667 754.666666667 200.666666667 758.5 230 765.5 c 132
 259.333333333 772.5 286.333333333 782.333333333 311 795 c 5
 164.711929716 295.862592807 l 6
 169.353618027 306.325902711 173.949641455 316.371705109 178.5 326 c 4
 201.5 374.666666667 224.333333333 413.833333333 247 443.5 c 132
 269.666666667 473.166666667 293 494.666666667 317 508 c 132
 341 521.333333333 366 528 392 528 c 4
 423.333333333 528 444.833333333 520.5 456.5 505.5 c 132
 468.166666667 490.5 473.333333333 471.333333333 472 448 c 132
 470.666666667 424.666666667 466 401 458 377 c 6
 361 85 l 6
 355.666666667 67.6666666667 353.333333333 53 354 41 c 132
 354.666666667 29 362.333333333 23 377 23 c 4
 389.666666667 23 402.166666667 30 414.5 44 c 132
 426.833333333 58 440 85 454 125 c 6
 467 162 l 5
 486 162 l 5
 461 89 l 6
 446.333333333 47 427.666666667 19.3333333333 405 6 c 132
 382.333333333 -7.33333333333 360.666666667 -14 340 -14 c 4xb0
 313.333333333 -14 294.666666667 -8 284 4 c 132
 273.333333333 16 268.833333333 32.6666666667 270.5 54 c 132
 272.166666667 75.3333333333 277.333333333 99.3333333333 286 126 c 6
 381 412 l 6
 384.333333333 422 387.333333333 433.666666667 390 447 c 132
 392.666666667 460.333333333 392.166666667 471.833333333 388.5 481.5 c 132
 384.833333333 491.166666667 375 496 359 496 c 4
 337.666666667 496 315 484.333333333 291 461 c 132
 267 437.666666667 242.666666667 404.833333333 218 362.5 c 132
 193.333333333 320.166666667 169.5 270 146.5 212 c 4
 134.811072957 182.523575284 123.595662351 151.497460412 112.853768182 118.921655385 c 6
 78 0 l 5x70
EndSplineSet
Fore
SplineSet
85 50 m 5xb0
 86.3333333333 48.6666666667 89.6666666667 44.3333333333 95 37 c 128
 100.333333333 29.6666666667 104.333333333 24.5 107 21.5 c 128
 109.666666667 18.5 114.166666667 14.1666666667 120.5 8.5 c 128
 126.833333333 2.83333333333 132.666666667 -1.16666666667 138 -3.5 c 128
 143.333333333 -5.83333333333 150.166666667 -8.16666666667 158.5 -10.5 c 128
 166.833333333 -12.8333333333 176 -14 186 -14 c 0
 224.666666667 -14 257.166666667 -7.83333333333 283.5 4.5 c 128
 309.833333333 16.8333333333 338 39 368 71 c 0
 392.666666667 97.6666666667 413.833333333 128 431.5 162 c 128
 449.166666667 196 463.666666667 232.333333333 475 271 c 128
 486.333333333 309.666666667 494.333333333 348.666666667 499 388 c 0
 503.666666667 429.333333333 501.666666667 463.166666667 493 489.5 c 128
 484.333333333 515.833333333 468.333333333 529 445 529 c 0
 436.333333333 529 427.166666667 525.833333333 417.5 519.5 c 128
 407.833333333 513.166666667 402.333333333 502.333333333 401 487 c 0
 399 460.333333333 406 438 422 420 c 128
 438 402 455.333333333 388.333333333 474 379 c 1
 472.666666667 354.333333333 467.833333333 326.333333333 459.5 295 c 128
 451.166666667 263.666666667 439.5 231.833333333 424.5 199.5 c 128
 409.5 167.166666667 391.5 137.333333333 370.5 110 c 128
 349.5 82.6666666667 325.666666667 60.6666666667 299 44 c 0
 265 22.6666666667 233 12 203 12 c 0
 175.666666667 12 154.5 16.1666666667 139.5 24.5 c 128
 124.5 32.8333333333 111.333333333 45.3333333333 100 62 c 1
 301 795 l 1
 276.333333333 782.333333333 250 772.5 222 765.5 c 128
 194 758.5 161.666666667 754.666666667 125 754 c 1
 120 733 l 1
 152.666666667 733 172.666666667 727.666666667 180 717 c 128
 187.333333333 706.333333333 188.333333333 689.666666667 183 667 c 2
 8 49 l 2
 6 39 3.5 29.1666666667 0.5 19.5 c 128
 -2.5 9.83333333333 -6.33333333333 0.333333333333 -11 -9 c 1
 4 -16 l 1
 85 50 l 5xb0
EndSplineSet
EndChar

StartChar: ty
Encoding: 21 60801 33
Width: 536
GlyphClass: 2
Flags: HW
HStem: -14 37<326.667 402.062> 0 21G<-9 83.8616> 496 32<324.924 407.667> 733 21<131 179.916>
AnchorPoint: "Bottom" 152 1 basechar 0
AnchorPoint: "Top" 485.66 701 basechar 0
LayerCount: 2
Fore
SplineSet
78 0 m 1x70
 -9 0 l 1x70
 189 667 l 2
 195.666666667 689.666666667 194.833333333 706.333333333 186.5 717 c 128
 178.166666667 727.666666667 157.666666667 733 125 733 c 1
 131 754 l 1
 167.666666667 754.666666667 200.666666667 758.5 230 765.5 c 128
 259.333333333 772.5 286.333333333 782.333333333 311 795 c 1
 164.711929716 295.862592807 l 2
 169.353618027 306.325902711 173.949641455 316.371705109 178.5 326 c 0
 201.5 374.666666667 224.333333333 413.833333333 247 443.5 c 128
 269.666666667 473.166666667 293 494.666666667 317 508 c 128
 341 521.333333333 366 528 392 528 c 0
 423.333333333 528 444.833333333 520.5 456.5 505.5 c 128
 468.166666667 490.5 473.333333333 471.333333333 472 448 c 128
 470.666666667 424.666666667 466 401 458 377 c 2
 361 85 l 2
 355.666666667 67.6666666667 353.333333333 53 354 41 c 128
 354.666666667 29 362.333333333 23 377 23 c 0
 389.666666667 23 402.166666667 30 414.5 44 c 128
 426.833333333 58 440 85 454 125 c 2
 467 162 l 1
 486 162 l 1
 461 89 l 2
 446.333333333 47 427.666666667 19.3333333333 405 6 c 128
 382.333333333 -7.33333333333 360.666666667 -14 340 -14 c 0xb0
 313.333333333 -14 294.666666667 -8 284 4 c 128
 273.333333333 16 268.833333333 32.6666666667 270.5 54 c 128
 272.166666667 75.3333333333 277.333333333 99.3333333333 286 126 c 2
 381 412 l 2
 384.333333333 422 387.333333333 433.666666667 390 447 c 128
 392.666666667 460.333333333 392.166666667 471.833333333 388.5 481.5 c 128
 384.833333333 491.166666667 375 496 359 496 c 0
 337.666666667 496 315 484.333333333 291 461 c 128
 267 437.666666667 242.666666667 404.833333333 218 362.5 c 128
 193.333333333 320.166666667 169.5 270 146.5 212 c 0
 134.811072957 182.523575284 123.595662351 151.497460412 112.853768182 118.921655385 c 2
 78 0 l 1x70
EndSplineSet
EndChar

StartChar: ky
Encoding: 22 60802 34
Width: 542
GlyphClass: 2
Flags: HW
HStem: -14 37<87.6366 170.355 349.41 408.976> 508 20G<486.667 487.402> 733 21<131 179.916>
VStem: 290.5 72<23.2743 133.453>
AnchorPoint: "Top" 481 701 basechar 0
AnchorPoint: "Bottom" 246 0 basechar 0
LayerCount: 2
Back
SplineSet
78 0 m 1x70
 -9 0 l 1x70
 189 667 l 6
 195.666666667 689.666666667 194.833333333 706.333333333 186.5 717 c 132
 178.166666667 727.666666667 157.666666667 733 125 733 c 5
 131 754 l 5
 167.666666667 754.666666667 200.666666667 758.5 230 765.5 c 132
 259.333333333 772.5 286.333333333 782.333333333 311 795 c 5
 164.711929716 295.862592807 l 2
 169.353618027 306.325902711 173.949641455 316.371705109 178.5 326 c 0
 201.5 374.666666667 224.333333333 413.833333333 247 443.5 c 128
 269.666666667 473.166666667 293 494.666666667 317 508 c 128
 341 521.333333333 366 528 392 528 c 0
 423.333333333 528 444.833333333 520.5 456.5 505.5 c 128
 468.166666667 490.5 473.333333333 471.333333333 472 448 c 128
 470.666666667 424.666666667 466 401 458 377 c 2
 361 85 l 2
 355.666666667 67.6666666667 353.333333333 53 354 41 c 128
 354.666666667 29 362.333333333 23 377 23 c 0
 389.666666667 23 402.166666667 30 414.5 44 c 128
 426.833333333 58 440 85 454 125 c 2
 467 162 l 1
 486 162 l 1
 461 89 l 2
 446.333333333 47 427.666666667 19.3333333333 405 6 c 128
 382.333333333 -7.33333333333 360.666666667 -14 340 -14 c 0xb0
 313.333333333 -14 294.666666667 -8 284 4 c 128
 273.333333333 16 268.833333333 32.6666666667 270.5 54 c 128
 272.166666667 75.3333333333 277.333333333 99.3333333333 286 126 c 2
 381 412 l 2
 384.333333333 422 387.333333333 433.666666667 390 447 c 128
 392.666666667 460.333333333 392.166666667 471.833333333 388.5 481.5 c 128
 384.833333333 491.166666667 375 496 359 496 c 0
 337.666666667 496 315 484.333333333 291 461 c 128
 267 437.666666667 242.666666667 404.833333333 218 362.5 c 128
 193.333333333 320.166666667 169.5 270 146.5 212 c 0
 134.811072957 182.523575284 123.595662351 151.497460412 112.853768182 118.921655385 c 2
 78 0 l 1x70
EndSplineSet
Fore
SplineSet
369 85 m 2
 364.333007812 67 362.166341146 52.1666666667 362.5 40.5 c 128
 362.833007812 28.8330078125 369.666341146 22.9996744792 383 23 c 0
 397.666992188 23 411.166992188 30.8333333333 423.5 46.5 c 128
 435.833007812 62.1669921875 448.333007812 88.3336588542 461 125 c 2
 474 162 l 1
 493 162 l 1
 468 89 l 2
 453.333007812 47 434.666341146 19.3333333333 412 6 c 128
 389.333007812 -7.3330078125 367.666341146 -13.9996744792 347 -14 c 0
 336.333007812 -14 326.333007812 -11.6666666667 317 -7 c 128
 307.666992188 -2.3330078125 300.666992188 4.33365885417 296 13 c 0
 290.666992188 24.3330078125 288.833658854 38.6663411458 290.5 56 c 128
 292.166992188 73.3330078125 296.666992188 96.6663411458 304 126 c 2
 335.488030374 250.666895767 l 1
 324.426655862 223.713612384 313.597312404 199.157980462 303 177 c 0
 281 131 259.166666667 94 237.5 66 c 128
 215.833007812 38 193.833007812 17.6666666667 171.5 5 c 128
 149.166992188 -7.6669921875 126.000325521 -14.0003255208 102 -14 c 0
 66 -14 29 -9.33333333333 -9 0 c 1
 189 667 l 2
 195.701324286 689.622304914 194.867990953 706.288971581 186.5 717 c 128
 178.166666667 727.666666667 157.666666667 733 125 733 c 1
 131 754 l 1
 167.666666667 754.666666667 200.666666667 758.5 230 765.5 c 128
 259.333333333 772.5 286.333333333 782.333333333 311 795 c 1
 87 31 l 1
 95 22.3333333333 109.666666667 18 131 18 c 0
 151 18 172.5 29.1666666667 195.5 51.5 c 128
 218.5 73.8330078125 241.666666667 105.333007812 265 146 c 128
 288.333007812 186.666992188 310.999674479 234.833658854 333 290.5 c 0
 353.891538461 343.362232195 372.678963162 401.183872848 389.362274103 463.964921958 c 2
 402 514 l 1
 418.669758229 514.667102881 434.836424896 516.000436214 450.5 518 c 128
 466.166992188 520 480.333658854 523.333333333 493 528 c 1
 369 85 l 2
EndSplineSet
EndChar

StartChar: fy
Encoding: 23 60803 35
Width: 445
GlyphClass: 2
Flags: HW
HStem: -6 65<202.47 327.979> 37 54<51.9922 167.495> 181 15<266.2 288.144> 491 37<219.175 296.333> 632 128<312.877 388.123>
VStem: 289 123<655.24 736.76> 342 24<74.343 144.155>
AnchorPoint: "Top" 352 701 basechar 0
AnchorPoint: "Bottom" 228 0 basechar 0
LayerCount: 2
Back
SplineSet
289 696 m 260
 292.333333333 713.333333333 301.166666667 728.333333333 315.5 741 c 132
 329.833333333 753.666666667 345.333333333 760 362 760 c 4
 379.333333333 760 392.833333333 753.666666667 402.5 741 c 132
 412.166666667 728.333333333 415.333333333 713.333333333 412 696 c 260
 408.666666667 678.666666667 399.833333333 663.666666667 385.5 651 c 132
 371.166666667 638.333333333 355.333333333 632 338 632 c 4
 321.333333333 632 308.166666667 638.333333333 298.5 651 c 132
 288.833333333 663.666666667 285.666666667 678.666666667 289 696 c 260
258 429 m 6
 272 470.333333333 267.333333333 491 244 491 c 4
 228.666666667 491 215 482.666666667 203 466 c 132
 191 449.333333333 178.333333333 423.666666667 165 389 c 6
 151 352 l 5
 132 352 l 5
 158 425 l 6
 173.333333333 467 192.666666667 494.666666667 216 508 c 132
 239.333333333 521.333333333 261.333333333 528 282 528 c 4
 310.666666667 528 329.5 520.666666667 338.5 506 c 132
 347.5 491.333333333 350.5 473.166666667 347.5 451.5 c 132
 344.5 429.833333333 339.333333333 408.666666667 332 388 c 6
 225 85 l 6
 218.333333333 65.6666666667 216.166666667 50.5 218.5 39.5 c 132
 220.833333333 28.5 228.333333333 23 241 23 c 4
 254.333333333 23 267 30.3333333333 279 45 c 132
 291 59.6666666667 304.333333333 86.3333333333 319 125 c 6
 333 162 l 5
 352 162 l 5
 326 89 l 6
 312 50.3333333333 293.833333333 23.5 271.5 8.5 c 132
 249.166666667 -6.5 226.333333333 -14 203 -14 c 4
 174.333333333 -14 155 -7.33333333333 145 6 c 132
 135 19.3333333333 131.333333333 36.6666666667 134 58 c 132
 136.666666667 79.3333333333 142.333333333 102 151 126 c 6
 258 429 l 6
25 39 m 5
 44.3333333333 51 61.1666666667 60.8333333333 75.5 68.5 c 132
 89.8333333333 76.1666666667 103.166666667 81.8333333333 115.5 85.5 c 132
 127.833333333 89.1666666667 140 91 152 91 c 4
 168 91 183 88.3333333333 197 83 c 132
 211 77.6666666667 225.333333333 72.3333333333 240 67 c 132
 254.666666667 61.6666666667 270.333333333 59 287 59 c 4
 304.333333333 59 317.833333333 63.1666666667 327.5 71.5 c 132
 337.166666667 79.8333333333 342 92.3333333333 342 109 c 4
 342 127 334.666666667 142.333333333 320 155 c 132
 305.333333333 167.666666667 286.333333333 176.333333333 263 181 c 5
 269 196 l 5
 299.666666667 189.333333333 323.5 177.833333333 340.5 161.5 c 132
 357.5 145.166666667 366 124.333333333 366 99 c 4
 366 72.3333333333 357.333333333 48.1666666667 340 26.5 c 132
 322.666666667 4.83333333333 292.666666667 -6 250 -6 c 4
 232.666666667 -6 217.5 -3.83333333333 204.5 0.5 c 132
 191.5 4.83333333333 179 9.83333333333 167 15.5 c 132
 155 21.1666666667 142 26.1666666667 128 30.5 c 132
 114 34.8333333333 97.3333333333 37 78 37 c 4
 60.6666666667 37 44.8333333333 34.5 30.5 29.5 c 132
 16.1666666667 24.5 2 14.6666666667 -12 0 c 5
 -39 0 l 5
 412 475 l 5
 398 466.333333333 385.166666667 458.666666667 373.5 452 c 132
 361.833333333 445.333333333 351 439.833333333 341 435.5 c 132
 331 431.166666667 321.5 428 312.5 426 c 132
 303.5 424 294.333333333 423 285 423 c 4
 269 423 254 425.666666667 240 431 c 132
 226 436.333333333 211.833333333 441.666666667 197.5 447 c 132
 183.166666667 452.333333333 167.333333333 455 150 455 c 4
 133.333333333 455 120 451 110 443 c 132
 100 435 95 422.333333333 95 405 c 4
 95 387 102.5 371.666666667 117.5 359 c 132
 132.5 346.333333333 151.333333333 337.666666667 174 333 c 5
 168 318 l 5
 137.333333333 325.333333333 113.5 337 96.5 353 c 132
 79.5 369 71 389.666666667 71 415 c 4
 71 433 74.8333333333 450 82.5 466 c 132
 90.1666666667 482 102.5 495 119.5 505 c 132
 136.5 515 159 520 187 520 c 4
 204.333333333 520 219.5 517.833333333 232.5 513.5 c 132
 245.5 509.166666667 258 504.166666667 270 498.5 c 132
 282 492.833333333 295 487.833333333 309 483.5 c 132
 323 479.166666667 339.666666667 477 359 477 c 4
 376.333333333 477 392.166666667 479.5 406.5 484.5 c 132
 420.833333333 489.5 435 499.333333333 449 514 c 5
 476 514 l 5
 25 39 l 5
EndSplineSet
Fore
SplineSet
332 388 m 0x7a
 339.333333333 408.666666667 344.5 429.833333333 347.5 451.5 c 128
 350.5 473.166666667 347.5 491.333333333 338.5 506 c 128
 329.5 520.666666667 310.666666667 528 282 528 c 0
 261.333333333 528 239.333333333 521.333333333 216 508 c 128
 192.666666667 494.666666667 173.333333333 467 158 425 c 2
 132 352 l 1
 151 352 l 1
 165 389 l 2
 178.333333333 423.666666667 191 449.333333333 203 466 c 128
 215 482.666666667 228.666666667 491 244 491 c 0
 267.333333333 491 272 470.333333333 258 429 c 0
 242 383.666666667 225.166666667 343.333333333 207.5 308 c 128
 189.833333333 272.666666667 167.333333333 237.333333333 140 202 c 128
 112.666666667 166.666666667 89.8333333333 138.5 71.5 117.5 c 128
 53.1666666667 96.5 23.0842906796 64.3844191266 -18.7471279612 21.1532573799 c 0
 -27.5823759871 11.71775246 -34.3333333333 4.66666666667 -39 0 c 1
 -12 0 l 1
 2 14.6666666667 16.1666666667 24.5 30.5 29.5 c 128
 44.8333333333 34.5 60.6666666667 37 78 37 c 0x7a
 97.3333333333 37 114 34.8333333333 128 30.5 c 128
 142 26.1666666667 155 21.1666666667 167 15.5 c 128
 179 9.83333333333 191.5 4.83333333333 204.5 0.5 c 128
 217.5 -3.83333333333 232.666666667 -6 250 -6 c 0
 292.666666667 -6 322.666666667 4.83333333333 340 26.5 c 128
 357.333333333 48.1666666667 366 72.3333333333 366 99 c 0
 366 124.333333333 357.5 145.166666667 340.5 161.5 c 128
 323.5 177.833333333 299.666666667 189.333333333 269 196 c 1
 263 181 l 1
 286.333333333 176.333333333 305.333333333 167.666666667 320 155 c 128
 334.666666667 142.333333333 342 127 342 109 c 0
 342 92.3333333333 337.166666667 79.8333333333 327.5 71.5 c 128
 317.833333333 63.1666666667 304.333333333 59 287 59 c 0xba
 270.333333333 59 254.666666667 61.6666666667 240 67 c 128
 225.333333333 72.3333333333 211 77.6666666667 197 83 c 128
 183 88.3333333333 168 91 152 91 c 0
 140 91 127.833333333 89.1666666667 115.5 85.5 c 128
 103.166666667 81.8333333333 89.8333333333 76.1666666667 75.5 68.5 c 128
 61.1666666667 60.8333333333 44.3333333333 51 25 39 c 1
 44.3333333333 59.6666666667 66.3333333333 78.5 91 95.5 c 128
 115.666666667 112.5 137.5 126.833333333 156.5 138.5 c 128
 175.5 150.166666667 195.166666667 165.333333333 215.5 184 c 128
 235.833333333 202.666666667 255.833333333 228.833333333 275.5 262.5 c 128
 295.166666667 296.166666667 314 338 332 388 c 0x7a
EndSplineSet
EndChar

StartChar: ly
Encoding: 24 60804 36
Width: 432
GlyphClass: 2
Flags: HW
HStem: -14 42<132.095 233.841> 363 114<343.365 390.906> 508 20<281.07 367.164>
VStem: 18 93<49.6758 260.736> 316 112<385.367 450.21>
AnchorPoint: "Top" 367 701 basechar 0
AnchorPoint: "Bottom" 155 0 basechar 0
LayerCount: 2
Fore
SplineSet
323 508 m 0
 297.666666667 508 272.5 497.666666667 247.5 477 c 128
 222.5 456.333333333 199.666666667 428 179 392 c 128
 158.333333333 356 141.833333333 315 129.5 269 c 128
 117.166666667 223 111 174.666666667 111 124 c 0
 111 90 117.5 65.5 130.5 50.5 c 128
 143.5 35.5 160.333333333 28 181 28 c 0
 205 28 229.666666667 35.3333333333 255 50 c 128
 280.333333333 64.6666666667 305.666666667 90.6666666667 331 128 c 1
 351 120 l 1
 338.333333333 98 321.666666667 76.6666666667 301 56 c 128
 280.333333333 35.3333333333 257.166666667 18.5 231.5 5.5 c 128
 205.833333333 -7.5 178.666666667 -14 150 -14 c 0
 110 -14 78 -1.66666666667 54 23 c 128
 30 47.6666666667 18 84.3333333333 18 133 c 0
 18 171.666666667 25 213.666666667 39 259 c 128
 53 304.333333333 73 347.5 99 388.5 c 128
 125 429.5 156.666666667 463 194 489 c 128
 231.333333333 515 273.333333333 528 320 528 c 0
 349.333333333 528 374.666666667 520.5 396 505.5 c 128
 417.333333333 490.5 428 469.666666667 428 443 c 0
 428 430.333333333 425.166666667 417.833333333 419.5 405.5 c 128
 413.833333333 393.166666667 405.666666667 383 395 375 c 128
 384.333333333 367 371.666666667 363 357 363 c 0
 343 363 332.666666667 366.833333333 326 374.5 c 128
 319.333333333 382.166666667 316 391.333333333 316 402 c 0
 316 421.333333333 323.666666667 437.833333333 339 451.5 c 128
 354.333333333 465.166666667 371.666666667 473.666666667 391 477 c 1
 384.333333333 486.333333333 375.666666667 493.833333333 365 499.5 c 128
 354.333333333 505.166666667 340.333333333 508 323 508 c 0
EndSplineSet
EndChar

StartChar: sy
Encoding: 25 60805 37
Width: 542
GlyphClass: 2
Flags: HW
HStem: -14 32<99.989 178.66 338.766 406.487> 505 23<286.47 367.292> 733 21<388 436.598>
VStem: 12 89<33.6707 242.429> 289 74.5<23.6289 109.665>
AnchorPoint: "Top" 254 701 basechar 0
AnchorPoint: "Bottom" 276 0 basechar 0
LayerCount: 2
Fore
SplineSet
145 18 m 0
 161.666666667 18 180.5 27.8333333333 201.5 47.5 c 128
 222.5 67.1666666667 243.833333333 93.8333333333 265.5 127.5 c 128
 287.166666667 161.166666667 307.166666667 199.5 325.5 242.5 c 0
 335.543384514 266.056301859 344.436355721 290.062765447 352.178913623 314.519390764 c 2
 389.36270326 454.216822664 l 1
 385.874037739 469.90517309 380.086469986 481.666232201 372 489.5 c 0
 361.333333333 499.833333333 349.333333333 505 336 505 c 0
 304 505 273.833333333 492 245.5 466 c 128
 217.166666667 440 192.166666667 406.333333333 170.5 365 c 128
 148.833333333 323.666666667 131.833333333 280 119.5 234 c 128
 107.166666667 188 101 145 101 105 c 0
 101 75.6666666667 104.666666667 53.8333333333 112 39.5 c 128
 119.333333333 25.1666666667 130.333333333 18 145 18 c 0
369 85 m 2
 364.333333333 69.6666666667 362.5 55.5 363.5 42.5 c 128
 364.5 29.5 372.333333333 23 387 23 c 0
 400.333333333 23 412.666666667 30.5 424 45.5 c 128
 435.333333333 60.5 447.333333333 87 460 125 c 2
 472 162 l 1
 491 162 l 1
 468 89 l 2
 455.333333333 48.3333333333 437.833333333 21 415.5 7 c 128
 393.166666667 -7 372 -14 352 -14 c 0
 312 -14 291 5 289 43 c 0
 288.333333333 53.6666666667 289.166666667 66 291.5 80 c 128
 293.833333333 94 297.333333333 109.333333333 302 126 c 2
 315.08821249 175.171687204 l 1
 302.183887403 147.704275669 289.321149906 123.647046602 276.5 103 c 0
 250.833333333 61.6666666667 224.833333333 31.8333333333 198.5 13.5 c 128
 172.166666667 -4.83333333333 144.666666667 -14 116 -14 c 0
 84.6666666667 -14 59.5 -3.16666666667 40.5 18.5 c 128
 21.5 40.1666666667 12 73.3333333333 12 118 c 0
 12 150 17.1666666667 184.5 27.5 221.5 c 128
 37.8333333333 258.5 52.6666666667 295 72 331 c 128
 91.3333333333 367 114.5 399.833333333 141.5 429.5 c 128
 168.5 459.166666667 198.333333333 483 231 501 c 128
 263.666666667 519 298.333333333 528 335 528 c 0
 350.333333333 528 364.666666667 522.166666667 378 510.5 c 0
 386.635557888 502.943886848 392.754281749 492.940851727 396.356171585 480.490894635 c 1
 446 667 l 2
 452 689.666666667 451 706.333333333 443 717 c 128
 435 727.666666667 414.666666667 733 382 733 c 1
 388 754 l 1
 424.666666667 754.666666667 457 758.5 485 765.5 c 128
 513 772.5 539.666666667 782.333333333 565 795 c 1
 369 85 l 2
EndSplineSet
EndChar

StartChar: cy
Encoding: 26 60806 38
Width: 580
GlyphClass: 2
Flags: HW
HStem: -14 37<370 449.36> 0 21G<35 127.052> 491 37<113.412 180.769 363.363 431.836> 733 21<426 474.598>
VStem: 327 74.5<23.6289 109.665>
AnchorPoint: "Top" 248.103 701 basechar 0
AnchorPoint: "Bottom" 237 0 basechar 0
LayerCount: 2
Back
SplineSet
407 85 m 6
 402.333333333 69.6666666667 400.5 55.5 401.5 42.5 c 132
 402.5 29.5 410.333333333 23 425 23 c 4
 438.333333333 23 450.666666667 30.5 462 45.5 c 132
 473.333333333 60.5 485.333333333 87 498 125 c 6
 510 162 l 5
 529 162 l 5
 506 89 l 6
 493.333333333 48.3333333333 475.833333333 21 453.5 7 c 132
 431.166666667 -7 410 -14 390 -14 c 4
 350 -14 329 5 327 43 c 4
 326.333333333 53.6666666667 327.166666667 66 329.5 80 c 132
 331.833333333 94 335.333333333 109.333333333 340 126 c 6
 484 667 l 6
 490 689.666666667 489 706.333333333 481 717 c 132
 473 727.666666667 452.666666667 733 420 733 c 5
 426 754 l 5
 462.666666667 754.666666667 495 758.5 523 765.5 c 132
 551 772.5 577.666666667 782.333333333 603 795 c 5
 407 85 l 6
183 18 m 4
 199.666666667 18 218.5 27.8333333333 239.5 47.5 c 132
 260.5 67.1666666667 281.833333333 93.8333333333 303.5 127.5 c 132
 325.166666667 161.166666667 345.166666667 199.5 363.5 242.5 c 132
 381.833333333 285.5 396.333333333 330 407 376 c 5
 392 268 l 5
 366 199.333333333 340.166666667 144.333333333 314.5 103 c 132
 288.833333333 61.6666666667 262.833333333 31.8333333333 236.5 13.5 c 132
 210.166666667 -4.83333333333 182.666666667 -14 154 -14 c 4
 122.666666667 -14 97.5 -3.16666666667 78.5 18.5 c 132
 59.5 40.1666666667 50 73.3333333333 50 118 c 4
 50 150 55.1666666667 184.5 65.5 221.5 c 132
 75.8333333333 258.5 90.6666666667 295 110 331 c 132
 129.333333333 367 152.5 399.833333333 179.5 429.5 c 132
 206.5 459.166666667 236.333333333 483 269 501 c 132
 301.666666667 519 336.333333333 528 373 528 c 4
 388.333333333 528 402.666666667 522.166666667 416 510.5 c 132
 429.333333333 498.833333333 436.666666667 481.333333333 438 458 c 5
 430 438 l 5
 427.333333333 462 420.666666667 479.166666667 410 489.5 c 132
 399.333333333 499.833333333 387.333333333 505 374 505 c 4
 342 505 311.833333333 492 283.5 466 c 132
 255.166666667 440 230.166666667 406.333333333 208.5 365 c 132
 186.833333333 323.666666667 169.833333333 280 157.5 234 c 132
 145.166666667 188 139 145 139 105 c 4
 139 75.6666666667 142.666666667 53.8333333333 150 39.5 c 132
 157.333333333 25.1666666667 168.333333333 18 183 18 c 4
122 0 m 1
 35 0 l 1
 155 429 l 2
 157.666666667 437 159.833333333 445.833333333 161.5 455.5 c 128
 163.166666667 465.166666667 162.666666667 473.5 160 480.5 c 128
 157.333333333 487.5 150.666666667 491 140 491 c 0
 125.333333333 491 112.333333333 483.833333333 101 469.5 c 128
 89.6666666667 455.166666667 77 428.333333333 63 389 c 2
 50 352 l 1
 31 352 l 1
 56 425 l 2
 70.6666666667 467 88.8333333333 494.666666667 110.5 508 c 128
 132.166666667 521.333333333 153.666666667 528 175 528 c 0
 201.666666667 528 218.833333333 520.666666667 226.5 506 c 128
 234.166666667 491.333333333 236.333333333 473.333333333 233 452 c 128
 229.666666667 430.666666667 225.333333333 409.333333333 220 388 c 2
 122 0 l 1
168 208 m 1
 191.333333333 268 214 318.333333333 236 359 c 128
 258 399.666666667 279.666666667 432.5 301 457.5 c 128
 322.333333333 482.5 344.166666667 500.5 366.5 511.5 c 128
 388.833333333 522.5 412 528 436 528 c 0
 467.333333333 528 488.833333333 520.5 500.5 505.5 c 128
 512.166666667 490.5 517.333333333 471.5 516 448.5 c 128
 514.666666667 425.5 510 401.666666667 502 377 c 2
 405 85 l 2
 399 67 396.5 52.1666666667 397.5 40.5 c 128
 398.5 28.8333333333 406.333333333 23 421 23 c 0
 433.666666667 23 446.166666667 30 458.5 44 c 128
 470.833333333 58 484 85 498 125 c 2
 511 162 l 1
 530 162 l 1
 505 89 l 2
 490.333333333 47 471.666666667 19.3333333333 449 6 c 128
 426.333333333 -7.33333333333 404.666666667 -14 384 -14 c 0
 354 -14 333 -4.33333333333 321 15 c 0
 313.666666667 27 311.333333333 42.6666666667 314 62 c 128
 316.666666667 81.3333333333 322 102.666666667 330 126 c 2
 425 412 l 2
 428.333333333 421.333333333 431.166666667 432.5 433.5 445.5 c 128
 435.833333333 458.5 435.333333333 470.166666667 432 480.5 c 128
 428.666666667 490.833333333 419 496 403 496 c 0
 383 496 361.5 485.166666667 338.5 463.5 c 128
 315.5 441.833333333 292 411.666666667 268 373 c 128
 244 334.333333333 220.833333333 289 198.5 237 c 128
 176.166666667 185 156.333333333 128.666666667 139 68 c 1
 168 208 l 1
EndSplineSet
Fore
SplineSet
433.161132812 476 m 1xb8
 432 480.5 l 2
 428.592290964 490.833333333 418.925624297 496 403 496 c 0
 383 496 361.5 485.166666667 338.5 463.5 c 128
 315.5 441.833333333 292 411.666666667 268 373 c 128
 244 334.333333333 220.833333333 289 198.5 237 c 0
 176.785053881 186.439826946 157.433579561 131.782969438 140.445577043 73.0294274755 c 2
 122 0 l 1
 35 0 l 1x78
 155 429 l 2
 157.666666667 437 159.833333333 445.833333333 161.5 455.5 c 128
 163.166666667 465.166666667 162.666666667 473.5 160 480.5 c 128
 157.333333333 487.5 150.666666667 491 140 491 c 0
 125.333333333 491 112.333333333 483.833333333 101 469.5 c 128
 89.6666666667 455.166666667 77 428.333333333 63 389 c 2
 50 352 l 1
 31 352 l 1
 56 425 l 2
 70.6666666667 467 88.8333333333 494.666666667 110.5 508 c 128
 132.166666667 521.333333333 153.666666667 528 175 528 c 0
 201.666666667 528 218.833333333 520.666666667 226.5 506 c 128
 234.166666667 491.333333333 236.333333333 473.333333333 233 452 c 128
 229.666666667 430.666666667 225.333333333 409.333333333 220 388 c 2
 185.550619695 251.608575933 l 1
 202.739538715 292.806371609 219.555998817 328.603512964 236 359 c 0
 258 399.666666667 279.666666667 432.5 301 457.5 c 128
 322.333333333 482.5 344.166666667 500.5 366.5 511.5 c 128
 388.833333333 522.5 412 528 436 528 c 2
 447.001953125 528 l 1
 484 667 l 2
 490 689.666666667 489 706.333333333 481 717 c 128
 473 727.666666667 452.666666667 733 420 733 c 1
 426 754 l 1
 462.666666667 754.666666667 495 758.5 523 765.5 c 128
 551 772.5 577.666666667 782.333333333 603 795 c 1
 407 85 l 2
 402.333333333 69.6666666667 400.5 55.5 401.5 42.5 c 128
 402.5 29.5 410.333333333 23 425 23 c 0
 438.333333333 23 450.666666667 30.5 462 45.5 c 128
 473.333333333 60.5 485.333333333 87 498 125 c 2
 510 162 l 1
 529 162 l 1
 506 89 l 2
 493.333333333 48.3333333333 475.833333333 21 453.5 7 c 128
 431.166666667 -7 410 -14 390 -14 c 0
 350 -14 329 5 327 43 c 0
 326.333333333 53.6666666667 327.166666667 66 329.5 80 c 0
 331.447397445 91.6843846679 334.947397445 107.017718001 340 126 c 2
 433.161132812 476 l 1xb8
EndSplineSet
EndChar

StartChar: my
Encoding: 27 60807 39
Width: 446
VWidth: 988
GlyphClass: 2
Flags: HW
HStem: -6 65<202.47 327.979> 37 54<51.3218 167.495> 181 15<266.2 288.144> 486 42<182.394 284.177>
VStem: 305 93<319.291 464.656> 342 24<74.343 144.155>
AnchorPoint: "Top" 327 700 basechar 0
AnchorPoint: "Bottom" 144 0 basechar 0
LayerCount: 2
Back
SplineSet
93 6 m 4
 118.333333333 6 143.5 16.3333333333 168.5 37 c 4
 193.5 57.6666666667 216.333333333 86 237 122 c 4
 257.666666667 158 274.166666667 199 286.5 245 c 4
 298.833333333 291 305 339.333333333 305 390 c 4
 305 424 298.666666667 448.5 286 463.5 c 4
 273.333333333 478.5 256.333333333 486 235 486 c 4
 211 486 186.333333333 478.666666667 161 464 c 4
 135.666666667 449.333333333 110.333333333 423.333333333 85 386 c 5
 65 394 l 5
 78.3333333333 416.666666667 95.1666666667 438.166666667 115.5 458.5 c 4
 135.833333333 478.833333333 159 495.5 185 508.5 c 4
 211 521.5 238 528 266 528 c 4
 306 528 338 515.833333333 362 491.5 c 4
 386 467.166666667 398 430.333333333 398 381 c 4
 398 342.333333333 391 300.333333333 377 255 c 4
 363 209.666666667 343 166.5 317 125.5 c 4
 291 84.5 259.333333333 51 222 25 c 4
 184.666666667 -1 142.666666667 -14 96 -14 c 4
 66.6666666667 -14 41.3333333333 -6.5 20 8.5 c 4
 -1.33333333333 23.5 -12 44.3333333333 -12 71 c 4
 -12 90.3333333333 -5.66666666667 108.5 7 125.5 c 4
 19.6666666667 142.5 37 151 59 151 c 4
 73 151 83.3333333333 147.166666667 90 139.5 c 4
 96.6666666667 131.833333333 100 122.666666667 100 112 c 4
 100 92.6666666667 92.3333333333 76.1666666667 77 62.5 c 4
 61.6666666667 48.8333333333 44.3333333333 40.3333333333 25 37 c 5
 31.6666666667 27.6666666667 40.5 20.1666666667 51.5 14.5 c 4
 62.5 8.83333333333 76.3333333333 6 93 6 c 4
25 39 m 1
 44.3333333333 51 61.1666666667 60.8333333333 75.5 68.5 c 128
 89.8333333333 76.1666666667 103.166666667 81.8333333333 115.5 85.5 c 128
 127.833333333 89.1666666667 140 91 152 91 c 0
 168 91 183 88.3333333333 197 83 c 128
 211 77.6666666667 225.333333333 72.3333333333 240 67 c 128
 254.666666667 61.6666666667 270.333333333 59 287 59 c 0
 304.333333333 59 317.833333333 63.1666666667 327.5 71.5 c 128
 337.166666667 79.8333333333 342 92.3333333333 342 109 c 0
 342 127 334.666666667 142.333333333 320 155 c 128
 305.333333333 167.666666667 286.333333333 176.333333333 263 181 c 1
 269 196 l 1
 299.666666667 189.333333333 323.5 177.833333333 340.5 161.5 c 128
 357.5 145.166666667 366 124.333333333 366 99 c 0
 366 72.3333333333 357.333333333 48.1666666667 340 26.5 c 128
 322.666666667 4.83333333333 292.666666667 -6 250 -6 c 0
 232.666666667 -6 217.5 -3.83333333333 204.5 0.5 c 128
 191.5 4.83333333333 179 9.83333333333 167 15.5 c 128
 155 21.1666666667 142 26.1666666667 128 30.5 c 128
 114 34.8333333333 97.3333333333 37 78 37 c 0
 60.6666666667 37 44.8333333333 34.5 30.5 29.5 c 128
 16.1666666667 24.5 2 14.6666666667 -12 0 c 1
 -39 0 l 1
 412 475 l 1
 398 466.333333333 385.166666667 458.666666667 373.5 452 c 128
 361.833333333 445.333333333 351 439.833333333 341 435.5 c 128
 331 431.166666667 321.5 428 312.5 426 c 128
 303.5 424 294.333333333 423 285 423 c 0
 269 423 254 425.666666667 240 431 c 128
 226 436.333333333 211.833333333 441.666666667 197.5 447 c 128
 183.166666667 452.333333333 167.333333333 455 150 455 c 0
 133.333333333 455 120 451 110 443 c 128
 100 435 95 422.333333333 95 405 c 0
 95 387 102.5 371.666666667 117.5 359 c 128
 132.5 346.333333333 151.333333333 337.666666667 174 333 c 1
 168 318 l 1
 137.333333333 325.333333333 113.5 337 96.5 353 c 128
 79.5 369 71 389.666666667 71 415 c 0
 71 433 74.8333333333 450 82.5 466 c 128
 90.1666666667 482 102.5 495 119.5 505 c 128
 136.5 515 159 520 187 520 c 0
 204.333333333 520 219.5 517.833333333 232.5 513.5 c 128
 245.5 509.166666667 258 504.166666667 270 498.5 c 128
 282 492.833333333 295 487.833333333 309 483.5 c 128
 323 479.166666667 339.666666667 477 359 477 c 0
 376.333333333 477 392.166666667 479.5 406.5 484.5 c 128
 420.833333333 489.5 435 499.333333333 449 514 c 1
 476 514 l 1
 25 39 l 1
EndSplineSet
Fore
SplineSet
25 37 m 1x74
 39 53 63.3333333333 79.3333333333 98 116 c 0
 127.333333333 147.333333333 161.833333333 175.5 201.5 200.5 c 128
 241.166666667 225.5 274.333333333 244.333333333 301 257 c 128
 327.666666667 269.666666667 350.5 286.333333333 369.5 307 c 128
 388.5 327.666666667 398 352.333333333 398 381 c 0
 398 430.333333333 386 467.166666667 362 491.5 c 128
 338 515.833333333 306 528 266 528 c 0
 238 528 211 521.5 185 508.5 c 128
 159 495.5 135.833333333 478.833333333 115.5 458.5 c 128
 95.1666666667 438.166666667 78.3333333333 416.666666667 65 394 c 1
 85 386 l 1
 110.333333333 423.333333333 135.666666667 449.333333333 161 464 c 128
 186.333333333 478.666666667 211 486 235 486 c 0
 256.333333333 486 273.333333333 478.5 286 463.5 c 128
 298.666666667 448.5 305 424 305 390 c 0
 305 358.666666667 296.5 332 279.5 310 c 128
 262.5 288 231.666666667 258.833333333 187 222.5 c 128
 142.333333333 186.166666667 106 153.333333333 78 124 c 0
 64.6666666667 110 51.5 96.1666666667 38.5 82.5 c 128
 25.5 68.8333333333 14.5 57.3333333333 5.5 48 c 128
 -3.5 38.6666666667 -11.5 30.1666666667 -18.5 22.5 c 128
 -25.5 14.8333333333 -30.6666666667 9.16666666667 -34 5.5 c 2
 -39 0 l 1
 -12 0 l 1
 2 14.6666666667 16.1666666667 24.5 30.5 29.5 c 128
 44.8333333333 34.5 60.6666666667 37 78 37 c 0x78
 97.3333333333 37 114 34.8333333333 128 30.5 c 128
 142 26.1666666667 155 21.1666666667 167 15.5 c 128
 179 9.83333333333 191.5 4.83333333333 204.5 0.5 c 128
 217.5 -3.83333333333 232.666666667 -6 250 -6 c 0
 292.666666667 -6 322.666666667 4.83333333333 340 26.5 c 128
 357.333333333 48.1666666667 366 72.3333333333 366 99 c 0
 366 124.333333333 357.5 145.166666667 340.5 161.5 c 128
 323.5 177.833333333 299.666666667 189.333333333 269 196 c 1
 263 181 l 1
 286.333333333 176.333333333 305.333333333 167.666666667 320 155 c 128
 334.666666667 142.333333333 342 127 342 109 c 0
 342 92.3333333333 337.166666667 79.8333333333 327.5 71.5 c 128
 317.833333333 63.1666666667 304.333333333 59 287 59 c 0xb4
 270.333333333 59 254.666666667 61.6666666667 240 67 c 128
 225.333333333 72.3333333333 211 77.6666666667 197 83 c 128
 183 88.3333333333 168 91 152 91 c 0
 140 91 127.833333333 89.1666666667 115.5 85.5 c 128
 103.166666667 81.8333333333 89.8333333333 76.1666666667 75.5 68.5 c 0
 71.2701532267 66.237523819 66.5108219353 63.4525636372 61.2220061256 60.1451194547 c 128
 55.933190316 56.8376752722 49.7295583387 52.8705585987 42.6111101938 48.2437694342 c 128
 35.4926620489 43.6169802697 29.6222919843 39.869057125 25 37 c 1x74
EndSplineSet
EndChar

StartChar: xy
Encoding: 28 60808 40
Width: 488
GlyphClass: 2
Flags: HW
AnchorPoint: "Top" 348 701 basechar 0
AnchorPoint: "Bottom" 162 0 basechar 0
LayerCount: 2
Fore
SplineSet
304 508 m 0
 282.666666667 508 262.166666667 499.5 242.5 482.5 c 128
 222.833333333 465.5 204.833333333 442.5 188.5 413.5 c 128
 172.166666667 384.5 157.833333333 352 145.5 316 c 128
 133.166666667 280 123.666666667 242.666666667 117 204 c 128
 110.333333333 165.333333333 107 128.333333333 107 93 c 0
 107 63 111.833333333 41 121.5 27 c 128
 131.166666667 13 145.333333333 6 164 6 c 0
 185.333333333 6 205.833333333 14.5 225.5 31.5 c 128
 245.166666667 48.5 263.333333333 71.5 280 100.5 c 128
 296.666666667 129.5 311 162 323 198 c 128
 335 234 344.333333333 271.166666667 351 309.5 c 128
 357.666666667 347.833333333 361 385 361 421 c 0
 361 451.666666667 356.333333333 473.833333333 347 487.5 c 128
 337.666666667 501.166666667 323.333333333 508 304 508 c 0
21 143 m 0
 21 179.666666667 27.3333333333 220.166666667 40 264.5 c 128
 52.6666666667 308.833333333 71.1666666667 351 95.5 391 c 128
 119.833333333 431 150 463.833333333 186 489.5 c 128
 222 515.166666667 263.333333333 528 310 528 c 0
 351.333333333 528 384.5 515.166666667 409.5 489.5 c 128
 434.5 463.833333333 447 424.333333333 447 371 c 0
 447 334.333333333 440.666666667 293.833333333 428 249.5 c 128
 415.333333333 205.166666667 396.833333333 163 372.5 123 c 128
 348.166666667 83 318 50.1666666667 282 24.5 c 128
 246 -1.16666666667 204.666666667 -14 158 -14 c 0
 116.666666667 -14 83.5 -1 58.5 25 c 128
 33.5 51 21 90.3333333333 21 143 c 0
EndSplineSet
EndChar

StartChar: denpabu
Encoding: 29 60809 41
Width: 254
GlyphClass: 2
Flags: HW
AnchorPoint: "Top" 204 701 basechar 0
AnchorPoint: "Bottom" 132 0 basechar 0
LayerCount: 2
Back
SplineSet
128 290 m 5
 204 701 l 1029
EndSplineSet
Fore
SplineSet
78 341 m 4
 78 361 85.6666666667 378.833333333 101 394.5 c 132
 116.333333333 410.166666667 133.333333333 418 152 418 c 4
 167.333333333 418 179.666666667 413 189 403 c 132
 198.333333333 393 203 380.666666667 203 366 c 4
 203 346 195.333333333 328.333333333 180 313 c 132
 164.666666667 297.666666667 147.333333333 290 128 290 c 4
 113.333333333 290 101.333333333 294.833333333 92 304.5 c 132
 82.6666666667 314.166666667 78 326.333333333 78 341 c 4
EndSplineSet
Substitution2: "Single Substitution lookup 73 subtable" denpabu.cas
EndChar

StartChar: yhy
Encoding: 30 60810 42
Width: 302
GlyphClass: 2
Flags: HW
HStem: -14 37<88.6667 165.212> 491 37<119.175 196.333>
VStem: 34 84.5<23.4561 125.993>
AnchorPoint: "Top" 253 701 basechar 0
AnchorPoint: "Bottom" 108 0 basechar 0
LayerCount: 2
Fore
SplineSet
158 429 m 2
 172 470.333333333 167.333333333 491 144 491 c 0
 128.666666667 491 115 482.666666667 103 466 c 128
 91 449.333333333 78.3333333333 423.666666667 65 389 c 2
 51 352 l 1
 32 352 l 1
 58 425 l 2
 73.3333333333 467 92.6666666667 494.666666667 116 508 c 128
 139.333333333 521.333333333 161.333333333 528 182 528 c 0
 210.666666667 528 229.5 520.666666667 238.5 506 c 128
 247.5 491.333333333 250.5 473.166666667 247.5 451.5 c 128
 244.5 429.833333333 239.333333333 408.666666667 232 388 c 2
 125 85 l 2
 118.333333333 65.6666666667 116.166666667 50.5 118.5 39.5 c 128
 120.833333333 28.5 128.333333333 23 141 23 c 0
 154.333333333 23 167 30.3333333333 179 45 c 128
 191 59.6666666667 204.333333333 86.3333333333 219 125 c 2
 233 162 l 1
 252 162 l 1
 226 89 l 2
 212 50.3333333333 193.833333333 23.5 171.5 8.5 c 128
 149.166666667 -6.5 126.333333333 -14 103 -14 c 0
 74.3333333333 -14 55 -7.33333333333 45 6 c 128
 35 19.3333333333 31.3333333333 36.6666666667 34 58 c 128
 36.6666666667 79.3333333333 42.3333333333 102 51 126 c 2
 158 429 l 2
EndSplineSet
Substitution2: "Single Substitution lookup 75 subtable" yhy.cas
Substitution2: "Single Substitution lookup 74 subtable" yhy.cas
EndChar

StartChar: cnimahobu
Encoding: 31 60811 43
Width: 218
GlyphClass: 2
Flags: WO
HStem: -14 37<398.486 444.819> 186 18<172.109 290.395> 508 20G<522.667 523.402>
VStem: 326.5 72<23.2742 133.453> 423 51<362.045 452.011>
AnchorPoint: "Top" 132 701 basechar 0
AnchorPoint: "Bottom" 132 0 basechar 0
LayerCount: 2
Back
SplineSet
132 332 m 260
 149.333333333 332 164.333333333 325.666666667 177 313 c 4
 189.666666667 300.333333333 196 285.333333333 196 268 c 260
 196 250.666666667 189.666666667 235.666666667 177 223 c 4
 164.333333333 210.333333333 149.333333333 204 132 204 c 260
 114.666666667 204 99.6666666667 210.333333333 87 223 c 4
 74.3333333333 235.666666667 68 250.666666667 68 268 c 260
 68 285.333333333 74.3333333333 300.333333333 87 313 c 4
 99.6666666667 325.666666667 114.666666667 332 132 332 c 260
EndSplineSet
Fore
Refer: 109 -1 N 1 0 0 1 278 0 2
Refer: 101 -1 N 1 0 0 1 0 0 2
EndChar

StartChar: patonga
Encoding: 32 60812 44
Width: 0
VWidth: 988
GlyphClass: 4
Flags: HW
HStem: -204 141
VStem: -359 198
AnchorPoint: "Bottom" -260 0 mark 0
LayerCount: 2
Fore
SplineSet
-161 -63 m 5
 -276 -190 l 2
 -281.333333333 -195.333333333 -286 -199 -290 -201 c 128
 -294 -203 -299.666666667 -204 -307 -204 c 2
 -359 -204 l 1
 -286 -84 l 2
 -281.333333333 -76.6666666667 -276.333333333 -71.3333333333 -271 -68 c 128
 -265.666666667 -64.6666666667 -257.666666667 -63 -247 -63 c 2
 -161 -63 l 5
EndSplineSet
EndChar

StartChar: retonga
Encoding: 33 60813 45
Width: 0
VWidth: 988
GlyphClass: 4
Flags: HW
HStem: -204 141
VStem: -348 196
AnchorPoint: "Bottom" -250 0 mark 0
LayerCount: 2
Fore
SplineSet
-265 -63 m 6
 -253.666666667 -63 -245.333333333 -64.6666666667 -240 -68 c 0
 -236 -70.6666666667 -231.333333333 -76 -226 -84 c 2
 -152 -204 l 1
 -202 -204 l 2
 -209.333333333 -204 -215 -203 -219 -201 c 0
 -221.666666667 -199.666666667 -226 -196 -232 -190 c 2
 -348 -63 l 1
 -265 -63 l 6
EndSplineSet
EndChar

StartChar: citonga
Encoding: 34 60814 46
Width: 0
VWidth: 988
GlyphClass: 4
Flags: HW
HStem: -199 130
VStem: -420 302
AnchorPoint: "Bottom" -269 0 mark 0
LayerCount: 2
Fore
SplineSet
-118 -199 m 5
 -177 -199 l 2
 -181 -199 -184.333333333 -198.333333333 -187 -197 c 0
 -192.333333333 -194.333333333 -195.333333333 -192.666666667 -196 -192 c 2
 -260 -125 l 2
 -262 -123 -263.333333333 -121.333333333 -264 -120 c 128
 -264.666666667 -118.666666667 -266 -117 -268 -115 c 1
 -270 -117 -271.333333333 -118.666666667 -272 -120 c 128
 -272.666666667 -121.333333333 -274 -123 -276 -125 c 2
 -340 -192 l 2
 -341.333333333 -193.333333333 -344 -195 -348 -197 c 0
 -350.666666667 -198.333333333 -354.333333333 -199 -359 -199 c 2
 -420 -199 l 1
 -310 -69 l 1
 -228 -69 l 1
 -118 -199 l 5
EndSplineSet
EndChar

StartChar: votonga
Encoding: 35 60815 47
Width: 0
VWidth: 988
GlyphClass: 4
Flags: HW
HStem: -194 130
VStem: -421 302
AnchorPoint: "Bottom" -270 0 mark 0
LayerCount: 2
Fore
SplineSet
-119 -64 m 1
 -229 -194 l 1
 -311 -194 l 1
 -421 -64 l 1
 -360 -64 l 2
 -355.333333333 -64 -351.666666667 -64.6666666667 -349 -66 c 0
 -345 -68 -342.333333333 -69.6666666667 -341 -71 c 2
 -277 -138 l 2
 -275 -140 -273.666666667 -141.666666667 -273 -143 c 128
 -272.333333333 -144.333333333 -271 -146 -269 -148 c 1
 -267 -146 -265.666666667 -144.333333333 -265 -143 c 128
 -264.333333333 -141.666666667 -263 -140 -261 -138 c 2
 -197 -71 l 2
 -196.333333333 -70.3333333333 -193.333333333 -68.6666666667 -188 -66 c 0
 -185.333333333 -64.6666666667 -182 -64 -178 -64 c 2
 -119 -64 l 1
EndSplineSet
EndChar

StartChar: by
Encoding: 36 60816 48
Width: 507
GlyphClass: 2
Flags: HW
HStem: -181 21<142 203.516 341.652 381> -4 21G<69.3335 85.3335> 506 33<255.473 364.527> 510 20G<472.935 496>
VStem: 33 92<5.80016 68.289>
AnchorPoint: "Top" 359 701 basechar 0
AnchorPoint: "Bottom" 70 0 basechar 0
LayerCount: 2
Back
SplineSet
326 -88 m 6
 318.666666667 -115.333333333 321.333333333 -134.166666667 334 -144.5 c 132
 346.666666667 -154.833333333 364.333333333 -160 387 -160 c 5
 381 -181 l 5
 367.666666667 -180.333333333 348.833333333 -179.5 324.5 -178.5 c 132
 300.166666667 -177.5 274.333333333 -177 247 -177 c 4
 226.333333333 -177 205.333333333 -177.5 184 -178.5 c 132
 162.666666667 -179.5 146.666666667 -180.333333333 136 -181 c 5
 142 -160 l 5
 172 -160 194.166666667 -155.666666667 208.5 -147 c 132
 222.833333333 -138.333333333 233.333333333 -122 240 -98 c 6
 384 452 l 5
 400 465.333333333 416 478.5 432 491.5 c 132
 448 504.5 464 517.333333333 480 530 c 5
 496 523 l 5
 491.333333333 514.333333333 487.333333333 505 484 495 c 132
 480.666666667 485 477.666666667 475 475 465 c 6
 326 -88 l 6
151 18 m 0
 166.333333333 18 183.333333333 26.3333333333 202 43 c 128
 220.666666667 59.6666666667 239.5 82.3333333333 258.5 111 c 128
 277.5 139.666666667 295.166666667 172.333333333 311.5 209 c 128
 327.833333333 245.666666667 341 284 351 324 c 2
 331 216 l 1
 296.333333333 130.666666667 262 71 228 37 c 128
 194 3 158.666666667 -14 122 -14 c 0
 90.6666666667 -14 65.5 -2.33333333333 46.5 21 c 128
 27.5 44.3333333333 18 79.6666666667 18 127 c 0
 18 157 22.1666666667 190 30.5 226 c 128
 38.8333333333 262 51.1666666667 297.666666667 67.5 333 c 128
 83.8333333333 368.333333333 103.833333333 400.833333333 127.5 430.5 c 128
 151.166666667 460.166666667 178.333333333 483.833333333 209 501.5 c 128
 239.666666667 519.166666667 273.666666667 528 311 528 c 0
 331 528 348.833333333 522 364.5 510 c 128
 380.166666667 498 390.666666667 480.666666667 396 458 c 5
 388 438 l 5
 379.333333333 463.333333333 368.833333333 480.833333333 356.5 490.5 c 128
 344.166666667 500.166666667 329.333333333 505 312 505 c 0
 289.333333333 505 267.666666667 496.166666667 247 478.5 c 128
 226.333333333 460.833333333 207.333333333 437.333333333 190 408 c 128
 172.666666667 378.666666667 157.5 346.166666667 144.5 310.5 c 128
 131.5 274.833333333 121.5 239.166666667 114.5 203.5 c 128
 107.5 167.833333333 104 135 104 105 c 0
 104 75.6666666667 108.166666667 53.8333333333 116.5 39.5 c 128
 124.833333333 25.1666666667 136.333333333 18 151 18 c 0
EndSplineSet
Fore
SplineSet
437.60962424 496.050990727 m 1xe8
 451.739749493 507.497314417 465.869874747 518.813650841 480 530 c 1xd8
 496 523 l 1
 491.333333333 514.333333333 487.333333333 505 484 495 c 128
 480.666666667 485 477.666666667 475 475 465 c 2
 326 -88 l 2
 318.666666667 -115.333333333 321.333333333 -134.166666667 334 -144.5 c 128
 346.666666667 -154.833333333 364.333333333 -160 387 -160 c 1
 381 -181 l 1
 367.666666667 -180.333333333 348.833333333 -179.5 324.5 -178.5 c 128
 300.166666667 -177.5 274.333333333 -177 247 -177 c 0
 226.333333333 -177 205.333333333 -177.5 184 -178.5 c 128
 162.666666667 -179.5 146.666666667 -180.333333333 136 -181 c 1
 142 -160 l 1
 172 -160 194.166666667 -155.666666667 208.5 -147 c 0
 223.288397508 -138.058178251 233.788397508 -121.724844917 240 -98 c 2
 383.687634718 450.806938159 l 1
 382.109822057 460.507493826 379.713943818 468.571847773 376.5 475 c 0
 366.167272124 495.666666667 345.33393879 506 314 506 c 128
 282.666992188 506 253.666992188 497.666666667 227 481 c 128
 200.333007812 464.333007812 176.499674479 442.333007812 155.5 415 c 128
 134.5 387.666992188 116.5 357.833658854 101.5 325.5 c 128
 86.4996429259 293.166222502 74.8329762593 261.332889169 66.5 230 c 128
 58.1669921875 198.666992188 53.3336588542 170.666992188 52 146 c 1
 70.6669921875 136.666992188 88.0003255208 123.000325521 104 105 c 128
 120 87 127 64.6666666667 125 38 c 0
 123.666992188 22.6669921875 118.166992188 11.8336588542 108.5 5.5 c 128
 98.8325109226 -0.833333333333 89.665844256 -4 81 -4 c 0
 57.6669921875 -4 41.6669921875 9.16666666667 33 35.5 c 128
 24.3330078125 61.8330078125 22.3330078125 95.6663411458 27 137 c 0
 31.6669921875 176.333007812 39.6669921875 215.333007812 51 254 c 128
 62.3330078125 292.666992188 76.8330078125 329.000325521 94.5 363 c 128
 112.166992188 397 133.333658854 427.333333333 158 454 c 128
 182.666992188 480.666992188 210.333658854 501.500325521 241 516.5 c 128
 271.666992188 531.5 305.666992188 539 343 539 c 0
 373 539 396.5 532.833333333 413.5 520.5 c 0
 423.22865737 513.442140744 431.265198784 505.292470986 437.60962424 496.050990727 c 1xe8
EndSplineSet
EndChar

StartChar: dy
Encoding: 37 60817 49
Width: 534
GlyphClass: 2
Flags: HW
HStem: -181 21<165 226.516 364.652 404> -14 32<105 190.178> 491 37<112.938 189.667>
VStem: 161 83.5<388.007 490.508>
AnchorPoint: "Top" 372 701 basechar 0
AnchorPoint: "Bottom" 221 0 basechar 0
LayerCount: 2
Back
SplineSet
349 -88 m 6
 341.666992188 -115.333007812 344.333007812 -134.166992188 357 -144.5 c 132
 369.666992188 -154.833007812 387.333007812 -160 410 -160 c 5
 404 -181 l 5
 390.666992188 -180.333007812 371.833007812 -179.5 347.5 -178.5 c 132
 323.166992188 -177.5 297.333007812 -177 270 -177 c 4
 249.333007812 -177 228.333007812 -177.5 207 -178.5 c 132
 185.666992188 -179.5 169.666992188 -180.333007812 159 -181 c 5
 165 -160 l 5
 195 -160 217.166992188 -155.666992188 231.5 -147 c 132
 245.833007812 -138.333007812 256.333007812 -122 263 -98 c 6
 407 452 l 5
 423 465.333007812 439 478.5 455 491.5 c 132
 471 504.5 487 517.333007812 503 530 c 5
 519 523 l 5
 514.333007812 514.333007812 510.333007812 505 507 495 c 132
 503.666992188 485 500.666992188 475 498 465 c 6
 349 -88 l 6
174 18 m 0
 189.333007812 18 206.333007812 26.3330078125 225 43 c 128
 243.666992188 59.6669921875 262.5 82.3330078125 281.5 111 c 128
 300.5 139.666992188 318.166992188 172.333007812 334.5 209 c 128
 350.833007812 245.666992188 364 284 374 324 c 2
 354 216 l 1
 319.333007812 130.666992188 285 71 251 37 c 128
 217 3 181.666992188 -14 145 -14 c 0
 113.666992188 -14 88.5 -2.3330078125 69.5 21 c 128
 50.5 44.3330078125 41 79.6669921875 41 127 c 0
 41 157 45.1669921875 190 53.5 226 c 128
 61.8330078125 262 74.1669921875 297.666992188 90.5 333 c 128
 106.833007812 368.333007812 126.833007812 400.833007812 150.5 430.5 c 128
 174.166992188 460.166992188 201.333007812 483.833007812 232 501.5 c 128
 262.666992188 519.166992188 296.666992188 528 334 528 c 0
 354 528 371.833007812 522 387.5 510 c 128
 403.166992188 498 413.666992188 480.666992188 419 458 c 1
 411 438 l 1
 402.333007812 463.333007812 391.833007812 480.833007812 379.5 490.5 c 128
 367.166992188 500.166992188 352.333007812 505 335 505 c 0
 312.333007812 505 290.666992188 496.166992188 270 478.5 c 128
 249.333007812 460.833007812 230.333007812 437.333007812 213 408 c 128
 195.666992188 378.666992188 180.5 346.166992188 167.5 310.5 c 128
 154.5 274.833007812 144.5 239.166992188 137.5 203.5 c 128
 130.5 167.833007812 127 135 127 105 c 0
 127 75.6669921875 131.166992188 53.8330078125 139.5 39.5 c 128
 147.833007812 25.1669921875 159.333007812 18 174 18 c 0
EndSplineSet
Fore
SplineSet
520 527 m 1
 515.333007812 518.333007812 511.333007812 508.999674479 508 499 c 128
 504.666992188 489 501.666992188 479 499 469 c 2
 349 -88 l 2
 341.735293652 -115.389906365 344.401960319 -134.223239699 357 -144.5 c 128
 369.666992188 -154.833007812 387.333658854 -159.999674479 410 -160 c 1
 404 -181 l 1
 390.70644438 -180.334981433 371.873111047 -179.5016481 347.5 -178.5 c 128
 323.166992188 -177.5 297.333658854 -177 270 -177 c 0
 249.333007812 -177 228.333007812 -177.5 207 -178.5 c 128
 185.666992188 -179.5 169.666992188 -180.333333333 159 -181 c 1
 165 -160 l 1
 195 -160 217.166666667 -155.666666667 231.5 -147 c 0
 246.114294511 -138.162917232 256.614294511 -121.829583899 263 -98 c 2
 349.29470703 224.02658965 l 2
 342.095316117 207.305788985 334.99708044 191.630259101 328 177 c 0
 306 131 284.166666667 94 262.5 66 c 128
 240.833333333 38 218.833333333 17.6666666667 196.5 5 c 128
 174.166666667 -7.66666666667 151 -14 127 -14 c 0
 83 -14 56.6666666667 0.5 48 29.5 c 128
 39.3333333333 58.5 42.3333333333 94.3333333333 57 137 c 2
 154 429 l 2
 160.666666667 449 163 464.333333333 161 475 c 128
 159 485.666666667 151.333333333 491 138 491 c 0
 125.333333333 491 112.833333333 484 100.5 470 c 128
 88.1666666667 456 75 429 61 389 c 2
 48 352 l 1
 29 352 l 1
 54 425 l 2
 68.6666666667 467 87.3333333333 494.666666667 110 508 c 128
 132.666666667 521.333333333 154.333333333 528 175 528 c 0
 204.333333333 528 223.833333333 521.166666667 233.5 507.5 c 128
 243.166666667 493.833333333 246.833333333 476.333333333 244.5 455 c 128
 242.166666667 433.666666667 237 411.333333333 229 388 c 2
 134 102 l 2
 115.333333333 46 122.666666667 18 156 18 c 0
 176 18 197.5 29.1666666667 220.5 51.5 c 128
 243.5 73.8333333333 266.666666667 105.333333333 290 146 c 128
 313.333333333 186.666666667 336 234.833333333 358 290.5 c 0
 372.734746459 327.783373615 386.422806091 367.533937608 399.064178896 409.751691978 c 2
 427 514 l 1
 443.666666667 514.666666667 459.833333333 516 475.5 518 c 0
 495.976588526 520.614032578 510.80992186 523.614032578 520 527 c 1
EndSplineSet
EndChar

StartChar: gy
Encoding: 38 60818 50
Width: 542
GlyphClass: 2
Flags: HW
HStem: -181 21<174 235.516 373.652 413> -14 21G<36.5982 37.3335> 491 37<115.024 174.59 353.645 436.363>
VStem: 161.5 72<380.547 490.726>
AnchorPoint: "Top" 374 701 basechar 0
AnchorPoint: "Bottom" 79 0 basechar 0
LayerCount: 2
Back
SplineSet
358 -88 m 6
 350.666992188 -115.333007812 353.333007812 -134.166992188 366 -144.5 c 132
 378.666992188 -154.833007812 396.333007812 -160 419 -160 c 5
 413 -181 l 5
 399.666992188 -180.333007812 380.833007812 -179.5 356.5 -178.5 c 132
 332.166992188 -177.5 306.333007812 -177 279 -177 c 4
 258.333007812 -177 237.333007812 -177.5 216 -178.5 c 132
 194.666992188 -179.5 178.666992188 -180.333007812 168 -181 c 5
 174 -160 l 5
 204 -160 226.166992188 -155.666992188 240.5 -147 c 132
 254.833007812 -138.333007812 265.333007812 -122 272 -98 c 6
 416 452 l 1
 432 465.333007812 448 478.5 464 491.5 c 128
 480 504.5 496 517.333007812 512 530 c 1
 528 523 l 1
 523.333007812 514.333007812 519.333007812 505 516 495 c 128
 512.666992188 485 509.666992188 475 507 465 c 2
 358 -88 l 6
183 18 m 0
 198.333007812 18 215.333007812 26.3330078125 234 43 c 128
 252.666992188 59.6669921875 271.5 82.3330078125 290.5 111 c 128
 309.5 139.666992188 327.166992188 172.333007812 343.5 209 c 128
 359.833007812 245.666992188 373 284 383 324 c 2
 363 216 l 1
 328.333007812 130.666992188 294 71 260 37 c 128
 226 3 190.666992188 -14 154 -14 c 0
 122.666992188 -14 97.5 -2.3330078125 78.5 21 c 128
 59.5 44.3330078125 50 79.6669921875 50 127 c 0
 50 157 54.1669921875 190 62.5 226 c 128
 70.8330078125 262 83.1669921875 297.666992188 99.5 333 c 128
 115.833007812 368.333007812 135.833007812 400.833007812 159.5 430.5 c 128
 183.166992188 460.166992188 210.333007812 483.833007812 241 501.5 c 128
 271.666992188 519.166992188 305.666992188 528 343 528 c 0
 363 528 380.833007812 522 396.5 510 c 128
 412.166992188 498 422.666992188 480.666992188 428 458 c 1
 420 438 l 1
 411.333007812 463.333007812 400.833007812 480.833007812 388.5 490.5 c 128
 376.166992188 500.166992188 361.333007812 505 344 505 c 0
 321.333007812 505 299.666992188 496.166992188 279 478.5 c 128
 258.333007812 460.833007812 239.333007812 437.333007812 222 408 c 128
 204.666992188 378.666992188 189.5 346.166992188 176.5 310.5 c 128
 163.5 274.833007812 153.5 239.166992188 146.5 203.5 c 128
 139.5 167.833007812 136 135 136 105 c 0
 136 75.6669921875 140.166992188 53.8330078125 148.5 39.5 c 128
 156.833007812 25.1669921875 168.333007812 18 183 18 c 0
122 0 m 1
 35 0 l 1
 155 429 l 2
 157.666666667 437 159.833333333 445.833333333 161.5 455.5 c 128
 163.166666667 465.166666667 162.666666667 473.5 160 480.5 c 128
 157.333333333 487.5 150.666666667 491 140 491 c 0
 125.333333333 491 112.333333333 483.833333333 101 469.5 c 128
 89.6666666667 455.166666667 77 428.333333333 63 389 c 2
 50 352 l 1
 31 352 l 1
 56 425 l 2
 70.6666666667 467 88.8333333333 494.666666667 110.5 508 c 128
 132.166666667 521.333333333 153.666666667 528 175 528 c 0
 201.666666667 528 218.833333333 520.666666667 226.5 506 c 128
 234.166666667 491.333333333 236.333333333 473.333333333 233 452 c 128
 229.666666667 430.666666667 225.333333333 409.333333333 220 388 c 2
 122 0 l 1
168 208 m 1
 191.333333333 268 214 318.333333333 236 359 c 128
 258 399.666666667 279.666666667 432.5 301 457.5 c 128
 322.333333333 482.5 344.166666667 500.5 366.5 511.5 c 128
 388.833333333 522.5 412 528 436 528 c 0
 467.333333333 528 488.833333333 520.5 500.5 505.5 c 128
 512.166666667 490.5 517.333333333 471.5 516 448.5 c 128
 514.666666667 425.5 510 401.666666667 502 377 c 2
 405 85 l 2
 399 67 396.5 52.1666666667 397.5 40.5 c 128
 398.5 28.8333333333 406.333333333 23 421 23 c 0
 433.666666667 23 446.166666667 30 458.5 44 c 128
 470.833333333 58 484 85 498 125 c 2
 511 162 l 1
 530 162 l 1
 505 89 l 2
 490.333333333 47 471.666666667 19.3333333333 449 6 c 128
 426.333333333 -7.33333333333 404.666666667 -14 384 -14 c 0
 354 -14 333 -4.33333333333 321 15 c 0
 313.666666667 27 311.333333333 42.6666666667 314 62 c 128
 316.666666667 81.3333333333 322 102.666666667 330 126 c 2
 425 412 l 2
 428.333333333 421.333333333 431.166666667 432.5 433.5 445.5 c 128
 435.833333333 458.5 435.333333333 470.166666667 432 480.5 c 128
 428.666666667 490.833333333 419 496 403 496 c 0
 383 496 361.5 485.166666667 338.5 463.5 c 128
 315.5 441.833333333 292 411.666666667 268 373 c 128
 244 334.333333333 220.833333333 289 198.5 237 c 128
 176.166666667 185 156.333333333 128.666666667 139 68 c 1
 168 208 l 1
EndSplineSet
Fore
SplineSet
533 514 m 9
 358 -88 l 2
 350.171510398 -114.930004229 352.838177065 -133.763337563 366 -144.5 c 0
 378.666992188 -154.833007812 396.333658854 -159.999674479 419 -160 c 1
 413 -181 l 1
 399.70644438 -180.334981433 380.873111047 -179.5016481 356.5 -178.5 c 128
 332.166992188 -177.5 306.333658854 -177 279 -177 c 0
 258.333007812 -177 237.333007812 -177.5 216 -178.5 c 128
 194.666992188 -179.5 178.666992188 -180.333333333 168 -181 c 1
 174 -160 l 1
 204 -160 226.166666667 -155.666666667 240.5 -147 c 0
 254.653417079 -138.441604103 265.153417079 -122.10827077 272 -98 c 2
 437 483 l 1
 429 491.666666667 414.333333333 496 393 496 c 0
 373 496 351.5 484.833333333 328.5 462.5 c 128
 305.5 440.166992188 282.333333333 408.666992188 259 368 c 128
 235.666992188 327.333007812 213.000325521 279.166341146 191 223.5 c 0
 170.108398438 170.637695312 151.320963542 112.816080729 134.637695312 50.03515625 c 2
 122 0 l 1
 35 0 l 1
 155 429 l 2
 159.700464388 445.804160187 161.867131055 460.63749352 161.5 473.5 c 0
 161.166992188 485.166992188 154.333658854 491.000325521 141 491 c 0
 126.333007812 491 112.833007812 483.166666667 100.5 467.5 c 128
 88.1669921875 451.833007812 75.6669921875 425.666341146 63 389 c 2
 50 352 l 1
 31 352 l 1
 56 425 l 2
 70.6669921875 467 89.3336588542 494.666666667 112 508 c 128
 134.666992188 521.333007812 156.333658854 527.999674479 177 528 c 0
 187.666992188 528 197.666992188 525.666666667 207 521 c 128
 216.333007812 516.333007812 223.333007812 509.666341146 228 501 c 0
 233.333007812 489.666992188 235.166341146 475.333658854 233.5 458 c 128
 231.833007812 440.666992188 227.333007812 417.333658854 220 388 c 2
 188.51171875 263.333007812 l 1
 199.573242188 290.286132812 210.402669271 314.841796875 221 337 c 0
 243 383 264.833333333 420 286.5 448 c 128
 308.166992188 476 330.166992188 496.333333333 352.5 509 c 128
 374.833007812 521.666992188 397.999674479 528.000325521 422 528 c 0
 458 528 495 523.333333333 533 514 c 9
EndSplineSet
EndChar

StartChar: vy
Encoding: 39 60819 51
Width: 445
GlyphClass: 2
Flags: HW
HStem: -14 37<188.667 265.212> 423 54<269.505 386.297> 455 65<109.742 234.204>
VStem: 71 24<370.289 439.93> 134 84.5<23.4561 120.942>
AnchorPoint: "Bottom" 240 0 basechar 0
AnchorPoint: "Top" 352 699 basechar 0
LayerCount: 2
Back
SplineSet
289 696 m 260
 292.333333333 713.333333333 301.166666667 728.333333333 315.5 741 c 132
 329.833333333 753.666666667 345.333333333 760 362 760 c 4
 379.333333333 760 392.833333333 753.666666667 402.5 741 c 132
 412.166666667 728.333333333 415.333333333 713.333333333 412 696 c 260
 408.666666667 678.666666667 399.833333333 663.666666667 385.5 651 c 132
 371.166666667 638.333333333 355.333333333 632 338 632 c 4
 321.333333333 632 308.166666667 638.333333333 298.5 651 c 132
 288.833333333 663.666666667 285.666666667 678.666666667 289 696 c 260
258 429 m 6
 272 470.333333333 267.333333333 491 244 491 c 4
 228.666666667 491 215 482.666666667 203 466 c 132
 191 449.333333333 178.333333333 423.666666667 165 389 c 6
 151 352 l 5
 132 352 l 5
 158 425 l 6
 173.333333333 467 192.666666667 494.666666667 216 508 c 132
 239.333333333 521.333333333 261.333333333 528 282 528 c 4
 310.666666667 528 329.5 520.666666667 338.5 506 c 132
 347.5 491.333333333 350.5 473.166666667 347.5 451.5 c 132
 344.5 429.833333333 339.333333333 408.666666667 332 388 c 6
 225 85 l 6
 218.333333333 65.6666666667 216.166666667 50.5 218.5 39.5 c 132
 220.833333333 28.5 228.333333333 23 241 23 c 4
 254.333333333 23 267 30.3333333333 279 45 c 132
 291 59.6666666667 304.333333333 86.3333333333 319 125 c 6
 333 162 l 5
 352 162 l 5
 326 89 l 6
 312 50.3333333333 293.833333333 23.5 271.5 8.5 c 132
 249.166666667 -6.5 226.333333333 -14 203 -14 c 4
 174.333333333 -14 155 -7.33333333333 145 6 c 132
 135 19.3333333333 131.333333333 36.6666666667 134 58 c 132
 136.666666667 79.3333333333 142.333333333 102 151 126 c 6
 258 429 l 6
25 39 m 5
 44.3333333333 51 61.1666666667 60.8333333333 75.5 68.5 c 132
 89.8333333333 76.1666666667 103.166666667 81.8333333333 115.5 85.5 c 132
 127.833333333 89.1666666667 140 91 152 91 c 4
 168 91 183 88.3333333333 197 83 c 132
 211 77.6666666667 225.333333333 72.3333333333 240 67 c 132
 254.666666667 61.6666666667 270.333333333 59 287 59 c 4
 304.333333333 59 317.833333333 63.1666666667 327.5 71.5 c 132
 337.166666667 79.8333333333 342 92.3333333333 342 109 c 4
 342 127 334.666666667 142.333333333 320 155 c 132
 305.333333333 167.666666667 286.333333333 176.333333333 263 181 c 5
 269 196 l 5
 299.666666667 189.333333333 323.5 177.833333333 340.5 161.5 c 132
 357.5 145.166666667 366 124.333333333 366 99 c 4
 366 72.3333333333 357.333333333 48.1666666667 340 26.5 c 132
 322.666666667 4.83333333333 292.666666667 -6 250 -6 c 4
 232.666666667 -6 217.5 -3.83333333333 204.5 0.5 c 132
 191.5 4.83333333333 179 9.83333333333 167 15.5 c 132
 155 21.1666666667 142 26.1666666667 128 30.5 c 132
 114 34.8333333333 97.3333333333 37 78 37 c 4
 60.6666666667 37 44.8333333333 34.5 30.5 29.5 c 132
 16.1666666667 24.5 2 14.6666666667 -12 0 c 5
 -39 0 l 5
 412 475 l 5
 398 466.333333333 385.166666667 458.666666667 373.5 452 c 132
 361.833333333 445.333333333 351 439.833333333 341 435.5 c 132
 331 431.166666667 321.5 428 312.5 426 c 132
 303.5 424 294.333333333 423 285 423 c 4
 269 423 254 425.666666667 240 431 c 132
 226 436.333333333 211.833333333 441.666666667 197.5 447 c 132
 183.166666667 452.333333333 167.333333333 455 150 455 c 4
 133.333333333 455 120 451 110 443 c 132
 100 435 95 422.333333333 95 405 c 4
 95 387 102.5 371.666666667 117.5 359 c 132
 132.5 346.333333333 151.333333333 337.666666667 174 333 c 5
 168 318 l 5
 137.333333333 325.333333333 113.5 337 96.5 353 c 132
 79.5 369 71 389.666666667 71 415 c 4
 71 433 74.8333333333 450 82.5 466 c 132
 90.1666666667 482 102.5 495 119.5 505 c 132
 136.5 515 159 520 187 520 c 4
 204.333333333 520 219.5 517.833333333 232.5 513.5 c 132
 245.5 509.166666667 258 504.166666667 270 498.5 c 132
 282 492.833333333 295 487.833333333 309 483.5 c 132
 323 479.166666667 339.666666667 477 359 477 c 4
 376.333333333 477 392.166666667 479.5 406.5 484.5 c 132
 420.833333333 489.5 435 499.333333333 449 514 c 5
 476 514 l 5
 25 39 l 5
EndSplineSet
Fore
SplineSet
225 85 m 0xd8
 218.333333333 65.6666666667 216.166666667 50.5 218.5 39.5 c 128
 220.833333333 28.5 228.333333333 23 241 23 c 0
 254.333333333 23 267 30.3333333333 279 45 c 128
 291 59.6666666667 304.333333333 86.3333333333 319 125 c 2
 333 162 l 1
 352 162 l 1
 326 89 l 2
 312 50.3333333333 293.833333333 23.5 271.5 8.5 c 128
 249.166666667 -6.5 226.333333333 -14 203 -14 c 0
 174.333333333 -14 155 -7.33333333333 145 6 c 128
 135 19.3333333333 131.333333333 36.6666666667 134 58 c 0
 136.666666667 78.6666666667 142.333333333 101.333333333 151 126 c 0
 171 181.333333333 194 230 220 272 c 128
 246 314 268.666666667 344.333333333 288 363 c 128
 307.333333333 381.666666667 330.333333333 402.333333333 357 425 c 128
 383.666666667 447.666666667 402 464.333333333 412 475 c 1
 398 466.333333333 385.166666667 458.666666667 373.5 452 c 128
 361.833333333 445.333333333 351 439.833333333 341 435.5 c 128
 331 431.166666667 321.5 428 312.5 426 c 128
 303.5 424 294.333333333 423 285 423 c 0xd8
 269 423 254 425.666666667 240 431 c 128
 226 436.333333333 211.833333333 441.666666667 197.5 447 c 128
 183.166666667 452.333333333 167.333333333 455 150 455 c 0
 133.333333333 455 120 451 110 443 c 128
 100 435 95 422.333333333 95 405 c 0
 95 387 102.5 371.666666667 117.5 359 c 128
 132.5 346.333333333 151.333333333 337.666666667 174 333 c 1
 168 318 l 1
 137.333333333 325.333333333 113.5 337 96.5 353 c 128
 79.5 369 71 389.666666667 71 415 c 0
 71 433 74.8333333333 450 82.5 466 c 128
 90.1666666667 482 102.5 495 119.5 505 c 128
 136.5 515 159 520 187 520 c 0xb8
 204.333333333 520 219.5 517.833333333 232.5 513.5 c 128
 245.5 509.166666667 258 504.166666667 270 498.5 c 128
 282 492.833333333 295 487.833333333 309 483.5 c 128
 323 479.166666667 339.666666667 477 359 477 c 0
 376.333333333 477 392.166666667 479.5 406.5 484.5 c 128
 420.833333333 489.5 435 499.333333333 449 514 c 1
 476 514 l 1
 446 482 424.833333333 459.166666667 412.5 445.5 c 128
 400.166666667 431.833333333 384.5 412.5 365.5 387.5 c 128
 346.5 362.5 331.166666667 338 319.5 314 c 128
 307.833333333 290 294 259.166666667 278 221.5 c 128
 262 183.833333333 244.333333333 138.333333333 225 85 c 0xd8
152 91 m 1024
EndSplineSet
EndChar

StartChar: ry
Encoding: 40 60820 52
Width: 435
GlyphClass: 2
Flags: HW
HStem: -14 20<49.0486 134.93> 37 114<25.5229 72.6348> 486 42<182.394 284.177>
VStem: -12 112<63.7896 124.702> 305 93<253.264 464.656>
AnchorPoint: "Top" 338 701 basechar 0
AnchorPoint: "Bottom" 100 1 basechar 0
LayerCount: 2
Fore
SplineSet
93 6 m 0
 118.333333333 6 143.5 16.3333333333 168.5 37 c 128
 193.5 57.6666666667 216.333333333 86 237 122 c 128
 257.666666667 158 274.166666667 199 286.5 245 c 128
 298.833333333 291 305 339.333333333 305 390 c 0
 305 424 298.666666667 448.5 286 463.5 c 128
 273.333333333 478.5 256.333333333 486 235 486 c 0
 211 486 186.333333333 478.666666667 161 464 c 128
 135.666666667 449.333333333 110.333333333 423.333333333 85 386 c 1
 65 394 l 1
 78.3333333333 416.666666667 95.1666666667 438.166666667 115.5 458.5 c 128
 135.833333333 478.833333333 159 495.5 185 508.5 c 128
 211 521.5 238 528 266 528 c 0
 306 528 338 515.833333333 362 491.5 c 128
 386 467.166666667 398 430.333333333 398 381 c 0
 398 342.333333333 391 300.333333333 377 255 c 128
 363 209.666666667 343 166.5 317 125.5 c 128
 291 84.5 259.333333333 51 222 25 c 128
 184.666666667 -1 142.666666667 -14 96 -14 c 0
 66.6666666667 -14 41.3333333333 -6.5 20 8.5 c 128
 -1.33333333333 23.5 -12 44.3333333333 -12 71 c 0
 -12 90.3333333333 -5.66666666667 108.5 7 125.5 c 128
 19.6666666667 142.5 37 151 59 151 c 0
 73 151 83.3333333333 147.166666667 90 139.5 c 128
 96.6666666667 131.833333333 100 122.666666667 100 112 c 0
 100 92.6666666667 92.3333333333 76.1666666667 77 62.5 c 128
 61.6666666667 48.8333333333 44.3333333333 40.3333333333 25 37 c 1
 31.6666666667 27.6666666667 40.5 20.1666666667 51.5 14.5 c 128
 62.5 8.83333333333 76.3333333333 6 93 6 c 0
EndSplineSet
EndChar

StartChar: zy
Encoding: 41 60821 53
Width: 551
GlyphClass: 2
Flags: HW
HStem: -181 21<-63 -15.3125 121.87 176> -14 23<180.23 262.279> 496 32<352.987 410.63>
VStem: 427 86<262.379 478.755>
AnchorPoint: "Top" 452 701 basechar 0
AnchorPoint: "Bottom" 345 1 basechar 0
LayerCount: 2
Fore
SplineSet
-22 205 m 1
 4 230.333007812 28.3333333333 255.499674479 51 280.5 c 128
 73.6669921875 305.5 95.6669921875 335.333333333 117 370 c 128
 138.333007812 404.666992188 159.999674479 448.333658854 182 501 c 1
 186 515 l 1
 202 515.666992188 217.833333333 517.000325521 233.5 519 c 128
 249.166992188 521 263.666992188 524.333333333 277 529 c 1
 216.356751297 315.224280669 l 1
 239.762098987 370.494431392 262.476515221 413.753004502 284.5 445 c 0
 323.5 500.333333333 365 528 409 528 c 0
 440.333333333 528 465.5 516.333333333 484.5 493 c 128
 503.5 469.666666667 513 434.333333333 513 387 c 0
 513 357 508.833333333 324 500.5 288 c 128
 492.166666667 252 479.833333333 216.333333333 463.5 181 c 128
 447.166666667 145.666666667 427.166666667 113.166666667 403.5 83.5 c 128
 379.833333333 53.8333333333 352.666666667 30.1666666667 322 12.5 c 128
 291.333333333 -5.16666666667 257.333333333 -14 220 -14 c 0
 200 -14 182.166666667 -8 166.5 4 c 0
 153.83602633 13.7000649389 144.548012213 26.8849913527 138.63595765 43.5547792412 c 1
 101 -88 l 2
 93 -116 97 -135 113 -145 c 128
 129 -155 152 -160 182 -160 c 1
 176 -181 l 1
 162.666666667 -180.333333333 143.833333333 -179.5 119.5 -178.5 c 128
 95.1666666667 -177.5 69.3333333333 -177 42 -177 c 0
 21.3333333333 -177 0.333333333333 -177.5 -21 -178.5 c 128
 -42.3333333333 -179.5 -58.3333333333 -180.333333333 -69 -181 c 1
 -63 -160 l 1
 -39 -160 -21.6666666667 -155.5 -11 -146.5 c 0
 -0.114747520025 -137.31556822 8.55191914664 -121.148901553 15 -98 c 2
 157.891601562 414.987304688 l 1
 141.065429688 377.515625 122.1015625 344.853190104 101 317 c 0
 67.6669921875 273 30.3336588542 231.333333333 -11 192 c 1
 -22 205 l 1
380 496 m 0
 362.666666667 496 343.166666667 483.833333333 321.5 459.5 c 128
 299.833333333 435.166666667 277.833333333 402.166666667 255.5 360.5 c 128
 233.166666667 318.833333333 212.166666667 272 192.5 220 c 0
 186.380532264 203.819712426 180.567661693 187.445784537 175.061388288 170.878216333 c 2
 145.856237903 68.7929406714 l 1
 154.523541553 47.9270919113 164.404795585 32.9961116875 175.5 24 c 0
 187.833333333 14 202.333333333 9 219 9 c 0
 241.666666667 9 263.333333333 17.8333333333 284 35.5 c 128
 304.666666667 53.1666666667 323.666666667 76.6666666667 341 106 c 128
 358.333333333 135.333333333 373.5 167.833333333 386.5 203.5 c 128
 399.5 239.166666667 409.5 274.833333333 416.5 310.5 c 128
 423.5 346.166666667 427 379 427 409 c 0
 427 438.333333333 422.833333333 460.166666667 414.5 474.5 c 128
 406.166666667 488.833333333 394.666666667 496 380 496 c 0
EndSplineSet
EndChar

StartChar: jy
Encoding: 42 60822 54
Width: 551
GlyphClass: 2
Flags: HW
HStem: -181 21<-63 -15.3125 121.87 176> -14 37<139.777 214.355 393.41 452.976> 509 20G<283.333 283.736 530.667 531.402>
VStem: 334.5 72<23.2744 133.453>
AnchorPoint: "Top" 396 702 basechar 0
AnchorPoint: "Bottom" 395 0 basechar 0
LayerCount: 2
Back
SplineSet
416 346 m 5
 392 279.333333333 369 223 347 177 c 132
 325 131 303.166666667 94 281.5 66 c 132
 259.833333333 38 237.833333333 17.6666666667 215.5 5 c 132
 193.166666667 -7.66666666667 170 -14 146 -14 c 4
 102 -14 75.6666666667 0.5 67 29.5 c 128
 58.3333333333 58.5 61.3333333333 94.3333333333 76 137 c 2
 173 429 l 2
 179.666666667 449 182 464.333333333 180 475 c 128
 178 485.666666667 170.333333333 491 157 491 c 0
 144.333333333 491 131.833333333 484 119.5 470 c 128
 107.166666667 456 94 429 80 389 c 2
 67 352 l 1
 48 352 l 1
 73 425 l 2
 87.6666666667 467 106.333333333 494.666666667 129 508 c 128
 151.666666667 521.333333333 173.333333333 528 194 528 c 0
 223.333333333 528 242.833333333 521.166666667 252.5 507.5 c 128
 262.166666667 493.833333333 265.833333333 476.333333333 263.5 455 c 128
 261.166666667 433.666666667 256 411.333333333 248 388 c 2
 153 102 l 2
 134.333333333 46 141.666666667 18 175 18 c 4
 195 18 216.5 29.1666666667 239.5 51.5 c 132
 262.5 73.8333333333 285.666666667 105.333333333 309 146 c 132
 332.333333333 186.666666667 355 234.833333333 377 290.5 c 132
 399 346.166666667 418.666666667 407.333333333 436 474 c 5
 416 346 l 5
413 85 m 6
 408.333333333 67 406.166666667 52.1666666667 406.5 40.5 c 132
 406.833333333 28.8333333333 413.666666667 23 427 23 c 4
 441.666666667 23 455.166666667 30.8333333333 467.5 46.5 c 132
 479.833333333 62.1666666667 492.333333333 88.3333333333 505 125 c 6
 518 162 l 5
 537 162 l 5
 512 89 l 6
 497.333333333 47 478.666666667 19.3333333333 456 6 c 132
 433.333333333 -7.33333333333 411.666666667 -14 391 -14 c 4
 380.333333333 -14 370.333333333 -11.6666666667 361 -7 c 132
 351.666666667 -2.33333333333 344.666666667 4.33333333333 340 13 c 4
 334.666666667 24.3333333333 332.833333333 38.6666666667 334.5 56 c 132
 336.166666667 73.3333333333 340.666666667 96.6666666667 348 126 c 6
 446 514 l 5
 462.666666667 514.666666667 478.833333333 516 494.5 518 c 132
 510.166666667 520 524.333333333 523.333333333 537 528 c 5
 413 85 l 6
EndSplineSet
Fore
SplineSet
413 85 m 2
 408.333333333 67 406.166666667 52.1666666667 406.5 40.5 c 128
 406.833333333 28.8333333333 413.666666667 23 427 23 c 0
 441.666666667 23 455.166666667 30.8333333333 467.5 46.5 c 128
 479.833333333 62.1666666667 492.333333333 88.3333333333 505 125 c 2
 518 162 l 1
 537 162 l 1
 512 89 l 2
 497.333333333 47 478.666666667 19.3333333333 456 6 c 128
 433.333333333 -7.33333333333 411.666666667 -14 391 -14 c 0
 380.333333333 -14 370.333333333 -11.6666666667 361 -7 c 128
 351.666666667 -2.33333333333 344.666666667 4.33333333333 340 13 c 0
 334.666666667 24.3333333333 332.833333333 38.6666666667 334.5 56 c 128
 336.166666667 73.3333333333 340.666666667 96.6666666667 348 126 c 2
 379.488107514 250.667201179 l 1
 368.42670621 223.71380208 357.597337039 199.158068353 347 177 c 0
 325 131 303.166666667 94 281.5 66 c 128
 259.833333333 38 237.833333333 17.6666666667 215.5 5 c 128
 193.166666667 -7.66666666667 170 -14 146 -14 c 2
 122.998046875 -12 l 1
 101 -88 l 2
 93 -116 97 -135 113 -145 c 128
 129 -155 152 -160 182 -160 c 1
 176 -181 l 1
 162.666666667 -180.333333333 143.833333333 -179.5 119.5 -178.5 c 128
 95.1666666667 -177.5 69.3333333333 -177 42 -177 c 0
 21.3333333333 -177 0.333333333333 -177.5 -21 -178.5 c 128
 -42.3333333333 -179.5 -58.3333333333 -180.333333333 -69 -181 c 1
 -63 -160 l 1
 -39 -160 -21.6666666667 -155.5 -11 -146.5 c 0
 -0.961033094746 -138.029621674 7.70563357192 -121.862955007 15 -98 c 2
 170.891601562 414.987304688 l 1
 154.065429688 377.515625 135.1015625 344.853190104 114 317 c 0
 80.6669921875 273 43.3336588542 231.333333333 2 192 c 1
 -9 205 l 1
 17 230.333007812 41.3333333333 255.499674479 64 280.5 c 128
 86.6669921875 305.5 108.666992188 335.333333333 130 370 c 128
 151.333007812 404.666992188 172.999674479 448.333658854 195 501 c 1
 199 515 l 1
 215 515.666992188 230.833333333 517.000325521 246.5 519 c 128
 262.166992188 521 276.666992188 524.333333333 290 529 c 1
 145.856445312 68.79296875 l 2
 142.332336351 60.6356253556 142.670074465 50.1307947153 146.869659654 37.2784768292 c 128
 151.069244843 24.4261589431 160.446024958 18 175 18 c 0
 195 18 216.5 29.1666666667 239.5 51.5 c 128
 262.5 73.8333333333 285.666666667 105.333333333 309 146 c 128
 332.333333333 186.666666667 355 234.833333333 377 290.5 c 0
 397.89200198 343.36309592 416.679782041 401.186143508 433.363340183 463.969142763 c 2
 446 514 l 1
 462.666666667 514.666666667 478.833333333 516 494.5 518 c 128
 510.166666667 520 524.333333333 523.333333333 537 528 c 1
 413 85 l 2
EndSplineSet
EndChar

StartChar: ny
Encoding: 43 60823 55
Width: 445
VWidth: 988
GlyphClass: 2
Flags: HW
HStem: -14 43<174.059 311.103> 423 54<269.505 385.291> 455 65<109.742 234.204>
VStem: 44.0625 91.6514<68.4222 211.603> 71 24<370.289 439.93> 372 19<114.496 127.579>
AnchorPoint: "Top" 325 702 basechar 0
AnchorPoint: "Bottom" 205 0 basechar 0
LayerCount: 2
Back
SplineSet
25 39 m 5
 44.3333333333 51 61.1666666667 60.8333333333 75.5 68.5 c 132
 89.8333333333 76.1666666667 103.166666667 81.8333333333 115.5 85.5 c 132
 127.833333333 89.1666666667 140 91 152 91 c 4
 168 91 183 88.3333333333 197 83 c 132
 211 77.6666666667 225.333333333 72.3333333333 240 67 c 132
 254.666666667 61.6666666667 270.333333333 59 287 59 c 4
 304.333333333 59 317.833333333 63.1666666667 327.5 71.5 c 132
 337.166666667 79.8333333333 342 92.3333333333 342 109 c 4
 342 127 334.666666667 142.333333333 320 155 c 132
 305.333333333 167.666666667 286.333333333 176.333333333 263 181 c 5
 269 196 l 5
 299.666666667 189.333333333 323.5 177.833333333 340.5 161.5 c 132
 357.5 145.166666667 366 124.333333333 366 99 c 4
 366 72.3333333333 357.333333333 48.1666666667 340 26.5 c 132
 322.666666667 4.83333333333 292.666666667 -6 250 -6 c 4
 232.666666667 -6 217.5 -3.83333333333 204.5 0.5 c 132
 191.5 4.83333333333 179 9.83333333333 167 15.5 c 132
 155 21.1666666667 142 26.1666666667 128 30.5 c 132
 114 34.8333333333 97.3333333333 37 78 37 c 4
 60.6666666667 37 44.8333333333 34.5 30.5 29.5 c 132
 16.1666666667 24.5 2 14.6666666667 -12 0 c 5
 -39 0 l 5
 412 475 l 5
 398 466.333333333 385.166666667 458.666666667 373.5 452 c 132
 361.833333333 445.333333333 351 439.833333333 341 435.5 c 132
 331 431.166666667 321.5 428 312.5 426 c 132
 303.5 424 294.333333333 423 285 423 c 4
 269 423 254 425.666666667 240 431 c 132
 226 436.333333333 211.833333333 441.666666667 197.5 447 c 132
 183.166666667 452.333333333 167.333333333 455 150 455 c 4
 133.333333333 455 120 451 110 443 c 132
 100 435 95 422.333333333 95 405 c 4
 95 387 102.5 371.666666667 117.5 359 c 132
 132.5 346.333333333 151.333333333 337.666666667 174 333 c 5
 168 318 l 5
 137.333333333 325.333333333 113.5 337 96.5 353 c 132
 79.5 369 71 389.666666667 71 415 c 4
 71 433 74.8333333333 450 82.5 466 c 132
 90.1666666667 482 102.5 495 119.5 505 c 132
 136.5 515 159 520 187 520 c 4
 204.333333333 520 219.5 517.833333333 232.5 513.5 c 132
 245.5 509.166666667 258 504.166666667 270 498.5 c 132
 282 492.833333333 295 487.833333333 309 483.5 c 132
 323 479.166666667 339.666666667 477 359 477 c 4
 376.333333333 477 392.166666667 479.5 406.5 484.5 c 132
 420.833333333 489.5 435 499.333333333 449 514 c 5
 476 514 l 5
 25 39 l 5
279 529 m 4
 300.333333333 529 321 526.333333333 341 521 c 132
 361 515.666666667 379 507.666666667 395 497 c 4
 410.333333333 487 422 475.5 430 462.5 c 132
 438 449.5 442 435.333333333 442 420 c 4
 442 402 437 388.166666667 427 378.5 c 132
 417 368.833333333 404.333333333 364 389 364 c 4
 374.333333333 364 361.5 368.333333333 350.5 377 c 132
 339.5 385.666666667 334 398 334 414 c 4
 334 429.333333333 338.166666667 441.666666667 346.5 451 c 132
 354.833333333 460.333333333 364.666666667 466.333333333 376 469 c 5
 369.333333333 481 357.5 491 340.5 499 c 132
 323.5 507 305.333333333 511 286 511 c 4
 269.333333333 511 252.666666667 507 236 499 c 132
 219.333333333 491 204 477.833333333 190 459.5 c 132
 176 441.166666667 164.666666667 416.166666667 156 384.5 c 132
 147.333333333 352.833333333 143 313.333333333 143 266 c 4
 143 207.333333333 149.666666667 160.666666667 163 126 c 132
 176.333333333 91.3333333333 193.833333333 66.5 215.5 51.5 c 132
 237.166666667 36.5 261 29 287 29 c 260
 313 29 339.333333333 36.6666666667 366 52 c 132
 392.666666667 67.3333333333 414.666666667 94 432 132 c 5
 451 125 l 5
 444.333333333 103.666666667 433.333333333 82.1666666667 418 60.5 c 132
 402.666666667 38.8333333333 382.666666667 21 358 7 c 132
 333.333333333 -7 303 -14 267 -14 c 4
 225.666666667 -14 188.333333333 -3.33333333333 155 18 c 132
 121.666666667 39.3333333333 95.1666666667 69.8333333333 75.5 109.5 c 132
 55.8333333333 149.166666667 46 196.333333333 46 251 c 260
 46 305.666666667 55.8333333333 353.833333333 75.5 395.5 c 132
 95.1666666667 437.166666667 122.666666667 469.833333333 158 493.5 c 132
 193.333333333 517.166666667 233.666666667 529 279 529 c 4
EndSplineSet
Fore
SplineSet
354 414 m 258xd4
 412 475 l 1
 398 466.333333333 385.166666667 458.666666667 373.5 452 c 128
 361.833333333 445.333333333 351 439.833333333 341 435.5 c 128
 331 431.166666667 321.5 428 312.5 426 c 128
 303.5 424 294.333333333 423 285 423 c 0xd4
 269 423 254 425.666666667 240 431 c 128
 226 436.333333333 211.833333333 441.666666667 197.5 447 c 128
 183.166666667 452.333333333 167.333333333 455 150 455 c 0
 133.333333333 455 120 451 110 443 c 128
 100 435 95 422.333333333 95 405 c 0
 95 387 102.5 371.666666667 117.5 359 c 128
 132.5 346.333333333 151.333333333 337.666666667 174 333 c 1
 168 318 l 1
 137.333333333 325.333333333 113.5 337 96.5 353 c 128
 79.5 369 71 389.666666667 71 415 c 0
 71 433 74.8333333333 450 82.5 466 c 128
 90.1666666667 482 102.5 495 119.5 505 c 128
 136.5 515 159 520 187 520 c 0xac
 204.333333333 520 219.5 517.833333333 232.5 513.5 c 128
 245.5 509.166666667 258 504.166666667 270 498.5 c 128
 282 492.833333333 295 487.833333333 309 483.5 c 128
 323 479.166666667 339.666666667 477 359 477 c 0
 376.333333333 477 392.166666667 479.5 406.5 484.5 c 128
 420.833333333 489.5 435 499.333333333 449 514 c 1
 476 514 l 1
 384 418 l 2
 371.565677476 404.817748302 354.209425861 389.425282842 331.931245154 371.82260362 c 128
 309.653064448 354.219924398 289.189136453 337.932855318 270.53946117 322.96139638 c 0
 268.039236026 320.954282716 259.177083948 314.046626997 243.953004936 302.238429224 c 128
 228.728925924 290.43023145 218.195970673 282.016368702 212.354139182 276.99684098 c 128
 206.512307691 271.977313258 197.462697618 263.287617696 185.205308963 250.927754295 c 128
 172.947920308 238.567890894 164.111565405 227.730423365 158.696244253 218.415351708 c 128
 153.280923102 209.100280051 148.106920944 197.552235661 143.17423778 183.771218539 c 128
 138.241554615 169.990201416 135.754764418 156.066461903 135.713867188 142 c 0
 135.607332101 105.395711681 145.159513957 77.4113062679 164.370412757 58.0467837607 c 128
 183.581311556 38.6822612536 211.124507304 29 247 29 c 0
 279.666666667 29 304.666666667 37.5 322 54.5 c 128
 339.333333333 71.5 356 97.3333333333 372 132 c 1
 391 125 l 1
 377.666666667 81.6666666667 358.666666667 47.6666666667 334 23 c 128
 309.333333333 -1.66666666667 273.666666667 -14 227 -14 c 0
 175.533618114 -14 132.184782708 -1.20023160634 96.9534937812 24.399305181 c 128
 61.7222048543 49.9988419683 44.0918735939 85.8657402413 44.0625 132 c 0
 44.0526446722 147.564804532 46.2370821731 162.467054717 50.6158125027 176.706750557 c 128
 54.9945428324 190.946446397 60.2218734027 203.409174937 66.2978042136 214.094936176 c 128
 72.3737350246 224.780697415 81.0353614943 235.532861988 92.282683623 246.351429894 c 128
 103.530005752 257.1699978 113.523312988 265.996750389 122.262605331 272.831687661 c 128
 131.001897675 279.666624933 142.884556371 287.359843597 157.910581421 295.911343654 c 128
 172.936606471 304.462843711 184.606001495 310.807680434 192.918766494 314.945853824 c 128
 201.231531492 319.084027214 213.079065674 324.809439675 228.461369038 332.122091208 c 0
 232.907582603 334.235793537 236.214523931 335.810791497 238.382193022 336.847085089 c 0
 258.744613799 346.581710294 279.737862264 358.336431346 301.361938417 372.111248245 c 128
 322.98601457 385.886065144 340.532035098 399.848982395 354 414 c 258xd4
EndSplineSet
EndChar

StartChar: bahebu
Encoding: 44 60824 56
Width: 0
VWidth: 0
GlyphClass: 4
Flags: W
HStem: -198 128<-335.833 -260.443>
VStem: -361 125<-173.556 -95.0585>
AnchorPoint: "Bottom" -262 0 mark 0
LayerCount: 2
Fore
SplineSet
-361 -147 m 4
 -361 -127 -353.333007812 -109.166992188 -338 -93.5 c 4
 -322.666992188 -77.8330078125 -305.666992188 -70 -287 -70 c 4
 -271.666992188 -70 -259.333007812 -75 -250 -85 c 4
 -240.666992188 -95 -236 -107.333007812 -236 -122 c 4
 -236 -142 -243.666992188 -159.666992188 -259 -175 c 4
 -274.333007812 -190.333007812 -291.666992188 -198 -311 -198 c 4
 -325.666992188 -198 -337.666992188 -193.166992188 -347 -183.5 c 4
 -356.333007812 -173.833007812 -361 -161.666992188 -361 -147 c 4
EndSplineSet
EndChar

StartChar: smajibu
Encoding: 45 60825 57
Width: 416
VWidth: 988
GlyphClass: 2
Flags: HW
HStem: 326 58<93 319>
VStem: 78 256
LayerCount: 2
Back
SplineSet
78 341 m 0
 78 361 85.6666666667 378.833333333 101 394.5 c 128
 116.333333333 410.166666667 133.333333333 418 152 418 c 0
 167.333333333 418 179.666666667 413 189 403 c 128
 198.333333333 393 203 380.666666667 203 366 c 0
 203 346 195.333333333 328.333333333 180 313 c 128
 164.666666667 297.666666667 147.333333333 290 128 290 c 0
 113.333333333 290 101.333333333 294.833333333 92 304.5 c 128
 82.6666666667 314.166666667 78 326.333333333 78 341 c 0
EndSplineSet
Fore
SplineSet
93 384 m 5
 334 384 l 5
 319 326 l 5
 78 326 l 5
 93 384 l 5
EndSplineSet
Substitution2: "Single Substitution lookup 60 subtable" smajibu.fina
Substitution2: "Single Substitution lookup 59 subtable" smajibu.fina
Substitution2: "Single Substitution lookup 58 subtable" smajibu.fina
Substitution2: "Single Substitution lookup 56 subtable" smajibu.medi
Substitution2: "Single Substitution lookup 55 subtable" smajibu.medi
Substitution2: "Single Substitution lookup 54 subtable" smajibu.medi
Substitution2: "Single Substitution lookup 53 subtable" smajibu.medi
Substitution2: "Single Substitution lookup 52 subtable" smajibu.medi
Substitution2: "Single Substitution lookup 51 subtable" smajibu.medi
Substitution2: "Single Substitution lookup 49 subtable" smajibu.init
Substitution2: "Single Substitution lookup 48 subtable" smajibu.init
Substitution2: "Single Substitution lookup 47 subtable" smajibu.init
EndChar

StartChar: tcenabu
Encoding: 47 60827 59
Width: 0
VWidth: 988
GlyphClass: 4
Flags: W
HStem: -113 58<-528 -15>
AnchorPoint: "Bottom" -263 0 mark 0
LayerCount: 2
Fore
SplineSet
-528 -55 m 1
 0 -55 l 1
 -15 -113 l 1
 -543 -113 l 1
 -528 -55 l 1
EndSplineSet
EndChar

StartChar: abu
Encoding: 52 60832 64
Width: 0
GlyphClass: 4
Flags: HW
HStem: 593.696 224.835
VStem: -46.5146 13.332<596.175 606.441> -11.5742 71.7168<717.002 815.796>
AnchorPoint: "Top" -0 701 mark 0
LayerCount: 2
Fore
SplineSet
41.6083984375 818.53125 m 260
 51.162109375 815.091796875 58.076171875 808.323242188 62.3505859375 798.225585938 c 128
 66.6240234375 788.127929688 65.8880208333 775.228515625 60.142578125 759.52734375 c 0
 54.357421875 744.490234375 47.4853515625 730.891601562 39.5263671875 718.731445312 c 128
 31.5673828125 706.572265625 21.6136067708 691.455078125 9.6650390625 673.379882812 c 128
 -2.283203125 655.305664062 -16.5657552083 628.744466146 -33.1826171875 593.696289062 c 1
 -46.5146484375 598.915039062 l 1
 -36.0458984375 636.26953125 -29.6149088542 665.703125 -27.2216796875 687.215820312 c 128
 -24.826171875 708.727539062 -22.8994140625 726.873697917 -21.44140625 741.654296875 c 128
 -19.9814453125 756.435546875 -16.6923828125 771.323893229 -11.57421875 786.319335938 c 0
 -5.828125 802.01953125 2.08333333333 812.173177083 12.16015625 816.780273438 c 128
 22.2371977219 821.387199955 32.053278451 821.97085881 41.6083984375 818.53125 c 260
EndSplineSet
MultipleSubs2: "Multiple Substitution lookup 62 subtable" denpabu abu
EndChar

StartChar: ebu
Encoding: 53 60833 65
Width: 0
GlyphClass: 4
Flags: W
HStem: 670 58<-93 93>
VStem: -108 216
AnchorPoint: "Top" 0 701 mark 0
LayerCount: 2
Fore
SplineSet
-93 728 m 1
 108 728 l 5
 93 670 l 5
 -108 670 l 1
 -93 728 l 1
EndSplineSet
MultipleSubs2: "Multiple Substitution lookup 63 subtable" denpabu ebu
EndChar

StartChar: ibu
Encoding: 54 60834 66
Width: 0
GlyphClass: 4
Flags: HW
HStem: 636 128<-38.8328 36.5567>
VStem: -64 125<660.444 738.941>
AnchorPoint: "Top" 0 701 mark 0
LayerCount: 2
Fore
SplineSet
-64 687 m 0
 -64 707 -56.3333333333 724.833333333 -41 740.5 c 128
 -25.6669921875 756.166992188 -8.6669921875 764.000325521 10 764 c 0
 25.3330078125 764 37.6663411458 759 47 749 c 128
 56.3330078125 739 60.9996744792 726.666666667 61 712 c 0
 61 692 53.3333333333 674.333333333 38 659 c 128
 22.6669921875 643.666992188 5.33365885417 636.000325521 -14 636 c 0
 -28.6669921875 636 -40.6669921875 640.833333333 -50 650.5 c 128
 -59.3330078125 660.166992188 -63.9996744792 672.333658854 -64 687 c 0
EndSplineSet
MultipleSubs2: "Multiple Substitution lookup 64 subtable" denpabu ibu
Substitution2: "Single Substitution lookup 33 subtable" iy
Substitution2: "Single Substitution lookup 32 subtable" iy
Substitution2: "Single Substitution lookup 31 subtable" iy
Substitution2: "Single Substitution lookup 30 subtable" iy
Substitution2: "Single Substitution lookup 29 subtable" iy
Substitution2: "Single Substitution lookup 28 subtable" iy
Substitution2: "Single Substitution lookup 27 subtable" iy
Substitution2: "Single Substitution lookup 26 subtable" iy
Substitution2: "Single Substitution lookup 25 subtable" iy
Substitution2: "Single Substitution lookup 24 subtable" iy
Substitution2: "Single Substitution lookup 13 subtable" iy
Substitution2: "Single Substitution lookup 12 subtable" iy
Substitution2: "Single Substitution lookup 11 subtable" iy
Substitution2: "Single Substitution lookup 10 subtable" iy
Substitution2: "Single Substitution lookup 9 subtable" iy
Substitution2: "Single Substitution lookup 8 subtable" iy
Substitution2: "Single Substitution lookup 7 subtable" iy
Substitution2: "Single Substitution lookup 6 subtable" iy
Substitution2: "Single Substitution lookup 5 subtable" iy
Substitution2: "Single Substitution lookup 4 subtable" iy
EndChar

StartChar: obu
Encoding: 55 60835 67
Width: 0
GlyphClass: 4
Flags: HW
HStem: 639 57<25.6166 107.376> 706 56<-112.338 -30.0679> 729 20G<135.42 158>
VStem: -163 14<655.5 661.783> 144 14<739.272 745.5>
AnchorPoint: "Top" 0 701 mark 0
LayerCount: 2
Back
SplineSet
-67 762 m 0
 -49 762 -33.6669921875 758.666992188 -21 752 c 128
 -8.3330078125 745.333007812 3.1669921875 737.666992188 13.5 729 c 128
 23.8330078125 720.333007812 34.5 712.666992188 45.5 706 c 128
 56.5 699.333007812 69.3330078125 696 84 696 c 0
 98 696 111.5 700.166992188 124.5 708.5 c 128
 137.5 716.833007812 149.666992188 730.333007812 161 749 c 1
 175 742 l 1
 164.333007812 705.333007812 148.333007812 679 127 663 c 128
 105.666992188 647 82.3330078125 639 57 639 c 0
 39 639 23.5 642.333007812 10.5 649 c 128
 -2.5 655.666992188 -14.1669921875 663.5 -24.5 672.5 c 128
 -34.8330078125 681.5 -45.5 689.333007812 -56.5 696 c 128
 -67.5 702.666992188 -80.3330078125 706 -95 706 c 0
 -109 706 -122.5 701.833007812 -135.5 693.5 c 128
 -148.5 685.166992188 -160.666992188 671.333007812 -172 652 c 1
 -186 659 l 1
 -175.333007812 696.333007812 -159.166992188 722.833007812 -137.5 738.5 c 128
 -115.833007812 754.166992188 -92.3330078125 762 -67 762 c 0
EndSplineSet
Fore
SplineSet
-82 706 m 4xd8
 -84.6666666667 706 -87.3333333333 705.666666667 -90 705 c 128
 -92.6666666667 704.333333333 -95 703.666666667 -97 703 c 128
 -99 702.333333333 -101.166666667 701.166666667 -103.5 699.5 c 128
 -105.833333333 697.833333333 -107.666666667 696.5 -109 695.5 c 128
 -110.333333333 694.5 -112.166666667 692.666666667 -114.5 690 c 128
 -116.833333333 687.333333333 -118.5 685.333333333 -119.5 684 c 128
 -120.5 682.666666667 -122.166666667 680.166666667 -124.5 676.5 c 128
 -126.833333333 672.833333333 -128.333333333 670.333333333 -129 669 c 128
 -129.666666667 667.666666667 -131.333333333 664.833333333 -134 660.5 c 128
 -136.666666667 656.166666667 -138.333333333 653.333333333 -139 652 c 2
 -153 659 l 1
 -143.666666667 692.333333333 -131.333333333 717.833333333 -116 735.5 c 128
 -100.666666667 753.166666667 -80 762 -54 762 c 0xd8
 -36 762 -13.5 751 13.5 729 c 128
 40.5 707 61.6666666667 696 77 696 c 0
 80.3333333333 696 83.3333333333 696.166666667 86 696.5 c 128
 88.6666666667 696.833333333 91.1666666667 697.833333333 93.5 699.5 c 128
 95.8333333333 701.166666667 98 702.5 100 703.5 c 128
 102 704.5 104.166666667 706.333333333 106.5 709 c 128
 108.833333333 711.666666667 110.666666667 713.666666667 112 715 c 128
 113.333333333 716.333333333 115.333333333 719 118 723 c 128
 120.666666667 727 122.333333333 729.666666667 123 731 c 128
 123.666666667 732.333333333 125.5 735.333333333 128.5 740 c 128
 131.5 744.666666667 133.333333333 747.666666667 134 749 c 2xb8
 148 742 l 1
 138.666666667 709.333333333 126.333333333 684 111 666 c 128
 95.6666666667 648 75.3333333333 639 50 639 c 0
 31.3333333333 639 8.5 650.166666667 -18.5 672.5 c 128
 -45.5 694.833333333 -66.6666666667 706 -82 706 c 4xd8
EndSplineSet
MultipleSubs2: "Multiple Substitution lookup 65 subtable" denpabu obu
EndChar

StartChar: ubu
Encoding: 56 60836 68
Width: 0
GlyphClass: 4
Flags: HW
HStem: 663.902 63.8174<-49.0404 57.9933>
VStem: -84.9375 9<771.548 778.097>
AnchorPoint: "Top" 0 701 mark 0
LayerCount: 2
Fore
SplineSet
9.5625 727.719726562 m 0
 29.0625 727.719726562 50.15625 732.482421875 72.84375 742.0078125 c 128
 95.53125 751.532226562 115.875 765.184570312 133.875 782.96484375 c 1
 139.5 772.487304688 l 1
 129.75 755.977539062 116.90625 739.308919271 100.96875 722.481445312 c 128
 85.03125 705.653320312 68.15625 691.683268229 50.34375 680.571289062 c 128
 32.53125 669.458007812 15.75 663.901692708 0 663.90234375 c 0
 -24 663.90234375 -43.125 674.697265625 -57.375 696.287109375 c 128
 -71.625 717.877929688 -80.8125 743.913085938 -84.9375 774.392578125 c 1
 -75.9375 779.155273438 l 1
 -66.1875 759.469726562 -54.65625 745.975911458 -41.34375 738.673828125 c 128
 -28.03125 731.37109375 -11.0625 727.719726562 9.5625 727.719726562 c 0
EndSplineSet
MultipleSubs2: "Multiple Substitution lookup 66 subtable" denpabu ubu
Substitution2: "Single Substitution lookup 43 subtable" uy
Substitution2: "Single Substitution lookup 42 subtable" uy
Substitution2: "Single Substitution lookup 41 subtable" uy
Substitution2: "Single Substitution lookup 40 subtable" uy
Substitution2: "Single Substitution lookup 39 subtable" uy
Substitution2: "Single Substitution lookup 38 subtable" uy
Substitution2: "Single Substitution lookup 37 subtable" uy
Substitution2: "Single Substitution lookup 36 subtable" uy
Substitution2: "Single Substitution lookup 35 subtable" uy
Substitution2: "Single Substitution lookup 34 subtable" uy
Substitution2: "Single Substitution lookup 23 subtable" uy
Substitution2: "Single Substitution lookup 22 subtable" uy
Substitution2: "Single Substitution lookup 21 subtable" uy
Substitution2: "Single Substitution lookup 20 subtable" uy
Substitution2: "Single Substitution lookup 19 subtable" uy
Substitution2: "Single Substitution lookup 18 subtable" uy
Substitution2: "Single Substitution lookup 17 subtable" uy
Substitution2: "Single Substitution lookup 16 subtable" uy
Substitution2: "Single Substitution lookup 15 subtable" uy
Substitution2: "Single Substitution lookup 14 subtable" uy
EndChar

StartChar: ybu
Encoding: 57 60837 69
Width: 0
GlyphClass: 4
Flags: HW
HStem: 608 21<-45.5593 28.1425> 770 21<-29.6948 44.1414>
VStem: -98 26<650.276 731.872> 71 26<666.831 748.532>
AnchorPoint: "Top" 0 701 mark 0
LayerCount: 2
Fore
SplineSet
11 791 m 0
 35 791 55.3333333333 783.833333333 72 769.5 c 128
 88.6666666667 755.166666667 97 735.666666667 97 711 c 0
 97 692.333333333 91.8333333333 675.166666667 81.5 659.5 c 128
 71.1666666667 643.833333333 57.5 631.333333333 40.5 622 c 128
 23.5 612.666666667 5 608 -15 608 c 0
 -38.3333333333 608 -58 615.166666667 -74 629.5 c 128
 -90 643.833333333 -98 663.333333333 -98 688 c 0
 -98 717.333333333 -87.3333333333 741.833333333 -66 761.5 c 128
 -44.6666666667 781.166666667 -19 791 11 791 c 0
-11 629 m 0
 10.3333333333 629 29.3333333333 636.833333333 46 652.5 c 128
 62.6666666667 668.166666667 71 688 71 712 c 0
 71 731.333333333 64.1666666667 745.833333333 50.5 755.5 c 128
 36.8333333333 765.166666667 22.3333333333 770 7 770 c 0
 -13.6666666667 770 -32 761.833333333 -48 745.5 c 128
 -64 729.166666667 -72 710.333333333 -72 689 c 0
 -72 669 -65.5 654 -52.5 644 c 128
 -39.5 634 -25.6666666667 629 -11 629 c 0
EndSplineSet
MultipleSubs2: "Multiple Substitution lookup 67 subtable" denpabu ybu
EndChar

StartChar: aibu
Encoding: 58 60838 70
Width: 0
VWidth: 0
GlyphClass: 4
Flags: HW
HStem: 569 39<-42 4.33428> 738 38<14.418 61>
VStem: -44 57<681.222 734.463> 6 58<611.127 667.254>
AnchorPoint: "Top" 0 657 mark 0
LayerCount: 2
Fore
SplineSet
13 711 m 0xe0
 13 705 15.6666666667 699.333333333 21 694 c 0
 25.6666666667 689.333333333 32.3333333333 683.333333333 41 676 c 0
 45 672 50.3333333333 665.333333333 57 656 c 0
 61.6666666667 649.333333333 64 641.333333333 64 632 c 0
 64 624 61.3333333333 615.666666667 56 607 c 0
 38.6666666667 581.666666667 6 569 -42 569 c 1
 -42 608 l 1
 -10 608 6 617 6 635 c 0xd0
 6 641 3.66666666667 646.666666667 -1 652 c 0
 -6 658 -12 664 -19 670 c 0
 -25.6666666667 675.333333333 -31.6666666667 682 -37 690 c 0
 -41.6666666667 696.666666667 -44 704.666666667 -44 714 c 128
 -44 723.333333333 -41.6666666667 731.666666667 -37 739 c 0
 -21 763.666666667 11.6666666667 776 61 776 c 1
 61 738 l 1
 29 737 13 728 13 711 c 0xe0
EndSplineSet
MultipleSubs2: "Multiple Substitution lookup 68 subtable" denpabu aibu
Ligature2: "zlmVV subtable" abu ibu
LCarets2: 1 0
EndChar

StartChar: oibu
Encoding: 60 60840 72
Width: 0
GlyphClass: 4
Flags: HW
HStem: 635 221
VStem: -99 182.5
AnchorPoint: "Top" 0 701 mark 0
LayerCount: 2
Fore
SplineSet
-140 653 m 2
 -98 696 l 1
 -73.3333333333 714.666666667 -52 725.833333333 -34 729.5 c 128
 -16 733.166666667 -2.5 732.166666667 6.5 726.5 c 128
 15.5 720.833333333 26.5 714.333333333 39.5 707 c 128
 52.5 699.666666667 65 696 77 696 c 0
 80.3333333333 696 83.3333333333 696.166666667 86 696.5 c 128
 88.6666666667 696.833333333 91.1666666667 697.833333333 93.5 699.5 c 128
 95.8333333333 701.166666667 98 702.5 100 703.5 c 128
 102 704.5 104.166666667 706.333333333 106.5 709 c 128
 108.833333333 711.666666667 110.666666667 713.666666667 112 715 c 128
 113.333333333 716.333333333 115.333333333 719 118 723 c 128
 120.666666667 727 122.333333333 729.666666667 123 731 c 128
 123.666666667 732.333333333 125.5 735.333333333 128.5 740 c 128
 131.5 744.666666667 133.333333333 747.666666667 134 749 c 2xb8
 148 742 l 1
 138.666666667 709.333333333 126.333333333 684 111 666 c 128
 95.6666666667 648 75.3333333333 639 50 639 c 0
 34.6666666667 639 19.1666666667 644.333333333 3.5 655 c 128
 -12.1666666667 665.666666667 -25 675.5 -35 684.5 c 128
 -45 693.5 -59.1666666667 696.333333333 -77.5 693 c 128
 -95.8333333333 689.666666667 -116.666666667 676.333333333 -140 653 c 2
18 867 m 0
 26 860.333007812 30.5 851.666341145 31.5 841 c 128
 32.5 830.333007812 28 818.333007812 18 805 c 0
 8 792.333333333 -4.33333333333 779.666666667 -19 767 c 128
 -33.6669921875 754.333007812 -50.8336588542 739.166341145 -70.5 721.5 c 128
 -90.1669921875 703.833007812 -113.333658854 680.999674479 -140 653 c 1
 -151 662 l 1
 -130.333007812 694.666992188 -113.833007812 722.666992188 -101.5 746 c 128
 -89.1669921875 769.333007812 -78.6669921875 789.666341145 -70 807 c 128
 -61.3330078125 824.333007812 -51.9996744792 839.333007812 -42 852 c 0
 -32 865.333007812 -21.5 872.666341145 -10.5 874 c 128
 0.5 875.333007812 10 872.999674479 18 867 c 0
EndSplineSet
MultipleSubs2: "Multiple Substitution lookup 70 subtable" denpabu oibu
Ligature2: "zlmVV subtable" obu ibu
LCarets2: 1 0
EndChar

StartChar: aubu
Encoding: 61 60841 73
Width: 240
GlyphClass: 4
Flags: HW
HStem: 590 248
VStem: -57 136<735.848 799.298>
AnchorPoint: "Top" 0 701 mark 0
LayerCount: 2
Fore
SplineSet
79 779 m 0
 79 744.333007812 66 709.833007812 40 675.5 c 128
 14 641.166992188 -22 612.666992188 -68 590 c 1
 -73 604 l 1
 -41.6669921875 623.333007812 -16.6669921875 644.333007812 2 667 c 128
 20.6666666667 689.666666667 31 712.333333333 33 735 c 1
 25 728.333007812 16.6666666667 722.499674479 8 717.5 c 128
 -0.6669921875 712.5 -9.6669921875 710 -19 710 c 0
 -44.3330078125 710 -56.9996744792 721.666666667 -57 745 c 0
 -57 754.47265625 -55.123046875 763.805989583 -51.369140625 773 c 0
 -49.310546875 778.041992188 -46.6875 783.041992188 -43.5 788 c 0
 -34.5 802 -23 813.833333333 -9 823.5 c 128
 5 833.166992188 19.6666666667 838.000325521 35 838 c 256
 50.3330078125 838 61.4996744792 832 68.5 820 c 128
 75.5 808 79 794.333333333 79 779 c 0
EndSplineSet
MultipleSubs2: "Multiple Substitution lookup 71 subtable" denpabu aubu
Ligature2: "zlmVV subtable" abu ubu
LCarets2: 1 0
EndChar

StartChar: uy
Encoding: 63 60843 75
Width: 533
GlyphClass: 2
Flags: HW
HStem: -14 33<167.985 270.527> 427 62<162.667 261.665> 452 76<91.4246 151.476>
VStem: 69 100<44.7893 200.733> 401 92<456.711 519.2>
AnchorPoint: "Bottom" 256 0 basechar 0
AnchorPoint: "Top" 416 701 basechar 0
LayerCount: 2
Fore
SplineSet
474 379 m 1xd8
 455.333333333 388.333333333 438 402 422 420 c 128
 406 438 399 460.333333333 401 487 c 0
 402.333333333 502.333333333 407.833333333 513.166666667 417.5 519.5 c 128
 427.166666667 525.833333333 436.333333333 529 445 529 c 0
 468.333333333 529 484.333333333 515.833333333 493 489.5 c 128
 501.666666667 463.166666667 503.666666667 429.333333333 499 388 c 0
 494.333333333 348.666666667 486.333333333 309.666666667 475 271 c 128
 463.666666667 232.333333333 449.166666667 196 431.5 162 c 128
 413.833333333 128 392.666666667 97.6666666667 368 71 c 128
 343.333333333 44.3333333333 315.666666667 23.5 285 8.5 c 128
 254.333333333 -6.5 220.333333333 -14 183 -14 c 0
 153 -14 129.5 -7.83333333333 112.5 4.5 c 128
 95.5 16.8333333333 83.6666666667 32.5 77 51.5 c 128
 70.3333333333 70.5 67.6666666667 90 69 110 c 0
 71.6666666667 147.333333333 83.1666666667 187.5 103.5 230.5 c 128
 123.833333333 273.5 150.833333333 317.166666667 184.5 361.5 c 128
 218.166666667 405.833333333 257 448.666666667 301 490 c 1
 290.333333333 486 279 480.5 267 473.5 c 128
 255 466.5 243.333333333 459.5 232 452.5 c 128
 220.666666667 445.5 209.666666667 439.5 199 434.5 c 128
 188.333333333 429.5 178.333333333 427 169 427 c 0xd8
 156.333333333 427 145.5 431.166666667 136.5 439.5 c 128
 127.5 447.833333333 117.333333333 452 106 452 c 0
 95.3333333333 452 86.5 447.5 79.5 438.5 c 128
 72.5 429.5 65 413.333333333 57 390 c 2
 46 353 l 1
 27 353 l 1
 49 426 l 2
 60.3333333333 466 74.5 493 91.5 507 c 128
 108.5 521 125.666666667 528 143 528 c 0xb8
 155.666666667 528 166.333333333 524.666666667 175 518 c 128
 183.666666667 511.333333333 192.5 504.833333333 201.5 498.5 c 128
 210.5 492.166666667 221.333333333 489 234 489 c 0
 250 489 265.166666667 491.5 279.5 496.5 c 128
 293.833333333 501.5 306.666666667 509.333333333 318 520 c 1
 328 539 l 1
 349 529 l 1
 313.666666667 485.666666667 283.333333333 442 258 398 c 128
 232.666666667 354 212.5 309.666666667 197.5 265 c 128
 182.5 220.333333333 173 174.333333333 169 127 c 0
 166.333333333 88.3333333333 169.166666667 60.6666666667 177.5 44 c 128
 185.833333333 27.3333333333 197.333333333 19 212 19 c 0
 243.333333333 19 272.333333333 27.3333333333 299 44 c 128
 325.666666667 60.6666666667 349.5 82.6666666667 370.5 110 c 128
 391.5 137.333333333 409.5 167.166666667 424.5 199.5 c 128
 439.5 231.833333333 451.166666667 263.666666667 459.5 295 c 128
 467.833333333 326.333333333 472.666666667 354.333333333 474 379 c 1xd8
EndSplineSet
EndChar

StartChar: uniEDAC
Encoding: 272 60844 76
Width: 446
VWidth: 988
GlyphClass: 2
Flags: HW
HStem: 0 69<132 406> 730 20G<188.958 277>
VStem: 188 89<212.256 750>
AnchorPoint: "Top" 230 659 basechar 0
AnchorPoint: "Bottom" 228 0 basechar 0
LayerCount: 2
Fore
SplineSet
132 69 m 1
 406 69 l 1
 406 0 l 1
 29 0 l 1
 29 37 l 2
 29 47.6666666667 30 53.6666666667 32 55 c 0
 80 83 118 118.833333333 146 162.5 c 128
 174 206.166666667 188 244.666666667 188 278 c 2
 189 750 l 1
 277 750 l 1
 277 324 l 2
 277 286 267.666666667 243 249 195 c 128
 230.333333333 147 205.333333333 109.666666667 174 83 c 1
 132 69 l 1
EndSplineSet
EndChar

StartChar: seplimeabu
Encoding: 68 60848 80
Width: 400
GlyphClass: 3
Flags: W
HStem: 0 21G<-3 89.4369> 495 20<167 427>
AnchorPoint: "Bottom" 210 0 basechar 0
LayerCount: 2
Fore
SplineSet
-3 0 m 1
 137 515 l 1
 224 515 l 1
 84 0 l 1
 -3 0 l 1
167 515 m 1
 427 515 l 1
 427 495 l 1
 167 495 l 1
 167 515 l 1
EndSplineSet
Ligature2: "zlmSF subtable" slakabu seplimeabu
LCarets2: 1 0
EndChar

StartChar: seplimeebu
Encoding: 69 60849 81
Width: 400
GlyphClass: 3
Flags: W
HStem: 0 21G<-3 89.4545> 254 20<108 368> 508 20G<221.667 222.545>
AnchorPoint: "Bottom" 210 0 basechar 0
LayerCount: 2
Fore
SplineSet
-3 0 m 1
 137 514 l 1
 153.666666667 514.666666667 169.833333333 516 185.5 518 c 0
 201.166666667 520 215.333333333 523.333333333 228 528 c 1
 84 0 l 1
 -3 0 l 1
108 274 m 1
 368 274 l 1
 368 254 l 1
 108 254 l 1
 108 274 l 1
EndSplineSet
LCarets2: 1 0
Ligature2: "zlmSF subtable" slakabu seplimeebu
EndChar

StartChar: seplimeibu
Encoding: 70 60850 82
Width: 430
GlyphClass: 3
Flags: W
HStem: 0 21G<-3 89.4369 257 349.455> 495 20<177 437> 508 20G<481.667 482.545>
AnchorPoint: "Bottom" 210 0 basechar 0
LayerCount: 2
Fore
SplineSet
257 0 m 1xa0
 397 514 l 1
 413.666992188 514.666992188 429.833007812 516 445.5 518 c 0
 461.166992188 520 475.333007812 523.333007812 488 528 c 1
 344 0 l 1
 257 0 l 1xa0
-3 0 m 1
 137 515 l 1
 224 515 l 1xc0
 84 0 l 1
 -3 0 l 1
177 515 m 1
 437 515 l 1
 437 495 l 1
 177 495 l 1
 177 515 l 1
EndSplineSet
LCarets2: 1 0
Ligature2: "zlmSF subtable" slakabu seplimeibu
EndChar

StartChar: seplimeobu
Encoding: 71 60851 83
Width: 430
GlyphClass: 3
Flags: W
HStem: 0 20<40 300> 508 20G<481.667 482.545>
AnchorPoint: "Bottom" 210 0 basechar 0
LayerCount: 2
Fore
SplineSet
257 0 m 1
 397 514 l 1
 413.666992188 514.666992188 429.833007812 516 445.5 518 c 0
 461.166992188 520 475.333007812 523.333007812 488 528 c 1
 344 0 l 1
 257 0 l 1
40 20 m 1
 300 20 l 1
 300 0 l 1
 40 0 l 1
 40 20 l 1
EndSplineSet
LCarets2: 1 0
Ligature2: "zlmSF subtable" slakabu seplimeobu
EndChar

StartChar: seplimeubu
Encoding: 72 60852 84
Width: 430
GlyphClass: 3
Flags: W
HStem: 0 20<49 309> 508 20G<221.667 222.545 481.667 482.545>
AnchorPoint: "Bottom" 210 0 basechar 0
LayerCount: 2
Fore
SplineSet
257 0 m 1
 397 514 l 1
 413.666992188 514.666992188 429.833007812 516 445.5 518 c 0
 461.166992188 520 475.333007812 523.333007812 488 528 c 1
 344 0 l 1
 257 0 l 1
-3 0 m 1
 137 514 l 1
 153.666666667 514.666666667 169.833333333 516 185.5 518 c 0
 201.166666667 520 215.333333333 523.333333333 228 528 c 1
 84 0 l 1
 -3 0 l 1
49 20 m 1
 309 20 l 1
 309 0 l 1
 49 0 l 1
 49 20 l 1
EndSplineSet
LCarets2: 1 0
Ligature2: "zlmSF subtable" slakabu seplimeubu
EndChar

StartChar: seplimeybu
Encoding: 73 60853 85
Width: 400
GlyphClass: 3
Flags: HW
HStem: 0 21G<-3 89.4545> 254 20<108 368> 508 20G<221.667 222.545>
AnchorPoint: "Bottom" 210 0 basechar 0
LayerCount: 2
Fore
SplineSet
127 0 m 1
 267 514 l 1
 283.666992188 514.666992188 299.833007812 516 315.5 518 c 0
 331.166992188 520 345.333007812 523.333007812 358 528 c 1
 214 0 l 1
 127 0 l 1
108 274 m 1
 368 274 l 1
 368 254 l 1
 108 254 l 1
 108 274 l 1
EndSplineSet
LCarets2: 1 0
Ligature2: "zlmSF subtable" slakabu seplimeybu
EndChar

StartChar: seplimeaibu
Encoding: 74 60854 86
Width: 400
GlyphClass: 3
Flags: W
HStem: 0 20<36 296> 495 20<167 427>
AnchorPoint: "Bottom" 210 0 basechar 0
LayerCount: 2
Fore
SplineSet
36 20 m 1
 296 20 l 1
 296 0 l 1
 36 0 l 1
 36 20 l 1
-3 0 m 1
 137 515 l 1
 224 515 l 1
 84 0 l 1
 -3 0 l 1
167 515 m 1
 427 515 l 1
 427 495 l 1
 167 495 l 1
 167 515 l 1
EndSplineSet
LCarets2: 1 0
Ligature2: "zlmSFF subtable" slakabu seplimeaibu
Ligature2: "zlmFF subtable" seplimeabu seplimeibu
EndChar

StartChar: seplimeeibu
Encoding: 75 60855 87
Width: 381
GlyphClass: 3
Flags: HW
HStem: -14 20<59.5338 152.497> 510 18<218.528 302.146>
VStem: -17 83<24.9121 109.89> 89 82<348.055 462.3> 206 84<64.8631 192.528> 280 86<408.593 489.951>
AnchorPoint: "Bottom" 118 0 basechar 0
LayerCount: 2
Fore
SplineSet
59 15 m 1xf8
 64.3333333333 12.3333333333 70.1666666667 10.1666666667 76.5 8.5 c 128
 82.8333333333 6.83333333333 92.3333333333 6 105 6 c 0
 134.333333333 6 158.5 14.8333333333 177.5 32.5 c 128
 196.5 50.1666666667 206 75.6666666667 206 109 c 0xf8
 206 129.666666667 202.166666667 150.166666667 194.5 170.5 c 128
 186.833333333 190.833333333 173.333333333 214.333333333 154 241 c 0
 138.666666667 262.333333333 124 284.166666667 110 306.5 c 128
 96 328.833333333 89 355.333333333 89 386 c 0
 89 428.666666667 104.166666667 463 134.5 489 c 128
 164.833333333 515 201.333333333 528 244 528 c 0
 263.333333333 528 282.333333333 525.666666667 301 521 c 128
 319.666666667 516.333333333 335.166666667 507.833333333 347.5 495.5 c 128
 359.833333333 483.166666667 366 465 366 441 c 0
 366 431.666666667 362.666666667 420.666666667 356 408 c 128
 349.333333333 395.333333333 337.333333333 389 320 389 c 0
 309.333333333 389 300 392.833333333 292 400.5 c 128
 284 408.166666667 280 418.333333333 280 431 c 0xf4
 280 443 282.5 454.5 287.5 465.5 c 128
 292.5 476.5 299.333333333 487.333333333 308 498 c 1
 295.333333333 506 278.666666667 510 258 510 c 0
 233.333333333 510 212.666666667 501.666666667 196 485 c 128
 179.333333333 468.333333333 171 445 171 415 c 0
 171 392.333333333 176.166666667 373.166666667 186.5 357.5 c 128
 196.833333333 341.833333333 211.666666667 319.333333333 231 290 c 0
 247.666666667 264.666666667 261.666666667 240.333333333 273 217 c 128
 284.333333333 193.666666667 290 169 290 143 c 0
 290 112.333333333 282.166666667 85.1666666667 266.5 61.5 c 128
 250.833333333 37.8333333333 230 19.3333333333 204 6 c 128
 178 -7.33333333333 149.333333333 -14 118 -14 c 0
 95.3333333333 -14 73.6666666667 -10.6666666667 53 -4 c 128
 32.3333333333 2.66666666667 15.5 13.1666666667 2.5 27.5 c 128
 -10.5 41.8333333333 -17 61 -17 85 c 0
 -17 94.3333333333 -14.1666666667 104.166666667 -8.5 114.5 c 128
 -2.83333333333 124.833333333 7.33333333333 130 22 130 c 0
 38 130 49.3333333333 123.5 56 110.5 c 128
 62.6666666667 97.5 66 83 66 67 c 0
 66 56.3333333333 65.1666666667 46.8333333333 63.5 38.5 c 128
 61.8333333333 30.1666666667 60.3333333333 22.3333333333 59 15 c 1xf8
EndSplineSet
LCarets2: 1 0
Ligature2: "zlmSFF subtable" slakabu seplimeeibu
Ligature2: "zlmFF subtable" seplimeebu seplimeibu
EndChar

StartChar: seplimeoibu
Encoding: 76 60856 88
Width: 430
GlyphClass: 3
Flags: W
HStem: 0 20<40 300> 495 20<170 430> 508 20G<481.667 482.545>
AnchorPoint: "Bottom" 210 0 basechar 0
LayerCount: 2
Fore
SplineSet
170 515 m 1xc0
 430 515 l 1
 430 495 l 1
 170 495 l 1
 170 515 l 1xc0
257 0 m 1
 397 514 l 1
 413.666992188 514.666992188 429.833007812 516 445.5 518 c 0
 461.166992188 520 475.333007812 523.333007812 488 528 c 1xa0
 344 0 l 1
 257 0 l 1
40 20 m 1
 300 20 l 1
 300 0 l 1
 40 0 l 1
 40 20 l 1
EndSplineSet
LCarets2: 1 0
Ligature2: "zlmSFF subtable" slakabu seplimeoibu
Ligature2: "zlmFF subtable" seplimeobu seplimeibu
EndChar

StartChar: seplimeaubu
Encoding: 77 60857 89
Width: 526
GlyphClass: 3
Flags: HW
HStem: -14 85<-18.5295 67.2109> -14 46<305.667 379.086> 443 85<418.889 507.045> 482 46<136.039 210.667>
AnchorPoint: "Bottom" 179 0 basechar 0
LayerCount: 2
Fore
SplineSet
322 78 m 1x50
 324.666666667 60.6666666667 328.833333333 48.6666666667 334.5 42 c 128
 340.166666667 35.3333333333 347.333333333 32 356 32 c 0
 366 32 376.333333333 37.8333333333 387 49.5 c 128
 397.666666667 61.1666666667 409.666666667 86 423 124 c 2
 436 161 l 1
 455 161 l 1
 430 88 l 2
 420.666666667 61.3333333333 409.833333333 40.6666666667 397.5 26 c 128
 385.166666667 11.3333333333 372.166666667 1 358.5 -5 c 128
 344.833333333 -11 330.666666667 -14 316 -14 c 0
 295.333333333 -14 277.333333333 -7.33333333333 262 6 c 128
 246.666666667 19.3333333333 237 43.3333333333 233 78 c 2
 193 436 l 2
 190.333333333 453.333333333 186.166666667 465.333333333 180.5 472 c 128
 174.833333333 478.666666667 167.666666667 482 159 482 c 0
 149 482 138.666666667 476.166666667 128 464.5 c 128
 117.333333333 452.833333333 105.333333333 428 92 390 c 2
 79 353 l 1
 60 353 l 1
 85 426 l 2
 95 452.666666667 106 473.333333333 118 488 c 128
 130 502.666666667 143 513 157 519 c 128
 171 525 185 528 199 528 c 0
 222.333333333 528 241 521.5 255 508.5 c 128
 269 495.5 278 471.333333333 282 436 c 2
 322 78 l 1x50
406 467 m 1
 375.333333333 438.333333333 350.333333333 404.166666667 331 364.5 c 128
 311.666666667 324.833333333 296.666666667 289.666666667 286 259 c 1
 276 259.5 l 1
 266 260 l 1
 272 278 279.5 298.5 288.5 321.5 c 128
 297.5 344.5 309.333333333 368.5 324 393.5 c 128
 338.666666667 418.5 356.666666667 443 378 467 c 0
 397.333333333 489 414.666666667 504.666666667 430 514 c 128
 445.333333333 523.333333333 461.333333333 528 478 528 c 0
 490.666666667 528 501.166666667 524.666666667 509.5 518 c 128
 517.833333333 511.333333333 522 502.333333333 522 491 c 0
 522 478.333333333 517.166666667 467.166666667 507.5 457.5 c 128
 497.833333333 447.833333333 485 443 469 443 c 0x20
 454.333333333 443 441.666666667 445.833333333 431 451.5 c 128
 420.333333333 457.166666667 412 462.333333333 406 467 c 1
81 47 m 1
 112.333333333 75.6666666667 140 109.333333333 164 148 c 128
 188 186.666666667 206.333333333 222.333333333 219 255 c 1
 227.5 253 l 1
 236 251 l 1
 229.333333333 233 220.833333333 213 210.5 191 c 128
 200.166666667 169 187 146 171 122 c 128
 155 98 135.333333333 73.3333333333 112 48 c 0
 92 27.3333333333 74 11.8333333333 58 1.5 c 128
 42 -8.83333333333 26.3333333333 -14 11 -14 c 0
 -3.66666666667 -14 -14.8333333333 -10.6666666667 -22.5 -4 c 128
 -30.1666666667 2.66666666667 -34 11.6666666667 -34 23 c 0
 -34 35.6666666667 -29 46.8333333333 -19 56.5 c 128
 -9 66.1666666667 3.33333333333 71 18 71 c 0x80
 33.3333333333 71 46 68.3333333333 56 63 c 128
 66 57.6666666667 74.3333333333 52.3333333333 81 47 c 1
EndSplineSet
LCarets2: 1 0
Ligature2: "zlmSFF subtable" slakabu seplimeaubu
Ligature2: "zlmFF subtable" seplimeabu seplimeubu
EndChar

StartChar: uniEDBC
Encoding: 278 60860 92
Width: 446
VWidth: 988
GlyphClass: 2
Flags: HW
HStem: -250 21G<158 246> 431 69<29 302>
VStem: 158 88<-250 260.403>
AnchorPoint: "Top" 208 658 basechar 0
AnchorPoint: "Bottom" 203 0 basechar 0
LayerCount: 2
Fore
SplineSet
302 431 m 1
 29 431 l 1
 29 500 l 1
 406 500 l 1
 406 464 l 2
 406 452.666666667 405 446.333333333 403 445 c 0
 372.333333333 427 343.833333333 399.5 317.5 362.5 c 128
 291.166666667 325.5 272.666666667 292.833333333 262 264.5 c 2
 246 222 l 1
 246 -250 l 1
 158 -250 l 1
 158 176 l 1
 160.666666667 190 164.5 207.666666667 169.5 229 c 128
 174.5 250.333333333 185.833333333 282.833333333 203.5 326.5 c 128
 221.166666667 370.166666667 240 400.333333333 260 417 c 1
 302 431 l 1
EndSplineSet
EndChar

StartChar: bahebu_bahebu
Encoding: 78 -1 96
Width: 0
VWidth: 0
GlyphClass: 4
Flags: W
HStem: -194 128<-431.909 -356.585 -270.833 -195.443>
VStem: -460 125<-172.556 -94.0585> -296 125<-169.556 -91.0585>
AnchorPoint: "Bottom" -267 0 mark 0
LayerCount: 2
Fore
SplineSet
-296 -143 m 4
 -296 -123 -288.333007812 -105.166992188 -273 -89.5 c 4
 -257.666992188 -73.8330078125 -240.666992188 -66 -222 -66 c 4
 -206.666992188 -66 -194.333007812 -71 -185 -81 c 4
 -175.666992188 -91 -171 -103.333007812 -171 -118 c 4
 -171 -138 -178.666992188 -155.666992188 -194 -171 c 4
 -209.333007812 -186.333007812 -226.666992188 -194 -246 -194 c 4
 -260.666992188 -194 -272.666992188 -189.166992188 -282 -179.5 c 4
 -291.333007812 -169.833007812 -296 -157.666992188 -296 -143 c 4
-460 -146 m 0
 -460 -126 -452.333007812 -108.166992188 -437 -92.5 c 0
 -421.666992188 -76.8330078125 -404.666992188 -69 -386 -69 c 0
 -370.666992188 -69 -358.333007812 -74 -349 -84 c 0
 -339.666992188 -94 -335 -106.333007812 -335 -121 c 0
 -335 -141 -342.666992188 -158.666992188 -358 -174 c 0
 -373.333007812 -189.333007812 -390.666992188 -197 -410 -197 c 0
 -424.666992188 -197 -436.666992188 -192.166992188 -446 -182.5 c 0
 -455.333007812 -172.833007812 -460 -160.666992188 -460 -146 c 0
EndSplineSet
Ligature2: "zlmBahebu subtable" bahebu bahebu
LCarets2: 1 0
EndChar

StartChar: bahebu_bahebu_bahebu
Encoding: 79 -1 97
Width: 0
VWidth: 0
GlyphClass: 4
Flags: W
HStem: -323 128<-358.833 -283.443> -194 128<-418.833 -343.443 -251.833 -176.443>
VStem: -444 125<-169.556 -91.0585> -384 125<-298.556 -220.059> -277 125<-169.556 -91.0585>
AnchorPoint: "Bottom" -268 0 mark 0
LayerCount: 2
Fore
SplineSet
-384 -272 m 0xd0
 -384 -252 -376.333007812 -234.166992188 -361 -218.5 c 0
 -345.666992188 -202.833007812 -328.666992188 -195 -310 -195 c 0
 -294.666992188 -195 -282.333007812 -200 -273 -210 c 0
 -263.666992188 -220 -259 -232.333007812 -259 -247 c 0
 -259 -267 -266.666992188 -284.666992188 -282 -300 c 0
 -297.333007812 -315.333007812 -314.666992188 -323 -334 -323 c 0
 -348.666992188 -323 -360.666992188 -318.166992188 -370 -308.5 c 0
 -379.333007812 -298.833007812 -384 -286.666992188 -384 -272 c 0xd0
-444 -143 m 0xe0
 -444 -123 -436.333007812 -105.166992188 -421 -89.5 c 0
 -405.666992188 -73.8330078125 -388.666992188 -66 -370 -66 c 0
 -354.666992188 -66 -342.333007812 -71 -333 -81 c 0
 -323.666992188 -91 -319 -103.333007812 -319 -118 c 0
 -319 -138 -326.666992188 -155.666992188 -342 -171 c 0
 -357.333007812 -186.333007812 -374.666992188 -194 -394 -194 c 0
 -408.666992188 -194 -420.666992188 -189.166992188 -430 -179.5 c 0
 -439.333007812 -169.833007812 -444 -157.666992188 -444 -143 c 0xe0
-277 -143 m 0xc8
 -277 -123 -269.333007812 -105.166992188 -254 -89.5 c 0
 -238.666992188 -73.8330078125 -221.666992188 -66 -203 -66 c 0
 -187.666992188 -66 -175.333007812 -71 -166 -81 c 0
 -156.666992188 -91 -152 -103.333007812 -152 -118 c 0
 -152 -138 -159.666992188 -155.666992188 -175 -171 c 0
 -190.333007812 -186.333007812 -207.666992188 -194 -227 -194 c 0
 -241.666992188 -194 -253.666992188 -189.166992188 -263 -179.5 c 0
 -272.333007812 -169.833007812 -277 -157.666992188 -277 -143 c 0xc8
EndSplineSet
Ligature2: "zlmBahebu subtable" bahebu bahebu bahebu
LCarets2: 2 0 0
EndChar

StartChar: smajibu.init
Encoding: 48 -1 98
Width: 416
VWidth: 988
GlyphClass: 2
Flags: W
HStem: 326 58<93 416>
LayerCount: 2
Fore
SplineSet
93 384 m 1
 431 384 l 1
 416 326 l 1
 78 326 l 1
 93 384 l 1
EndSplineSet
EndChar

StartChar: smajibu.medi
Encoding: 49 -1 99
Width: 416
VWidth: 988
GlyphClass: 2
Flags: W
HStem: 326 58<0 416>
LayerCount: 2
Fore
SplineSet
0 384 m 1
 431 384 l 1
 416 326 l 1
 -15 326 l 1
 0 384 l 1
EndSplineSet
EndChar

StartChar: smajibu.fina
Encoding: 50 -1 100
Width: 416
VWidth: 988
GlyphClass: 2
Flags: W
HStem: 326 58<0 319>
LayerCount: 2
Fore
SplineSet
0 384 m 1
 334 384 l 1
 319 326 l 1
 -15 326 l 1
 0 384 l 1
EndSplineSet
EndChar

StartChar: denpabu.cas
Encoding: 51 -1 101
Width: 283
Flags: W
HStem: 186 18<172.109 290.395>
VStem: 423 51<362.045 452.011>
AnchorPoint: "Top" 212 701 basechar 0
AnchorPoint: "Bottom" 124 0 basechar 0
LayerCount: 2
Back
SplineSet
78 341 m 4
 78 361 85.6666666667 378.833333333 101 394.5 c 132
 116.333333333 410.166666667 133.333333333 418 152 418 c 4
 167.333333333 418 179.666666667 413 189 403 c 132
 198.333333333 393 203 380.666666667 203 366 c 4
 203 346 195.333333333 328.333333333 180 313 c 132
 164.666666667 297.666666667 147.333333333 290 128 290 c 4
 113.333333333 290 101.333333333 294.833333333 92 304.5 c 132
 82.6666666667 314.166666667 78 326.333333333 78 341 c 4
EndSplineSet
Fore
SplineSet
202 352 m 0
 195.075739185 320 164.545640442 291 129 289 c 1
 123 252.080104854 149 204 212 204 c 0
 362.567961165 204 392.125717191 269 423 431 c 0
 429.738103684 474.73644564 453.091753673 460.370266561 474 450 c 1
 452 310 392.264648438 186 217 186 c 0
 114 186 63.3834320901 295.9041385 79 357 c 0
 86.990234375 388.259765625 120.329101547 418 151 418 c 0
 184.97265625 418 210.222559718 390 202 352 c 0
EndSplineSet
EndChar

StartChar: yhy.cas
Encoding: 67 -1 109
Width: 302
Flags: W
HStem: -14 37<120.486 166.819> 508 20G<244.667 245.402>
VStem: 48.5 72<23.2742 133.453>
AnchorPoint: "Top" 252 701 basechar 0
AnchorPoint: "Bottom" 108 0 basechar 0
LayerCount: 2
Back
SplineSet
158 429 m 6
 172 470.333333333 167.333333333 491 144 491 c 4
 128.666666667 491 115 482.666666667 103 466 c 4
 91 449.333333333 78.3333333333 423.666666667 65 389 c 6
 51 352 l 5
 32 352 l 5
 58 425 l 6
 73.3333333333 467 92.6666666667 494.666666667 116 508 c 4
 139.333333333 521.333333333 161.333333333 528 182 528 c 4
 210.666666667 528 229.5 520.666666667 238.5 506 c 4
 247.5 491.333333333 250.5 473.166666667 247.5 451.5 c 4
 244.5 429.833333333 239.333333333 408.666666667 232 388 c 6
 125 85 l 6
 118.333333333 65.6666666667 116.166666667 50.5 118.5 39.5 c 4
 120.833333333 28.5 128.333333333 23 141 23 c 4
 154.333333333 23 167 30.3333333333 179 45 c 4
 191 59.6666666667 204.333333333 86.3333333333 219 125 c 6
 233 162 l 5
 252 162 l 5
 226 89 l 6
 212 50.3333333333 193.833333333 23.5 171.5 8.5 c 4
 149.166666667 -6.5 126.333333333 -14 103 -14 c 4
 74.3333333333 -14 55 -7.33333333333 45 6 c 4
 35 19.3333333333 31.3333333333 36.6666666667 34 58 c 4
 36.6666666667 79.3333333333 42.3333333333 102 51 126 c 6
 158 429 l 6
EndSplineSet
Fore
SplineSet
127 85 m 2
 122.333007812 67 120.166341146 52.1666666667 120.5 40.5 c 0
 120.833007812 28.8330078125 127.666341146 22.9996744792 141 23 c 0
 155.666992188 23 169.166992188 30.8333333333 181.5 46.5 c 0
 193.833007812 62.1669921875 206.333007812 88.3336588542 219 125 c 2
 232 162 l 1
 251 162 l 1
 226 89 l 2
 211.333007812 47 192.666341146 19.3333333333 170 6 c 0
 147.333007812 -7.3330078125 125.666341146 -13.9996744792 105 -14 c 0
 94.3330078125 -14 84.3330078125 -11.6666666667 75 -7 c 0
 65.6669921875 -2.3330078125 58.6669921875 4.33365885417 54 13 c 0
 48.6669921875 24.3330078125 46.8336588542 38.6663411458 48.5 56 c 0
 50.1669921875 73.3330078125 54.6669921875 96.6663411458 62 126 c 2
 160 514 l 1
 176.669758229 514.667102881 192.836424896 516.000436214 208.5 518 c 0
 224.166992188 520 238.333658854 523.333333333 251 528 c 1
 127 85 l 2
EndSplineSet
EndChar
